Merriweather Light.ufo
<glyph name="numbersign" format="1">
  <advance width="1523"/>
  <unicode hex="0023"/>
  <outline>
    <contour>
      <point x="363" y="0" type="line"/>
      <point x="501" y="0" type="line"/>
      <point x="534" y="364" type="line"/>
      <point x="907" y="364" type="line"/>
      <point x="876" y="0" type="line"/>
      <point x="1011" y="0" type="line"/>
      <point x="1043" y="364" type="line"/>
      <point x="1305" y="364" type="line"/>
      <point x="1305" y="469" type="line"/>
      <point x="1054" y="469" type="line"/>
      <point x="1094" y="921" type="line"/>
      <point x="1349" y="921" type="line"/>
      <point x="1349" y="1026" type="line"/>
      <point x="1104" y="1026" type="line"/>
      <point x="1135" y="1373" type="line"/>
      <point x="1000" y="1373" type="line"/>
      <point x="969" y="1026" type="line"/>
      <point x="598" y="1026" type="line"/>
      <point x="628" y="1373" type="line"/>
      <point x="492" y="1373" type="line"/>
      <point x="462" y="1026" type="line"/>
      <point x="208" y="1026" type="line"/>
      <point x="208" y="921" type="line"/>
      <point x="453" y="921" type="line"/>
      <point x="411" y="469" type="line"/>
      <point x="174" y="469" type="line"/>
      <point x="174" y="364" type="line"/>
      <point x="398" y="364" type="line"/>
    </contour>
    <contour>
      <point x="546" y="469" type="line"/>
      <point x="587" y="921" type="line"/>
      <point x="958" y="921" type="line"/>
      <point x="914" y="469" type="line"/>
    </contour>
  </outline>
</glyph>
<glyph name="dollar" format="1">
  <advance width="1370"/>
  <unicode hex="0024"/>
  <outline>
    <contour>
      <point x="658" y="-23" type="curve" smooth="yes"/>
      <point x="975" y="-23"/>
      <point x="1165" y="137"/>
      <point x="1165" y="379" type="curve" smooth="yes"/>
      <point x="1165" y="620"/>
      <point x="988" y="704"/>
      <point x="715" y="859" type="curve" smooth="yes"/>
      <point x="554" y="947"/>
      <point x="391" y="1023"/>
      <point x="391" y="1203" type="curve" smooth="yes"/>
      <point x="391" y="1377"/>
      <point x="534" y="1441"/>
      <point x="695" y="1442" type="curve" smooth="yes"/>
      <point x="811" y="1443"/>
      <point x="882" y="1416"/>
      <point x="927" y="1381" type="curve"/>
      <point x="974" y="1136" type="line"/>
      <point x="1073" y="1136" type="line"/>
      <point x="1084" y="1461" type="line"/>
      <point x="1026" y="1486"/>
      <point x="894" y="1540"/>
      <point x="703" y="1540" type="curve" smooth="yes"/>
      <point x="458" y="1540"/>
      <point x="232" y="1409"/>
      <point x="232" y="1178" type="curve" smooth="yes"/>
      <point x="232" y="945"/>
      <point x="372" y="840"/>
      <point x="609" y="716" type="curve" smooth="yes"/>
      <point x="809" y="611"/>
      <point x="999" y="526"/>
      <point x="999" y="350" type="curve" smooth="yes"/>
      <point x="999" y="166"/>
      <point x="881" y="76"/>
      <point x="671" y="76" type="curve" smooth="yes"/>
      <point x="537" y="76"/>
      <point x="431" y="107"/>
      <point x="368" y="158" type="curve"/>
      <point x="328" y="413" type="line"/>
      <point x="225" y="413" type="line"/>
      <point x="210" y="69" type="line"/>
      <point x="269" y="41"/>
      <point x="464" y="-23"/>
    </contour>
    <contour>
      <point x="596" y="-1" type="curve"/>
      <point x="594" y="-258" type="line"/>
      <point x="723" y="-258" type="line"/>
      <point x="725" y="-1" type="line"/>
      <point x="684" y="-1"/>
      <point x="637" y="-1"/>
    </contour>
    <contour>
      <point x="628" y="1499" type="line"/>
      <point x="680" y="1499"/>
      <point x="707" y="1498"/>
      <point x="759" y="1498" type="curve"/>
      <point x="759" y="1762" type="line"/>
      <point x="628" y="1762" type="line"/>
    </contour>
  </outline>
</glyph>
<glyph name="percent" format="1">
  <advance width="2088"/>
  <unicode hex="0025"/>
  <outline>
    <contour>
      <point x="471" y="663" type="curve" smooth="yes"/>
      <point x="671" y="663"/>
      <point x="861" y="813"/>
      <point x="861" y="1085" type="curve" smooth="yes"/>
      <point x="861" y="1316"/>
      <point x="751" y="1500"/>
      <point x="505" y="1500" type="curve" smooth="yes"/>
      <point x="301" y="1500"/>
      <point x="116" y="1346"/>
      <point x="116" y="1073" type="curve" smooth="yes"/>
      <point x="116" y="851"/>
      <point x="253" y="663"/>
    </contour>
    <contour>
      <point x="483" y="762" type="curve" smooth="yes"/>
      <point x="349" y="762"/>
      <point x="274" y="905"/>
      <point x="274" y="1082" type="curve" smooth="yes"/>
      <point x="274" y="1278"/>
      <point x="358" y="1400"/>
      <point x="494" y="1400" type="curve" smooth="yes"/>
      <point x="633" y="1400"/>
      <point x="704" y="1267"/>
      <point x="704" y="1077" type="curve" smooth="yes"/>
      <point x="704" y="882"/>
      <point x="618" y="762"/>
    </contour>
    <contour>
      <point x="648" y="0" type="line"/>
      <point x="782" y="0" type="line"/>
      <point x="1438" y="1538" type="line"/>
      <point x="1304" y="1538" type="line"/>
    </contour>
    <contour>
      <point x="1381" y="468" type="curve" smooth="yes"/>
      <point x="1381" y="663"/>
      <point x="1465" y="786"/>
      <point x="1601" y="786" type="curve" smooth="yes"/>
      <point x="1741" y="786"/>
      <point x="1812" y="652"/>
      <point x="1812" y="463" type="curve" smooth="yes"/>
      <point x="1812" y="268"/>
      <point x="1725" y="148"/>
      <point x="1590" y="148" type="curve" smooth="yes"/>
      <point x="1456" y="148"/>
      <point x="1381" y="290"/>
    </contour>
    <contour>
      <point x="1224" y="459" type="curve" smooth="yes"/>
      <point x="1224" y="237"/>
      <point x="1360" y="49"/>
      <point x="1578" y="49" type="curve" smooth="yes"/>
      <point x="1778" y="49"/>
      <point x="1968" y="199"/>
      <point x="1968" y="471" type="curve" smooth="yes"/>
      <point x="1968" y="701"/>
      <point x="1858" y="885"/>
      <point x="1613" y="885" type="curve" smooth="yes"/>
      <point x="1409" y="885"/>
      <point x="1224" y="731"/>
    </contour>
  </outline>
</glyph>
<glyph name="ampersand" format="1">
  <advance width="1542"/>
  <unicode hex="0026"/>
  <outline>
    <contour>
      <point x="139" y="371" type="curve" smooth="yes"/>
      <point x="139" y="121"/>
      <point x="351" y="-17"/>
      <point x="666" y="-17" type="curve" smooth="yes"/>
      <point x="780" y="-17"/>
      <point x="970" y="22"/>
      <point x="1090" y="160" type="curve"/>
      <point x="1101" y="170"/>
      <point x="1134" y="190"/>
      <point x="1144" y="201" type="curve"/>
      <point x="1259" y="307"/>
      <point x="1331" y="502"/>
      <point x="1327" y="709" type="curve"/>
      <point x="1193" y="709" type="line"/>
      <point x="1208" y="575"/>
      <point x="1178" y="382"/>
      <point x="1063" y="267" type="curve"/>
      <point x="1008" y="220" type="line"/>
      <point x="926" y="128"/>
      <point x="782" y="86"/>
      <point x="673" y="86" type="curve" smooth="yes"/>
      <point x="426" y="86"/>
      <point x="304" y="226"/>
      <point x="304" y="387" type="curve" smooth="yes"/>
      <point x="304" y="545"/>
      <point x="442" y="650"/>
      <point x="564" y="736" type="curve"/>
      <point x="639" y="767" type="line"/>
      <point x="813" y="903"/>
      <point x="999" y="1002"/>
      <point x="999" y="1261" type="curve" smooth="yes"/>
      <point x="999" y="1390"/>
      <point x="887" y="1540"/>
      <point x="650" y="1540" type="curve" smooth="yes"/>
      <point x="428" y="1540"/>
      <point x="264" y="1378"/>
      <point x="264" y="1193" type="curve" smooth="yes"/>
      <point x="264" y="1017"/>
      <point x="386" y="822"/>
      <point x="495" y="703" type="curve" smooth="yes"/>
      <point x="621" y="557"/>
      <point x="838" y="307"/>
      <point x="978" y="178" type="curve" smooth="yes"/>
      <point x="1117" y="51"/>
      <point x="1192" y="-13"/>
      <point x="1306" y="-13" type="curve" smooth="yes"/>
      <point x="1336" y="-13"/>
      <point x="1405" y="-7"/>
      <point x="1431" y="7" type="curve"/>
      <point x="1431" y="81" type="line"/>
      <point x="1269" y="91"/>
      <point x="1197" y="186"/>
      <point x="1029" y="346" type="curve" smooth="yes"/>
      <point x="916" y="460"/>
      <point x="702" y="700"/>
      <point x="619" y="807" type="curve" smooth="yes"/>
      <point x="554" y="884"/>
      <point x="426" y="1016"/>
      <point x="426" y="1207" type="curve" smooth="yes"/>
      <point x="426" y="1343"/>
      <point x="522" y="1457"/>
      <point x="645" y="1457" type="curve" smooth="yes"/>
      <point x="816" y="1457"/>
      <point x="850" y="1328"/>
      <point x="850" y="1250" type="curve" smooth="yes"/>
      <point x="849" y="1055"/>
      <point x="763" y="975"/>
      <point x="576" y="831" type="curve" smooth="yes"/>
      <point x="550" y="811"/>
      <point x="521" y="808"/>
      <point x="496" y="791" type="curve"/>
      <point x="347" y="699"/>
      <point x="139" y="582"/>
    </contour>
    <contour>
      <point x="1025" y="729" type="line"/>
      <point x="1193" y="709" type="line"/>
      <point x="1259" y="696" type="line"/>
      <point x="1327" y="709" type="line"/>
      <point x="1502" y="729" type="line"/>
      <point x="1502" y="829" type="line"/>
      <point x="1025" y="829" type="line"/>
    </contour>
  </outline>
</glyph>
<glyph name="quotesingle" format="1">
  <advance width="712"/>
  <unicode hex="0027"/>
  <outline>
    <contour>
      <point x="302" y="961" type="line"/>
      <point x="409" y="961" type="line"/>
      <point x="448" y="1684" type="line"/>
      <point x="264" y="1684" type="line"/>
    </contour>
  </outline>
</glyph>
<glyph name="plus" format="1">
  <advance width="1353"/>
  <unicode hex="002B"/>
  <outline>
    <contour>
      <point x="219" y="545" type="line"/>
      <point x="441" y="545" type="line"/>
      <point x="616" y="551" type="line"/>
      <point x="610" y="374" type="line"/>
      <point x="610" y="134" type="line"/>
      <point x="743" y="134" type="line"/>
      <point x="743" y="374" type="line"/>
      <point x="735" y="551" type="line"/>
      <point x="886" y="545" type="line"/>
      <point x="1134" y="545" type="line"/>
      <point x="1134" y="678" type="line"/>
      <point x="886" y="678" type="line"/>
      <point x="735" y="667" type="line"/>
      <point x="743" y="847" type="line"/>
      <point x="743" y="1075" type="line"/>
      <point x="610" y="1075" type="line"/>
      <point x="610" y="847" type="line"/>
      <point x="616" y="667" type="line"/>
      <point x="441" y="678" type="line"/>
      <point x="219" y="678" type="line"/>
    </contour>
  </outline>
</glyph>
<glyph name="comma" format="1">
  <advance width="686"/>
  <unicode hex="002C"/>
  <outline>
    <contour>
      <point x="348" y="284" type="line"/>
      <point x="294" y="284"/>
      <point x="247" y="246"/>
      <point x="247" y="181" type="curve" smooth="yes"/>
      <point x="247" y="59"/>
      <point x="346" y="70"/>
      <point x="346" y="-88" type="curve" smooth="yes"/>
      <point x="346" y="-256"/>
      <point x="267" y="-341"/>
      <point x="220" y="-379" type="curve"/>
      <point x="220" y="-398" type="line"/>
      <point x="271" y="-438" type="line"/>
      <point x="273" y="-438" type="line"/>
      <point x="377" y="-380"/>
      <point x="488" y="-204"/>
      <point x="488" y="32" type="curve" smooth="yes"/>
      <point x="488" y="187"/>
      <point x="440" y="284"/>
      <point x="356" y="284" type="curve" smooth="yes"/>
    </contour>
  </outline>
</glyph>
<glyph name="hyphen" format="1">
  <advance width="1285"/>
  <unicode hex="002D"/>
  <outline>
    <contour>
      <point x="230" y="554" type="line"/>
      <point x="1055" y="554" type="line"/>
      <point x="1055" y="678" type="line"/>
      <point x="230" y="678" type="line"/>
    </contour>
  </outline>
</glyph>
<glyph name="two" format="1">
  <advance width="1217"/>
  <unicode hex="0032"/>
  <outline>
    <contour>
      <point x="132" y="0" type="line"/>
      <point x="1096" y="0" type="line"/>
      <point x="1145" y="298" type="line"/>
      <point x="1054" y="317" type="line"/>
      <point x="988" y="139" type="line"/>
      <point x="248" y="92" type="line"/>
      <point x="253" y="56" type="line"/>
      <point x="634" y="262"/>
      <point x="1016" y="609"/>
      <point x="1016" y="924" type="curve" smooth="yes"/>
      <point x="1016" y="1112"/>
      <point x="887" y="1297"/>
      <point x="593" y="1297" type="curve" smooth="yes"/>
      <point x="372" y="1297"/>
      <point x="197" y="1171"/>
      <point x="115" y="1080" type="curve"/>
      <point x="173" y="1002" type="line"/>
      <point x="239" y="1067"/>
      <point x="363" y="1172"/>
      <point x="549" y="1172" type="curve" smooth="yes"/>
      <point x="731" y="1172"/>
      <point x="825" y="1064"/>
      <point x="825" y="907" type="curve" smooth="yes"/>
      <point x="825" y="634"/>
      <point x="485" y="279"/>
      <point x="106" y="70" type="curve"/>
    </contour>
  </outline>
</glyph>
<glyph name="three" format="1">
  <advance width="1139"/>
  <unicode hex="0033"/>
  <outline>
    <contour>
      <point x="136" y="-216" type="curve"/>
      <point x="136" y="-312" type="line"/>
      <point x="187" y="-323"/>
      <point x="257" y="-330"/>
      <point x="307" y="-330" type="curve" smooth="yes"/>
      <point x="745" y="-330"/>
      <point x="1032" y="-111"/>
      <point x="1030" y="197" type="curve" smooth="yes"/>
      <point x="1028" y="390"/>
      <point x="857" y="556"/>
      <point x="573" y="531" type="curve"/>
      <point x="762" y="596"/>
      <point x="956" y="770"/>
      <point x="956" y="971" type="curve" smooth="yes"/>
      <point x="956" y="1205"/>
      <point x="776" y="1297"/>
      <point x="555" y="1297" type="curve" smooth="yes"/>
      <point x="365" y="1297"/>
      <point x="193" y="1193"/>
      <point x="131" y="1133" type="curve"/>
      <point x="177" y="1059" type="line"/>
      <point x="255" y="1122"/>
      <point x="380" y="1177"/>
      <point x="511" y="1177" type="curve" smooth="yes"/>
      <point x="651" y="1177"/>
      <point x="775" y="1116"/>
      <point x="773" y="939" type="curve" smooth="yes"/>
      <point x="772" y="789"/>
      <point x="636" y="656"/>
      <point x="466" y="585" type="curve" smooth="yes"/>
      <point x="415" y="564"/>
      <point x="361" y="548"/>
      <point x="307" y="539" type="curve"/>
      <point x="337" y="441" type="line"/>
      <point x="350" y="444"/>
      <point x="456" y="471"/>
      <point x="471" y="477" type="curve"/>
      <point x="731" y="473"/>
      <point x="840" y="355"/>
      <point x="840" y="169" type="curve" smooth="yes"/>
      <point x="840" y="-45"/>
      <point x="639" y="-231"/>
      <point x="281" y="-231" type="curve" smooth="yes"/>
      <point x="244" y="-231"/>
      <point x="178" y="-228"/>
    </contour>
  </outline>
</glyph>
<glyph name="five" format="1">
  <advance width="1195"/>
  <unicode hex="0035"/>
  <outline>
    <contour>
      <point x="199" y="-237" type="curve"/>
      <point x="198" y="-316" type="line"/>
      <point x="245" y="-327"/>
      <point x="296" y="-330"/>
      <point x="341" y="-330" type="curve" smooth="yes"/>
      <point x="777" y="-330"/>
      <point x="1049" y="-40"/>
      <point x="1049" y="255" type="curve" smooth="yes"/>
      <point x="1049" y="558"/>
      <point x="877" y="698"/>
      <point x="632" y="698" type="curve" smooth="yes"/>
      <point x="518" y="698"/>
      <point x="392" y="665"/>
      <point x="324" y="626" type="curve"/>
      <point x="421" y="1137" type="line"/>
      <point x="955" y="1137" type="line"/>
      <point x="987" y="1318" type="line"/>
      <point x="868" y="1318" type="line"/>
      <point x="847" y="1279" type="line"/>
      <point x="297" y="1279" type="line"/>
      <point x="195" y="556" type="line"/>
      <point x="241" y="521" type="line"/>
      <point x="323" y="560"/>
      <point x="450" y="590"/>
      <point x="542" y="590" type="curve" smooth="yes"/>
      <point x="734" y="590"/>
      <point x="862" y="490"/>
      <point x="862" y="233" type="curve" smooth="yes"/>
      <point x="862" y="-54"/>
      <point x="622" y="-244"/>
      <point x="321" y="-244" type="curve" smooth="yes"/>
      <point x="284" y="-244"/>
      <point x="238" y="-242"/>
    </contour>
  </outline>
</glyph>
<glyph name="six" format="1">
  <advance width="1349"/>
  <unicode hex="0036"/>
  <outline>
    <contour>
      <point x="683" y="-22" type="curve" smooth="yes"/>
      <point x="1008" y="-22"/>
      <point x="1192" y="246"/>
      <point x="1192" y="535" type="curve" smooth="yes"/>
      <point x="1192" y="821"/>
      <point x="1045" y="1005"/>
      <point x="749" y="1005" type="curve" smooth="yes"/>
      <point x="531" y="1005"/>
      <point x="394" y="886"/>
      <point x="350" y="800" type="curve"/>
      <point x="351" y="700" type="line"/>
      <point x="375" y="768"/>
      <point x="511" y="895"/>
      <point x="710" y="895" type="curve" smooth="yes"/>
      <point x="885" y="895"/>
      <point x="1012" y="786"/>
      <point x="1012" y="491" type="curve" smooth="yes"/>
      <point x="1012" y="296"/>
      <point x="916" y="69"/>
      <point x="694" y="69" type="curve" smooth="yes"/>
      <point x="417" y="69"/>
      <point x="346" y="368"/>
      <point x="353" y="656" type="curve" smooth="yes"/>
      <point x="363" y="1024"/>
      <point x="620" y="1402"/>
      <point x="1040" y="1534" type="curve"/>
      <point x="1002" y="1610" type="line"/>
      <point x="598" y="1534"/>
      <point x="166" y="1126"/>
      <point x="166" y="591" type="curve" smooth="yes"/>
      <point x="166" y="262"/>
      <point x="345" y="-22"/>
    </contour>
  </outline>
</glyph>
<glyph name="seven" format="1">
  <advance width="1196"/>
  <unicode hex="0037"/>
  <outline>
    <contour>
      <point x="346" y="-295" type="curve"/>
      <point x="527" y="-345" type="line"/>
      <point x="535" y="-325"/>
      <point x="1082" y="1216"/>
      <point x="1090" y="1235" type="curve"/>
      <point x="1055" y="1279" type="line"/>
      <point x="150" y="1279" type="line"/>
      <point x="109" y="905" type="line"/>
      <point x="218" y="886" type="line"/>
      <point x="288" y="1142" type="line"/>
      <point x="936" y="1148" type="line"/>
      <point x="745" y="673"/>
      <point x="547" y="151"/>
    </contour>
  </outline>
</glyph>
<glyph name="eight" format="1">
  <advance width="1285"/>
  <unicode hex="0038"/>
  <outline>
    <contour>
      <point x="147" y="376" type="curve" smooth="yes"/>
      <point x="147" y="91"/>
      <point x="411" y="-18"/>
      <point x="642" y="-18" type="curve" smooth="yes"/>
      <point x="896" y="-18"/>
      <point x="1147" y="140"/>
      <point x="1147" y="394" type="curve" smooth="yes"/>
      <point x="1147" y="832"/>
      <point x="357" y="853"/>
      <point x="357" y="1217" type="curve" smooth="yes"/>
      <point x="357" y="1377"/>
      <point x="490" y="1475"/>
      <point x="650" y="1475" type="curve" smooth="yes"/>
      <point x="822" y="1475"/>
      <point x="939" y="1364"/>
      <point x="939" y="1174" type="curve" smooth="yes"/>
      <point x="939" y="1028"/>
      <point x="829" y="896"/>
      <point x="676" y="835" type="curve"/>
      <point x="752" y="776" type="line"/>
      <point x="957" y="879"/>
      <point x="1084" y="1043"/>
      <point x="1084" y="1221" type="curve" smooth="yes"/>
      <point x="1084" y="1429"/>
      <point x="904" y="1559"/>
      <point x="658" y="1559" type="curve" smooth="yes"/>
      <point x="434" y="1559"/>
      <point x="211" y="1429"/>
      <point x="211" y="1180" type="curve" smooth="yes"/>
      <point x="211" y="691"/>
      <point x="978" y="720"/>
      <point x="978" y="356" type="curve" smooth="yes"/>
      <point x="978" y="185"/>
      <point x="815" y="71"/>
      <point x="660" y="71" type="curve" smooth="yes"/>
      <point x="445" y="71"/>
      <point x="309" y="202"/>
      <point x="309" y="412" type="curve" smooth="yes"/>
      <point x="309" y="572"/>
      <point x="439" y="703"/>
      <point x="596" y="762" type="curve"/>
      <point x="520" y="812" type="line"/>
      <point x="262" y="711"/>
      <point x="147" y="546"/>
    </contour>
  </outline>
</glyph>
<glyph name="nine" format="1">
  <advance width="1349"/>
  <unicode hex="0039"/>
  <outline>
    <contour>
      <point x="688" y="1297" type="curve" smooth="yes"/>
      <point x="363" y="1297"/>
      <point x="170" y="1042"/>
      <point x="170" y="762" type="curve" smooth="yes"/>
      <point x="170" y="464"/>
      <point x="347" y="269"/>
      <point x="644" y="269" type="curve" smooth="yes"/>
      <point x="824" y="269"/>
      <point x="974" y="384"/>
      <point x="1017" y="476" type="curve"/>
      <point x="1015" y="580" type="line"/>
      <point x="992" y="505"/>
      <point x="855" y="375"/>
      <point x="660" y="375" type="curve" smooth="yes"/>
      <point x="483" y="375"/>
      <point x="350" y="492"/>
      <point x="350" y="798" type="curve" smooth="yes"/>
      <point x="350" y="988"/>
      <point x="454" y="1205"/>
      <point x="676" y="1205" type="curve" smooth="yes"/>
      <point x="960" y="1205"/>
      <point x="1022" y="920"/>
      <point x="1014" y="639" type="curve" smooth="yes"/>
      <point x="1004" y="251"/>
      <point x="792" y="-123"/>
      <point x="370" y="-262" type="curve"/>
      <point x="410" y="-340" type="line"/>
      <point x="815" y="-260"/>
      <point x="1201" y="144"/>
      <point x="1201" y="703" type="curve" smooth="yes"/>
      <point x="1201" y="1026"/>
      <point x="1041" y="1297"/>
    </contour>
  </outline>
</glyph>
<glyph name="less" format="1">
  <advance width="1370"/>
  <unicode hex="003C"/>
  <outline>
    <contour>
      <point x="168" y="562" type="line"/>
      <point x="1136" y="55" type="line"/>
      <point x="1136" y="210" type="line"/>
      <point x="286" y="632" type="line"/>
      <point x="286" y="601" type="line"/>
      <point x="1136" y="1023" type="line"/>
      <point x="1136" y="1178" type="line"/>
      <point x="168" y="670" type="line"/>
    </contour>
  </outline>
</glyph>
<glyph name="equal" format="1">
  <advance width="1337"/>
  <unicode hex="003D"/>
  <outline>
    <contour>
      <point x="210" y="269" type="line"/>
      <point x="1127" y="269" type="line"/>
      <point x="1127" y="395" type="line"/>
      <point x="210" y="395" type="line"/>
    </contour>
    <contour>
      <point x="210" y="836" type="line"/>
      <point x="1127" y="836" type="line"/>
      <point x="1127" y="962" type="line"/>
      <point x="210" y="962" type="line"/>
    </contour>
  </outline>
</glyph>
<glyph name="question" format="1">
  <advance width="974"/>
  <unicode hex="003F"/>
  <outline>
    <contour>
      <point x="344" y="480" type="curve"/>
      <point x="458" y="510" type="line"/>
      <point x="440" y="580"/>
      <point x="430" y="640"/>
      <point x="425" y="733" type="curve" smooth="yes"/>
      <point x="423" y="751"/>
      <point x="421" y="769"/>
      <point x="423" y="784" type="curve"/>
      <point x="498" y="936"/>
      <point x="892" y="1018"/>
      <point x="892" y="1329" type="curve" smooth="yes"/>
      <point x="892" y="1575"/>
      <point x="744" y="1839"/>
      <point x="323" y="1839" type="curve" smooth="yes"/>
      <point x="245" y="1839"/>
      <point x="130" y="1821"/>
      <point x="110" y="1804" type="curve"/>
      <point x="137" y="1698" type="line"/>
      <point x="167" y="1706"/>
      <point x="232" y="1713"/>
      <point x="285" y="1713" type="curve" smooth="yes"/>
      <point x="589" y="1713"/>
      <point x="757" y="1477"/>
      <point x="758" y="1264" type="curve" smooth="yes"/>
      <point x="758" y="1253"/>
      <point x="757" y="1242"/>
      <point x="757" y="1231" type="curve"/>
      <point x="696" y="1034"/>
      <point x="249" y="994"/>
      <point x="249" y="766" type="curve"/>
      <point x="253" y="694"/>
      <point x="298" y="529"/>
    </contour>
    <contour>
      <point x="350" y="75" type="curve" smooth="yes"/>
      <point x="363" y="16"/>
      <point x="418" y="-14"/>
      <point x="469" y="-3" type="curve" smooth="yes"/>
      <point x="527" y="5"/>
      <point x="578" y="57"/>
      <point x="566" y="126" type="curve" smooth="yes"/>
      <point x="554" y="179"/>
      <point x="515" y="214"/>
      <point x="447" y="205" type="curve" smooth="yes"/>
      <point x="393" y="196"/>
      <point x="340" y="140"/>
    </contour>
  </outline>
</glyph>
<glyph name="A" format="1">
  <advance width="1405"/>
  <unicode hex="0041"/>
  <outline>
    <contour>
      <point x="-23" y="0" type="line"/>
      <point x="438" y="0" type="line"/>
      <point x="438" y="88" type="line"/>
      <point x="234" y="111" type="line"/>
      <point x="242" y="64" type="line"/>
      <point x="624" y="1214" type="line"/>
      <point x="680" y="1415" type="line"/>
      <point x="737" y="1220" type="line"/>
      <point x="1126" y="68" type="line"/>
      <point x="1143" y="111" type="line"/>
      <point x="932" y="88" type="line"/>
      <point x="932" y="0" type="line"/>
      <point x="1432" y="0" type="line"/>
      <point x="1432" y="88" type="line"/>
      <point x="1271" y="111" type="line"/>
      <point x="1314" y="62" type="line"/>
      <point x="787" y="1537" type="line"/>
      <point x="619" y="1537" type="line"/>
      <point x="95" y="68" type="line"/>
      <point x="138" y="112" type="line"/>
      <point x="-23" y="88" type="line"/>
    </contour>
    <contour>
      <point x="301" y="433" type="line"/>
      <point x="1043" y="433" type="line"/>
      <point x="1001" y="539" type="line"/>
      <point x="335" y="539" type="line"/>
    </contour>
    <contour>
      <point x="674" y="-170" type="move" name="btm"/>
    </contour>
    <contour>
      <point x="703" y="1700" type="move" name="top"/>
    </contour>
  </outline>
</glyph>
<glyph name="C" format="1">
  <advance width="1330"/>
  <unicode hex="0043"/>
  <outline>
    <contour>
      <point x="772" y="-23" type="curve" smooth="yes"/>
      <point x="1017" y="-23"/>
      <point x="1093" y="51"/>
      <point x="1201" y="56" type="curve"/>
      <point x="1251" y="329" type="line"/>
      <point x="1151" y="344" type="line"/>
      <point x="1069" y="151" type="line"/>
      <point x="1015" y="108"/>
      <point x="946" y="75"/>
      <point x="776" y="75" type="curve" smooth="yes"/>
      <point x="426" y="75"/>
      <point x="267" y="416"/>
      <point x="267" y="786" type="curve" smooth="yes"/>
      <point x="267" y="1207"/>
      <point x="484" y="1439"/>
      <point x="762" y="1439" type="curve" smooth="yes"/>
      <point x="924" y="1439"/>
      <point x="1031" y="1410"/>
      <point x="1068" y="1376" type="curve"/>
      <point x="1112" y="1139" type="line"/>
      <point x="1218" y="1139" type="line"/>
      <point x="1235" y="1473" type="line"/>
      <point x="1164" y="1489"/>
      <point x="986" y="1538"/>
      <point x="803" y="1538" type="curve" smooth="yes"/>
      <point x="391" y="1538"/>
      <point x="74" y="1224"/>
      <point x="74" y="768" type="curve" smooth="yes"/>
      <point x="74" y="293"/>
      <point x="325" y="-23"/>
    </contour>
    <contour>
      <point x="765" y="-170" type="move" name="btm"/>
    </contour>
    <contour>
      <point x="784" y="1700" type="move" name="top"/>
    </contour>
  </outline>
</glyph>
<glyph name="D" format="1">
  <advance width="1548"/>
  <unicode hex="0044"/>
  <outline>
    <contour>
      <point x="102" y="0" type="line"/>
      <point x="194" y="0"/>
      <point x="274" y="0"/>
      <point x="365" y="0" type="curve" smooth="yes"/>
      <point x="483" y="0"/>
      <point x="600" y="-14"/>
      <point x="698" y="-16" type="curve" smooth="yes"/>
      <point x="1154" y="-27"/>
      <point x="1475" y="305"/>
      <point x="1475" y="806" type="curve" smooth="yes"/>
      <point x="1475" y="1246"/>
      <point x="1256" y="1538"/>
      <point x="724" y="1538" type="curve" smooth="yes"/>
      <point x="603" y="1538"/>
      <point x="488" y="1522"/>
      <point x="362" y="1522" type="curve" smooth="yes"/>
      <point x="114" y="1522" type="line"/>
      <point x="114" y="1434" type="line"/>
      <point x="302" y="1408" type="line"/>
      <point x="278" y="1445" type="line"/>
      <point x="278" y="67" type="line"/>
      <point x="318" y="112" type="line"/>
      <point x="102" y="88" type="line"/>
    </contour>
    <contour>
      <point x="447" y="1427" type="line"/>
      <point x="503" y="1430"/>
      <point x="579" y="1440"/>
      <point x="672" y="1440" type="curve" smooth="yes"/>
      <point x="1087" y="1440"/>
      <point x="1294" y="1217"/>
      <point x="1294" y="771" type="curve" smooth="yes"/>
      <point x="1294" y="326"/>
      <point x="1053" y="89"/>
      <point x="723" y="83" type="curve" smooth="yes"/>
      <point x="629" y="81"/>
      <point x="545" y="82"/>
      <point x="447" y="100" type="curve"/>
    </contour>
    <contour>
      <point x="805" y="-170" type="move" name="btm"/>
    </contour>
    <contour>
      <point x="806" y="1700" type="move" name="top"/>
    </contour>
  </outline>
</glyph>
<glyph name="F" format="1">
  <advance width="1264"/>
  <unicode hex="0046"/>
  <outline>
    <contour>
      <point x="111" y="0" type="line"/>
      <point x="767" y="0" type="line"/>
      <point x="767" y="88" type="line"/>
      <point x="406" y="110" type="line"/>
      <point x="447" y="66" type="line"/>
      <point x="447" y="722" type="line"/>
      <point x="856" y="714" type="line"/>
      <point x="890" y="541" type="line"/>
      <point x="985" y="541" type="line"/>
      <point x="985" y="994" type="line"/>
      <point x="890" y="994" type="line"/>
      <point x="856" y="827" type="line"/>
      <point x="447" y="821" type="line"/>
      <point x="447" y="1427" type="line"/>
      <point x="1024" y="1418" type="line"/>
      <point x="1080" y="1185" type="line"/>
      <point x="1192" y="1185" type="line"/>
      <point x="1171" y="1522" type="line"/>
      <point x="99" y="1522" type="line"/>
      <point x="99" y="1434" type="line"/>
      <point x="321" y="1406" type="line"/>
      <point x="278" y="1450" type="line"/>
      <point x="278" y="66" type="line"/>
      <point x="322" y="111" type="line"/>
      <point x="111" y="88" type="line"/>
    </contour>
    <contour>
      <point x="644" y="-170" type="move" name="btm"/>
    </contour>
    <contour>
      <point x="644" y="1700" type="move" name="top"/>
    </contour>
  </outline>
</glyph>
<glyph name="H" format="1">
  <advance width="1688"/>
  <unicode hex="0048"/>
  <outline>
    <contour>
      <point x="110" y="0" type="line"/>
      <point x="632" y="0" type="line"/>
      <point x="632" y="88" type="line"/>
      <point x="409" y="111" type="line"/>
      <point x="453" y="86" type="line"/>
      <point x="453" y="728" type="line"/>
      <point x="1234" y="728" type="line"/>
      <point x="1234" y="76" type="line"/>
      <point x="1290" y="113" type="line"/>
      <point x="1063" y="88" type="line"/>
      <point x="1063" y="0" type="line"/>
      <point x="1572" y="0" type="line"/>
      <point x="1572" y="88" type="line"/>
      <point x="1349" y="113" type="line"/>
      <point x="1404" y="76" type="line"/>
      <point x="1404" y="1449" type="line"/>
      <point x="1370" y="1407" type="line"/>
      <point x="1572" y="1434" type="line"/>
      <point x="1572" y="1522" type="line"/>
      <point x="1064" y="1522" type="line"/>
      <point x="1064" y="1434" type="line"/>
      <point x="1269" y="1407" type="line"/>
      <point x="1234" y="1448" type="line"/>
      <point x="1234" y="836" type="line"/>
      <point x="453" y="836" type="line"/>
      <point x="453" y="1446" type="line"/>
      <point x="422" y="1408" type="line"/>
      <point x="631" y="1434" type="line"/>
      <point x="631" y="1522" type="line"/>
      <point x="116" y="1522" type="line"/>
      <point x="116" y="1434" type="line"/>
      <point x="318" y="1407" type="line"/>
      <point x="284" y="1444" type="line"/>
      <point x="284" y="92" type="line"/>
      <point x="333" y="113" type="line"/>
      <point x="110" y="88" type="line"/>
    </contour>
    <contour>
      <point x="839" y="-170" type="move" name="btm"/>
    </contour>
    <contour>
      <point x="844" y="1700" type="move" name="top"/>
    </contour>
  </outline>
</glyph>
<glyph name="K" format="1">
  <advance width="1463"/>
  <unicode hex="004B"/>
  <outline>
    <contour>
      <point x="109" y="0" type="line"/>
      <point x="646" y="0" type="line"/>
      <point x="646" y="85" type="line"/>
      <point x="419" y="111" type="line"/>
      <point x="453" y="68" type="line"/>
      <point x="453" y="630" type="line"/>
      <point x="398" y="458" type="line"/>
      <point x="706" y="808" type="line"/>
      <point x="750" y="858" type="line"/>
      <point x="1289" y="1460" type="line"/>
      <point x="1217" y="1408" type="line"/>
      <point x="1394" y="1434" type="line"/>
      <point x="1394" y="1522" type="line"/>
      <point x="920" y="1522" type="line"/>
      <point x="920" y="1434" type="line"/>
      <point x="1120" y="1409" type="line"/>
      <point x="1134" y="1460" type="line"/>
      <point x="453" y="666" type="line"/>
      <point x="453" y="1457" type="line"/>
      <point x="426" y="1408" type="line"/>
      <point x="629" y="1434" type="line"/>
      <point x="629" y="1522" type="line"/>
      <point x="113" y="1522" type="line"/>
      <point x="113" y="1434" type="line"/>
      <point x="304" y="1409" type="line"/>
      <point x="284" y="1457" type="line"/>
      <point x="284" y="74" type="line"/>
      <point x="314" y="111" type="line"/>
      <point x="109" y="88" type="line"/>
    </contour>
    <contour>
      <point x="1460" y="0" type="line"/>
      <point x="1460" y="85" type="line"/>
      <point x="1364" y="108" type="line"/>
      <point x="1277" y="119"/>
      <point x="967" y="733"/>
      <point x="761" y="897" type="curve"/>
      <point x="702" y="856" type="line"/>
      <point x="647" y="799" type="line"/>
      <point x="842" y="636"/>
      <point x="1103" y="0"/>
      <point x="1215" y="0" type="curve"/>
    </contour>
    <contour>
      <point x="788" y="-170" type="move" name="btm"/>
    </contour>
    <contour>
      <point x="760" y="1700" type="move" name="top"/>
    </contour>
  </outline>
</glyph>
<glyph name="L" format="1">
  <advance width="1293"/>
  <unicode hex="004C"/>
  <outline>
    <contour>
      <point x="109" y="0" type="line"/>
      <point x="1174" y="0" type="line"/>
      <point x="1249" y="426" type="line"/>
      <point x="1151" y="443" type="line"/>
      <point x="1036" y="122" type="line"/>
      <point x="407" y="106" type="line"/>
      <point x="453" y="50" type="line"/>
      <point x="453" y="1459" type="line"/>
      <point x="434" y="1410" type="line"/>
      <point x="657" y="1434" type="line"/>
      <point x="657" y="1522" type="line"/>
      <point x="113" y="1522" type="line"/>
      <point x="113" y="1434" type="line"/>
      <point x="304" y="1409" type="line"/>
      <point x="284" y="1459" type="line"/>
      <point x="284" y="58" type="line"/>
      <point x="327" y="112" type="line"/>
      <point x="109" y="88" type="line"/>
    </contour>
    <contour>
      <point x="695" y="-170" type="move" name="btm"/>
    </contour>
    <contour>
      <point x="577" y="1700" type="move" name="top"/>
    </contour>
  </outline>
</glyph>
<glyph name="M" format="1">
  <advance width="2021"/>
  <unicode hex="004D"/>
  <outline>
    <contour>
      <point x="4" y="0" type="line"/>
      <point x="521" y="0" type="line"/>
      <point x="521" y="88" type="line"/>
      <point x="274" y="111" type="line"/>
      <point x="314" y="57" type="line"/>
      <point x="412" y="1041" type="line"/>
      <point x="460" y="1498" type="line"/>
      <point x="440" y="1498" type="line"/>
      <point x="583" y="1053" type="line"/>
      <point x="967" y="74" type="line"/>
      <point x="1039" y="74" type="line"/>
      <point x="1376" y="1167" type="line"/>
      <point x="1468" y="1477" type="line"/>
      <point x="1457" y="1477" type="line"/>
      <point x="1513" y="1040" type="line"/>
      <point x="1670" y="47" type="line"/>
      <point x="1698" y="111" type="line"/>
      <point x="1471" y="88" type="line"/>
      <point x="1471" y="0" type="line"/>
      <point x="2017" y="0" type="line"/>
      <point x="2017" y="88" type="line"/>
      <point x="1809" y="111" type="line"/>
      <point x="1844" y="48" type="line"/>
      <point x="1615" y="1411" type="line"/>
      <point x="1850" y="1434" type="line"/>
      <point x="1850" y="1522" type="line"/>
      <point x="1374" y="1522" type="line"/>
      <point x="1077" y="576" type="line"/>
      <point x="987" y="179" type="line"/>
      <point x="1050" y="179" type="line"/>
      <point x="937" y="576" type="line"/>
      <point x="592" y="1522" type="line"/>
      <point x="113" y="1522" type="line"/>
      <point x="113" y="1434" type="line"/>
      <point x="345" y="1412" type="line"/>
      <point x="177" y="56" type="line"/>
      <point x="220" y="111" type="line"/>
      <point x="4" y="88" type="line"/>
    </contour>
    <contour>
      <point x="995" y="-170" type="move" name="btm"/>
    </contour>
    <contour>
      <point x="1004" y="1700" type="move" name="top"/>
    </contour>
  </outline>
</glyph>
<glyph name="N" format="1">
  <advance width="1632"/>
  <unicode hex="004E"/>
  <outline>
    <contour>
      <point x="115" y="0" type="line"/>
      <point x="584" y="0" type="line"/>
      <point x="584" y="88" type="line"/>
      <point x="380" y="109" type="line"/>
      <point x="397" y="74" type="line"/>
      <point x="397" y="1388" type="line"/>
      <point x="360" y="1388" type="line"/>
      <point x="566" y="1054" type="line"/>
      <point x="1299" y="0" type="line"/>
      <point x="1405" y="0" type="line"/>
      <point x="1405" y="1446" type="line"/>
      <point x="1380" y="1408" type="line"/>
      <point x="1572" y="1434" type="line"/>
      <point x="1572" y="1522" type="line"/>
      <point x="1106" y="1522" type="line"/>
      <point x="1106" y="1434" type="line"/>
      <point x="1317" y="1407" type="line"/>
      <point x="1286" y="1446" type="line"/>
      <point x="1286" y="113" type="line"/>
      <point x="1373" y="113" type="line"/>
      <point x="1170" y="471" type="line"/>
      <point x="445" y="1522" type="line"/>
      <point x="115" y="1522" type="line"/>
      <point x="115" y="1434" type="line"/>
      <point x="320" y="1405" type="line"/>
      <point x="278" y="1441" type="line"/>
      <point x="278" y="74" type="line"/>
      <point x="295" y="110" type="line"/>
      <point x="115" y="88" type="line"/>
    </contour>
    <contour>
      <point x="835" y="-170" type="move" name="btm"/>
    </contour>
    <contour>
      <point x="835" y="1700" type="move" name="top"/>
    </contour>
  </outline>
</glyph>
<glyph name="Q" format="1">
  <advance width="1485"/>
  <unicode hex="0051"/>
  <outline>
    <contour>
      <point x="1668" y="-413" type="curve"/>
      <point x="1679" y="-413" type="line"/>
      <point x="1749" y="-413"/>
      <point x="1815" y="-371"/>
      <point x="1834" y="-353" type="curve"/>
      <point x="1814" y="-268" type="line"/>
      <point x="1801" y="-269"/>
      <point x="1789" y="-270"/>
      <point x="1770" y="-270" type="curve" smooth="yes"/>
      <point x="1768" y="-270" type="line"/>
      <point x="1491" y="-270"/>
      <point x="1266" y="34"/>
      <point x="951" y="34" type="curve"/>
      <point x="865" y="28" type="line"/>
      <point x="809" y="-3" type="line"/>
      <point x="1102" y="-3"/>
      <point x="1292" y="-413"/>
    </contour>
    <contour>
      <point x="728" y="-23" type="curve" smooth="yes"/>
      <point x="1106" y="-16"/>
      <point x="1404" y="292"/>
      <point x="1404" y="775" type="curve" smooth="yes"/>
      <point x="1404" y="1234"/>
      <point x="1178" y="1538"/>
      <point x="763" y="1538" type="curve" smooth="yes"/>
      <point x="383" y="1538"/>
      <point x="81" y="1232"/>
      <point x="81" y="749" type="curve" smooth="yes"/>
      <point x="81" y="289"/>
      <point x="313" y="-30"/>
    </contour>
    <contour>
      <point x="746" y="1442" type="curve" smooth="yes"/>
      <point x="1046" y="1442"/>
      <point x="1215" y="1167"/>
      <point x="1215" y="774" type="curve" smooth="yes"/>
      <point x="1215" y="310"/>
      <point x="1021" y="74"/>
      <point x="740" y="74" type="curve" smooth="yes"/>
      <point x="438" y="74"/>
      <point x="268" y="358"/>
      <point x="268" y="750" type="curve" smooth="yes"/>
      <point x="268" y="1214"/>
      <point x="462" y="1442"/>
    </contour>
    <contour>
      <point x="733" y="-170" type="move" name="btm"/>
    </contour>
    <contour>
      <point x="733" y="1700" type="move" name="top"/>
    </contour>
  </outline>
</glyph>
<glyph name="R" format="1">
  <advance width="1419"/>
  <unicode hex="0052"/>
  <outline>
    <contour>
      <point x="1417" y="0" type="curve"/>
      <point x="1417" y="85" type="line"/>
      <point x="1331" y="108" type="line"/>
      <point x="1226" y="133"/>
      <point x="1043" y="643"/>
      <point x="884" y="716" type="curve"/>
      <point x="748" y="722" type="line"/>
      <point x="717" y="683" type="line"/>
      <point x="875" y="637"/>
      <point x="1071" y="0"/>
      <point x="1178" y="0" type="curve" smooth="yes"/>
      <point x="1179" y="0"/>
      <point x="1219" y="0"/>
    </contour>
    <contour>
      <point x="103" y="0" type="line"/>
      <point x="657" y="0" type="line"/>
      <point x="657" y="88" type="line"/>
      <point x="406" y="110" type="line"/>
      <point x="447" y="63" type="line"/>
      <point x="447" y="677" type="line"/>
      <point x="490" y="676"/>
      <point x="723" y="675"/>
      <point x="760" y="675" type="curve"/>
      <point x="838" y="675"/>
      <point x="790" y="686"/>
      <point x="828" y="690" type="curve"/>
      <point x="1068" y="715"/>
      <point x="1211" y="921"/>
      <point x="1211" y="1137" type="curve" smooth="yes"/>
      <point x="1211" y="1402"/>
      <point x="1068" y="1538"/>
      <point x="668" y="1538" type="curve" smooth="yes"/>
      <point x="567" y="1538"/>
      <point x="474" y="1522"/>
      <point x="365" y="1522" type="curve" smooth="yes"/>
      <point x="114" y="1522" type="line"/>
      <point x="114" y="1437" type="line"/>
      <point x="310" y="1410" type="line"/>
      <point x="278" y="1447" type="line"/>
      <point x="278" y="63" type="line"/>
      <point x="309" y="110" type="line"/>
      <point x="103" y="88" type="line"/>
    </contour>
    <contour>
      <point x="447" y="779" type="curve"/>
      <point x="447" y="1425" type="line"/>
      <point x="494" y="1425"/>
      <point x="546" y="1437"/>
      <point x="652" y="1437" type="curve" smooth="yes"/>
      <point x="948" y="1437"/>
      <point x="1029" y="1305"/>
      <point x="1029" y="1123" type="curve" smooth="yes"/>
      <point x="1029" y="889"/>
      <point x="905" y="776"/>
      <point x="723" y="776" type="curve" smooth="yes"/>
      <point x="673" y="776"/>
      <point x="519" y="774"/>
    </contour>
    <contour>
      <point x="760" y="-170" type="move" name="btm"/>
    </contour>
    <contour>
      <point x="717" y="1700" type="move" name="top"/>
    </contour>
  </outline>
</glyph>
<glyph name="S" format="1">
  <advance width="1204"/>
  <unicode hex="0053"/>
  <outline>
    <contour>
      <point x="586" y="-23" type="curve" smooth="yes"/>
      <point x="924" y="-23"/>
      <point x="1116" y="196"/>
      <point x="1116" y="408" type="curve" smooth="yes"/>
      <point x="1116" y="654"/>
      <point x="879" y="757"/>
      <point x="677" y="853" type="curve" smooth="yes"/>
      <point x="462" y="955"/>
      <point x="315" y="1018"/>
      <point x="315" y="1194" type="curve" smooth="yes"/>
      <point x="315" y="1360"/>
      <point x="425" y="1441"/>
      <point x="627" y="1441" type="curve" smooth="yes"/>
      <point x="743" y="1441"/>
      <point x="844" y="1407"/>
      <point x="872" y="1383" type="curve"/>
      <point x="910" y="1128" type="line"/>
      <point x="1011" y="1128" type="line"/>
      <point x="1024" y="1465" type="line"/>
      <point x="964" y="1475"/>
      <point x="820" y="1538"/>
      <point x="636" y="1538" type="curve" smooth="yes"/>
      <point x="353" y="1538"/>
      <point x="154" y="1383"/>
      <point x="154" y="1152" type="curve" smooth="yes"/>
      <point x="154" y="888"/>
      <point x="402" y="778"/>
      <point x="571" y="705" type="curve" smooth="yes"/>
      <point x="778" y="616"/>
      <point x="939" y="542"/>
      <point x="939" y="362" type="curve" smooth="yes"/>
      <point x="939" y="189"/>
      <point x="822" y="77"/>
      <point x="596" y="77" type="curve" smooth="yes"/>
      <point x="455" y="77"/>
      <point x="334" y="122"/>
      <point x="286" y="168" type="curve"/>
      <point x="255" y="437" type="line"/>
      <point x="150" y="437" type="line"/>
      <point x="133" y="71" type="line"/>
      <point x="197" y="65"/>
      <point x="354" y="-23"/>
    </contour>
    <contour>
      <point x="601" y="-170" type="move" name="btm"/>
    </contour>
    <contour>
      <point x="646" y="1700" type="move" name="top"/>
    </contour>
  </outline>
</glyph>
<glyph name="T" format="1">
  <advance width="1390"/>
  <unicode hex="0054"/>
  <outline>
    <contour>
      <point x="336" y="0" type="line"/>
      <point x="1073" y="0" type="line"/>
      <point x="1073" y="88" type="line"/>
      <point x="731" y="111" type="line"/>
      <point x="781" y="58" type="line"/>
      <point x="781" y="1429" type="line"/>
      <point x="1175" y="1418" type="line"/>
      <point x="1232" y="1001" type="line"/>
      <point x="1342" y="1001" type="line"/>
      <point x="1319" y="1522" type="line"/>
      <point x="71" y="1522" type="line"/>
      <point x="37" y="1001" type="line"/>
      <point x="149" y="1001" type="line"/>
      <point x="215" y="1418" type="line"/>
      <point x="604" y="1429" type="line"/>
      <point x="604" y="61" type="line"/>
      <point x="653" y="111" type="line"/>
      <point x="336" y="88" type="line"/>
    </contour>
    <contour>
      <point x="712" y="-170" type="move" name="btm"/>
    </contour>
    <contour>
      <point x="712" y="1700" type="move" name="top"/>
    </contour>
  </outline>
</glyph>
<glyph name="U" format="1">
  <advance width="1512"/>
  <unicode hex="0055"/>
  <outline>
    <contour>
      <point x="777" y="-16" type="curve" smooth="yes"/>
      <point x="1088" y="-16"/>
      <point x="1318" y="181"/>
      <point x="1318" y="625" type="curve" smooth="yes"/>
      <point x="1318" y="1460" type="line"/>
      <point x="1290" y="1407" type="line"/>
      <point x="1475" y="1434" type="line"/>
      <point x="1475" y="1522" type="line"/>
      <point x="1020" y="1522" type="line"/>
      <point x="1020" y="1434" type="line"/>
      <point x="1223" y="1406" type="line"/>
      <point x="1189" y="1460" type="line"/>
      <point x="1189" y="617" type="line"/>
      <point x="1189" y="269"/>
      <point x="1055" y="83"/>
      <point x="793" y="83" type="curve" smooth="yes"/>
      <point x="553" y="83"/>
      <point x="381" y="208"/>
      <point x="381" y="633" type="curve" smooth="yes"/>
      <point x="381" y="1460" type="line"/>
      <point x="352" y="1407" type="line"/>
      <point x="557" y="1434" type="line"/>
      <point x="557" y="1522" type="line"/>
      <point x="56" y="1522" type="line"/>
      <point x="56" y="1434" type="line"/>
      <point x="234" y="1407" type="line"/>
      <point x="208" y="1460" type="line"/>
      <point x="208" y="651" type="line"/>
      <point x="208" y="199"/>
      <point x="381" y="-16"/>
    </contour>
    <contour>
      <point x="789" y="-170" type="move" name="btm"/>
    </contour>
    <contour>
      <point x="795" y="1700" type="move" name="top"/>
    </contour>
  </outline>
</glyph>
<glyph name="V" format="1">
  <advance width="1351"/>
  <unicode hex="0056"/>
  <outline>
    <contour>
      <point x="633" y="-16" type="line"/>
      <point x="768" y="-16" type="line"/>
      <point x="1271" y="1455" type="line"/>
      <point x="1228" y="1407" type="line"/>
      <point x="1386" y="1434" type="line"/>
      <point x="1386" y="1522" type="line"/>
      <point x="955" y="1522" type="line"/>
      <point x="955" y="1434" type="line"/>
      <point x="1139" y="1409" type="line"/>
      <point x="1134" y="1457" type="line"/>
      <point x="805" y="428" type="line"/>
      <point x="727" y="145" type="line"/>
      <point x="641" y="423" type="line"/>
      <point x="263" y="1454" type="line"/>
      <point x="244" y="1408" type="line"/>
      <point x="467" y="1434" type="line"/>
      <point x="467" y="1522" type="line"/>
      <point x="-30" y="1522" type="line"/>
      <point x="-30" y="1434" type="line"/>
      <point x="135" y="1405" type="line"/>
      <point x="83" y="1450" type="line"/>
    </contour>
    <contour>
      <point x="703" y="-170" type="move" name="btm"/>
    </contour>
    <contour>
      <point x="672" y="1700" type="move" name="top"/>
    </contour>
  </outline>
</glyph>
<glyph name="W" format="1">
  <advance width="2026"/>
  <unicode hex="0057"/>
  <outline>
    <contour>
      <point x="543" y="-11" type="line"/>
      <point x="692" y="-11" type="line"/>
      <point x="1037" y="1122" type="line"/>
      <point x="1006" y="1101" type="line"/>
      <point x="1349" y="-11" type="line"/>
      <point x="1508" y="-11" type="line"/>
      <point x="1940" y="1453" type="line"/>
      <point x="1914" y="1409" type="line"/>
      <point x="2065" y="1434" type="line"/>
      <point x="2065" y="1522" type="line"/>
      <point x="1580" y="1522" type="line"/>
      <point x="1580" y="1434" type="line"/>
      <point x="1815" y="1409" type="line"/>
      <point x="1810" y="1463" type="line"/>
      <point x="1521" y="439" type="line"/>
      <point x="1443" y="34" type="line"/>
      <point x="1467" y="34" type="line"/>
      <point x="1374" y="439" type="line"/>
      <point x="1067" y="1474" type="line"/>
      <point x="1057" y="1408" type="line"/>
      <point x="1288" y="1434" type="line"/>
      <point x="1288" y="1522" type="line"/>
      <point x="756" y="1522" type="line"/>
      <point x="756" y="1434" type="line"/>
      <point x="930" y="1408" type="line"/>
      <point x="891" y="1463" type="line"/>
      <point x="977" y="1195" type="line"/>
      <point x="977" y="1285" type="line"/>
      <point x="717" y="439" type="line"/>
      <point x="620" y="44" type="line"/>
      <point x="652" y="44" type="line"/>
      <point x="570" y="439" type="line"/>
      <point x="257" y="1462" type="line"/>
      <point x="247" y="1408" type="line"/>
      <point x="473" y="1434" type="line"/>
      <point x="473" y="1522" type="line"/>
      <point x="-42" y="1522" type="line"/>
      <point x="-42" y="1434" type="line"/>
      <point x="123" y="1407" type="line"/>
      <point x="83" y="1466" type="line"/>
    </contour>
    <contour>
      <point x="997" y="-170" type="move" name="btm"/>
    </contour>
    <contour>
      <point x="1007" y="1700" type="move" name="top"/>
    </contour>
  </outline>
</glyph>
<glyph name="X" format="1">
  <advance width="1449"/>
  <unicode hex="0058"/>
  <outline>
    <contour>
      <point x="15" y="0" type="line"/>
      <point x="553" y="0" type="line"/>
      <point x="553" y="88" type="line"/>
      <point x="306" y="110" type="line"/>
      <point x="311" y="53" type="line"/>
      <point x="718" y="730" type="line"/>
      <point x="686" y="725" type="line"/>
      <point x="1100" y="65" type="line"/>
      <point x="1114" y="111" type="line"/>
      <point x="873" y="88" type="line"/>
      <point x="873" y="0" type="line"/>
      <point x="1443" y="0" type="line"/>
      <point x="1443" y="88" type="line"/>
      <point x="1224" y="113" type="line"/>
      <point x="1308" y="67" type="line"/>
      <point x="794" y="822" type="line"/>
      <point x="799" y="766" type="line"/>
      <point x="1278" y="1460" type="line"/>
      <point x="1198" y="1404" type="line"/>
      <point x="1405" y="1434" type="line"/>
      <point x="1405" y="1522" type="line"/>
      <point x="916" y="1522" type="line"/>
      <point x="916" y="1434" type="line"/>
      <point x="1126" y="1408" type="line"/>
      <point x="1125" y="1453" type="line"/>
      <point x="736" y="819" type="line"/>
      <point x="788" y="814" type="line"/>
      <point x="384" y="1461" type="line"/>
      <point x="373" y="1406" type="line"/>
      <point x="625" y="1434" type="line"/>
      <point x="625" y="1522" type="line"/>
      <point x="51" y="1522" type="line"/>
      <point x="51" y="1434" type="line"/>
      <point x="254" y="1404" type="line"/>
      <point x="179" y="1455" type="line"/>
      <point x="664" y="739" type="line"/>
      <point x="654" y="789" type="line"/>
      <point x="165" y="67" type="line"/>
      <point x="234" y="111" type="line"/>
      <point x="15" y="88" type="line"/>
    </contour>
    <contour>
      <point x="724" y="-170" type="move" name="btm"/>
    </contour>
    <contour>
      <point x="724" y="1700" type="move" name="top"/>
    </contour>
  </outline>
</glyph>
<glyph name="Y" format="1">
  <advance width="1311"/>
  <unicode hex="0059"/>
  <outline>
    <contour>
      <point x="354" y="0" type="line"/>
      <point x="987" y="0" type="line"/>
      <point x="987" y="88" type="line"/>
      <point x="717" y="111" type="line"/>
      <point x="754" y="75" type="line"/>
      <point x="754" y="639" type="line"/>
      <point x="722" y="528" type="line"/>
      <point x="1224" y="1463" type="line"/>
      <point x="1155" y="1404" type="line"/>
      <point x="1332" y="1434" type="line"/>
      <point x="1332" y="1522" type="line"/>
      <point x="887" y="1522" type="line"/>
      <point x="887" y="1434" type="line"/>
      <point x="1083" y="1408" type="line"/>
      <point x="1090" y="1473" type="line"/>
      <point x="761" y="831" type="line"/>
      <point x="677" y="655" type="line"/>
      <point x="688" y="655" type="line"/>
      <point x="609" y="831" type="line"/>
      <point x="268" y="1470" type="line"/>
      <point x="272" y="1408" type="line"/>
      <point x="472" y="1434" type="line"/>
      <point x="472" y="1522" type="line"/>
      <point x="-19" y="1522" type="line"/>
      <point x="-19" y="1434" type="line"/>
      <point x="157" y="1401" type="line"/>
      <point x="73" y="1474" type="line"/>
      <point x="616" y="526" type="line"/>
      <point x="582" y="639" type="line"/>
      <point x="582" y="74" type="line"/>
      <point x="620" y="111" type="line"/>
      <point x="354" y="88" type="line"/>
    </contour>
    <contour>
      <point x="625" y="-170" type="move" name="btm"/>
    </contour>
    <contour>
      <point x="678" y="1700" type="move" name="top"/>
    </contour>
  </outline>
</glyph>
<glyph name="asciicircum" format="1">
  <advance width="1363"/>
  <unicode hex="005E"/>
  <outline>
    <contour>
      <point x="185" y="273" type="line"/>
      <point x="317" y="273" type="line"/>
      <point x="680" y="1356" type="line"/>
      <point x="1044" y="273" type="line"/>
      <point x="1178" y="273" type="line"/>
      <point x="763" y="1531" type="line"/>
      <point x="595" y="1531" type="line"/>
    </contour>
  </outline>
</glyph>
<glyph name="c" format="1">
  <advance width="1043"/>
  <unicode hex="0063"/>
  <outline>
    <contour>
      <point x="69" y="554" type="curve" smooth="yes"/>
      <point x="71" y="232"/>
      <point x="245" y="-23"/>
      <point x="578" y="-23" type="curve" smooth="yes"/>
      <point x="719" y="-23"/>
      <point x="873" y="47"/>
      <point x="948" y="123" type="curve"/>
      <point x="915" y="191" type="line"/>
      <point x="855" y="147"/>
      <point x="739" y="97"/>
      <point x="614" y="97" type="curve" smooth="yes"/>
      <point x="406" y="97"/>
      <point x="244" y="262"/>
      <point x="246" y="618" type="curve" smooth="yes"/>
      <point x="247" y="900"/>
      <point x="386" y="1071"/>
      <point x="596" y="1071" type="curve" smooth="yes"/>
      <point x="680" y="1071"/>
      <point x="761" y="1058"/>
      <point x="772" y="1009" type="curve" smooth="yes"/>
      <point x="815" y="814" type="line"/>
      <point x="917" y="814" type="line"/>
      <point x="926" y="1106" type="line"/>
      <point x="873" y="1129"/>
      <point x="758" y="1168"/>
      <point x="638" y="1168" type="curve" smooth="yes"/>
      <point x="254" y="1168"/>
      <point x="67" y="878"/>
    </contour>
    <contour>
      <point x="568" y="-170" type="move" name="btm"/>
    </contour>
    <contour>
      <point x="559" y="1700" type="move" name="top"/>
    </contour>
  </outline>
</glyph>
<glyph name="f" format="1">
  <advance width="809"/>
  <unicode hex="0066"/>
  <outline>
    <contour>
      <point x="91" y="0" type="line"/>
      <point x="670" y="0" type="line"/>
      <point x="670" y="88" type="line"/>
      <point x="403" y="106" type="line"/>
      <point x="437" y="63" type="line"/>
      <point x="437" y="1014" type="line"/>
      <point x="734" y="1014" type="line"/>
      <point x="734" y="1135" type="line"/>
      <point x="437" y="1135" type="line"/>
      <point x="437" y="1289" type="line"/>
      <point x="437" y="1477"/>
      <point x="502" y="1540"/>
      <point x="643" y="1540" type="curve" smooth="yes"/>
      <point x="740" y="1540"/>
      <point x="806" y="1517"/>
      <point x="825" y="1503" type="curve"/>
      <point x="825" y="1672" type="line"/>
      <point x="801" y="1680"/>
      <point x="773" y="1688"/>
      <point x="711" y="1688" type="curve" smooth="yes"/>
      <point x="489" y="1688"/>
      <point x="271" y="1487"/>
      <point x="271" y="1234" type="curve" smooth="yes"/>
      <point x="271" y="1135" type="line"/>
      <point x="63" y="1095" type="line"/>
      <point x="63" y="1014" type="line"/>
      <point x="271" y="1014" type="line"/>
      <point x="271" y="64" type="line"/>
      <point x="301" y="107" type="line"/>
      <point x="91" y="88" type="line"/>
    </contour>
    <contour>
      <point x="377" y="-170" type="move" name="btm"/>
    </contour>
    <contour>
      <point x="403" y="2063" type="move" name="top"/>
    </contour>
  </outline>
</glyph>
<glyph name="g" format="1">
  <advance width="1223"/>
  <unicode hex="0067"/>
  <outline>
    <contour>
      <point x="95" y="-246" type="curve" smooth="yes"/>
      <point x="95" y="-425"/>
      <point x="221" y="-552"/>
      <point x="578" y="-552" type="curve" smooth="yes"/>
      <point x="579" y="-552" type="line"/>
      <point x="914" y="-552"/>
      <point x="1177" y="-360"/>
      <point x="1177" y="-137" type="curve" smooth="yes"/>
      <point x="1177" y="33"/>
      <point x="1066" y="143"/>
      <point x="804" y="143" type="curve" smooth="yes"/>
      <point x="564" y="143" type="line"/>
      <point x="399" y="143"/>
      <point x="338" y="176"/>
      <point x="338" y="283" type="curve" smooth="yes"/>
      <point x="338" y="343"/>
      <point x="383" y="409"/>
      <point x="449" y="448" type="curve"/>
      <point x="364" y="466" type="line"/>
      <point x="270" y="426"/>
      <point x="188" y="326"/>
      <point x="188" y="211" type="curve" smooth="yes"/>
      <point x="188" y="53"/>
      <point x="317" y="-1"/>
      <point x="509" y="-1" type="curve" smooth="yes"/>
      <point x="763" y="-1" type="line"/>
      <point x="986" y="-1"/>
      <point x="1021" y="-70"/>
      <point x="1021" y="-184" type="curve" smooth="yes"/>
      <point x="1021" y="-350"/>
      <point x="804" y="-448"/>
      <point x="589" y="-448" type="curve" smooth="yes"/>
      <point x="587" y="-448" type="line"/>
      <point x="335" y="-448"/>
      <point x="261" y="-361"/>
      <point x="261" y="-213" type="curve" smooth="yes"/>
      <point x="261" y="-95"/>
      <point x="327" y="-10"/>
      <point x="400" y="47" type="curve"/>
      <point x="331" y="63" type="line"/>
      <point x="235" y="28"/>
      <point x="95" y="-89"/>
    </contour>
    <contour>
      <point x="852" y="795" type="curve" smooth="yes"/>
      <point x="852" y="609"/>
      <point x="770" y="508"/>
      <point x="592" y="508" type="curve" smooth="yes"/>
      <point x="591" y="508" type="line"/>
      <point x="394" y="508"/>
      <point x="311" y="636"/>
      <point x="311" y="798" type="curve" smooth="yes"/>
      <point x="311" y="1005"/>
      <point x="432" y="1067"/>
      <point x="582" y="1067" type="curve" smooth="yes"/>
      <point x="583" y="1067" type="line"/>
      <point x="755" y="1067"/>
      <point x="852" y="985"/>
    </contour>
    <contour>
      <point x="1026" y="817" type="curve" smooth="yes"/>
      <point x="1026" y="1059"/>
      <point x="833" y="1168"/>
      <point x="594" y="1168" type="curve" smooth="yes"/>
      <point x="593" y="1168" type="line"/>
      <point x="369" y="1168"/>
      <point x="138" y="1027"/>
      <point x="138" y="777" type="curve" smooth="yes"/>
      <point x="138" y="545"/>
      <point x="325" y="407"/>
      <point x="571" y="407" type="curve" smooth="yes"/>
      <point x="572" y="407" type="line"/>
      <point x="819" y="407"/>
      <point x="1026" y="569"/>
    </contour>
    <contour>
      <point x="1200" y="1016" type="line"/>
      <point x="1200" y="1168" type="line"/>
      <point x="1133" y="1168" type="line"/>
      <point x="1007" y="1168"/>
      <point x="904" y="1092"/>
      <point x="892" y="1075" type="curve"/>
      <point x="898" y="1016" type="line"/>
    </contour>
    <contour>
      <point x="596" y="1700" type="move" name="top"/>
    </contour>
  </outline>
</glyph>
<glyph name="k" format="1">
  <advance width="1189"/>
  <unicode hex="006B"/>
  <outline>
    <contour>
      <point x="73" y="0" type="line"/>
      <point x="532" y="0" type="line"/>
      <point x="532" y="88" type="line"/>
      <point x="356" y="106" type="line"/>
      <point x="375" y="67" type="line"/>
      <point x="375" y="278" type="line"/>
      <point x="370" y="411" type="line"/>
      <point x="355" y="368" type="line"/>
      <point x="616" y="623" type="line"/>
      <point x="589" y="629" type="line"/>
      <point x="952" y="58" type="line"/>
      <point x="954" y="109" type="line"/>
      <point x="780" y="88" type="line"/>
      <point x="780" y="0" type="line"/>
      <point x="1249" y="0" type="line"/>
      <point x="1249" y="88" type="line"/>
      <point x="1077" y="107" type="line"/>
      <point x="1144" y="61" type="line"/>
      <point x="691" y="723" type="line"/>
      <point x="673" y="668" type="line"/>
      <point x="1104" y="1090" type="line"/>
      <point x="998" y="1019" type="line"/>
      <point x="1197" y="1055" type="line"/>
      <point x="1197" y="1136" type="line"/>
      <point x="724" y="1136" type="line"/>
      <point x="724" y="1055" type="line"/>
      <point x="918" y="1020" type="line"/>
      <point x="934" y="1083" type="line"/>
      <point x="345" y="477" type="line"/>
      <point x="369" y="456" type="line"/>
      <point x="375" y="632" type="line"/>
      <point x="375" y="1650" type="line"/>
      <point x="336" y="1677" type="line"/>
      <point x="334" y="1677" type="line"/>
      <point x="41" y="1642" type="line"/>
      <point x="41" y="1567" type="line"/>
      <point x="209" y="1549" type="line"/>
      <point x="209" y="67" type="line"/>
      <point x="240" y="108" type="line"/>
      <point x="73" y="88" type="line"/>
    </contour>
    <contour>
      <point x="636" y="-170" type="move" name="btm"/>
    </contour>
    <contour>
      <point x="712" y="1700" type="move" name="top"/>
    </contour>
  </outline>
</glyph>
<glyph name="l" format="1">
  <advance width="673"/>
  <unicode hex="006C"/>
  <outline>
    <contour>
      <point x="80" y="0" type="line"/>
      <point x="618" y="0" type="line"/>
      <point x="618" y="88" type="line"/>
      <point x="399" y="106" type="line"/>
      <point x="427" y="67" type="line"/>
      <point x="427" y="1650" type="line"/>
      <point x="387" y="1678" type="line"/>
      <point x="386" y="1678" type="line"/>
      <point x="85" y="1642" type="line"/>
      <point x="85" y="1567" type="line"/>
      <point x="261" y="1549" type="line"/>
      <point x="261" y="67" type="line"/>
      <point x="294" y="107" type="line"/>
      <point x="80" y="88" type="line"/>
    </contour>
    <contour>
      <point x="347" y="-170" type="move" name="btm"/>
    </contour>
    <contour>
      <point x="318" y="1700" type="move" name="top"/>
    </contour>
  </outline>
</glyph>
<glyph name="m" format="1">
  <advance width="2015"/>
  <unicode hex="006D"/>
  <outline>
    <contour>
      <point x="91" y="0" type="line"/>
      <point x="532" y="0" type="line"/>
      <point x="532" y="88" type="line"/>
      <point x="351" y="108" type="line"/>
      <point x="387" y="72" type="line"/>
      <point x="387" y="901" type="line"/>
      <point x="471" y="966"/>
      <point x="608" y="1036"/>
      <point x="723" y="1036" type="curve" smooth="yes"/>
      <point x="921" y="1036"/>
      <point x="949" y="921"/>
      <point x="949" y="684" type="curve" smooth="yes"/>
      <point x="949" y="73" type="line"/>
      <point x="996" y="109" type="line"/>
      <point x="801" y="88" type="line"/>
      <point x="801" y="0" type="line"/>
      <point x="1269" y="0" type="line"/>
      <point x="1269" y="88" type="line"/>
      <point x="1069" y="109" type="line"/>
      <point x="1114" y="67" type="line"/>
      <point x="1114" y="683" type="line"/>
      <point x="1114" y="1018"/>
      <point x="1044" y="1164"/>
      <point x="789" y="1164" type="curve" smooth="yes"/>
      <point x="643" y="1164"/>
      <point x="456" y="1065"/>
      <point x="367" y="987" type="curve"/>
      <point x="369" y="1038" type="line"/>
      <point x="369" y="1129" type="line"/>
      <point x="329" y="1161" type="line"/>
      <point x="324" y="1161" type="line"/>
      <point x="63" y="1129" type="line"/>
      <point x="63" y="1037" type="line"/>
      <point x="222" y="1001" type="line"/>
      <point x="222" y="72" type="line"/>
      <point x="272" y="110" type="line"/>
      <point x="91" y="88" type="line"/>
    </contour>
    <contour>
      <point x="1081" y="919" type="line"/>
      <point x="1147" y="972"/>
      <point x="1281" y="1038"/>
      <point x="1395" y="1038" type="curve" smooth="yes"/>
      <point x="1603" y="1038"/>
      <point x="1640" y="916"/>
      <point x="1640" y="680" type="curve" smooth="yes"/>
      <point x="1640" y="65" type="line"/>
      <point x="1685" y="109" type="line"/>
      <point x="1502" y="88" type="line"/>
      <point x="1502" y="0" type="line"/>
      <point x="1960" y="0" type="line"/>
      <point x="1960" y="88" type="line"/>
      <point x="1751" y="110" type="line"/>
      <point x="1805" y="65" type="line"/>
      <point x="1805" y="686" type="line"/>
      <point x="1805" y="1017"/>
      <point x="1736" y="1164"/>
      <point x="1476" y="1164" type="curve" smooth="yes"/>
      <point x="1322" y="1164"/>
      <point x="1119" y="1063"/>
      <point x="1055" y="1002" type="curve"/>
    </contour>
    <contour>
      <point x="994" y="-170" type="move" name="btm"/>
    </contour>
    <contour>
      <point x="994" y="1700" type="move" name="top"/>
    </contour>
  </outline>
</glyph>
<glyph name="n" format="1">
  <advance width="1337"/>
  <unicode hex="006E"/>
  <outline>
    <contour>
      <point x="84" y="0" type="line"/>
      <point x="536" y="0" type="line"/>
      <point x="536" y="88" type="line"/>
      <point x="352" y="108" type="line"/>
      <point x="387" y="72" type="line"/>
      <point x="387" y="900" type="line"/>
      <point x="471" y="965"/>
      <point x="612" y="1036"/>
      <point x="729" y="1036" type="curve" smooth="yes"/>
      <point x="927" y="1036"/>
      <point x="961" y="922"/>
      <point x="961" y="684" type="curve" smooth="yes"/>
      <point x="961" y="73" type="line"/>
      <point x="1009" y="109" type="line"/>
      <point x="820" y="88" type="line"/>
      <point x="820" y="0" type="line"/>
      <point x="1280" y="0" type="line"/>
      <point x="1280" y="88" type="line"/>
      <point x="1081" y="108" type="line"/>
      <point x="1126" y="67" type="line"/>
      <point x="1126" y="683" type="line"/>
      <point x="1126" y="1011"/>
      <point x="1064" y="1164"/>
      <point x="799" y="1164" type="curve" smooth="yes"/>
      <point x="646" y="1164"/>
      <point x="456" y="1065"/>
      <point x="367" y="987" type="curve"/>
      <point x="369" y="1038" type="line"/>
      <point x="369" y="1129" type="line"/>
      <point x="329" y="1161" type="line"/>
      <point x="324" y="1161" type="line"/>
      <point x="63" y="1129" type="line"/>
      <point x="63" y="1037" type="line"/>
      <point x="222" y="1001" type="line"/>
      <point x="222" y="72" type="line"/>
      <point x="271" y="110" type="line"/>
      <point x="84" y="88" type="line"/>
    </contour>
    <contour>
      <point x="691" y="-170" type="move" name="btm"/>
    </contour>
    <contour>
      <point x="657" y="1700" type="move" name="top"/>
    </contour>
  </outline>
</glyph>
<glyph name="o" format="1">
  <advance width="1218"/>
  <unicode hex="006F"/>
  <outline>
    <contour>
      <point x="608" y="84" type="curve" smooth="yes"/>
      <point x="370" y="84"/>
      <point x="279" y="314"/>
      <point x="279" y="587" type="curve" smooth="yes"/>
      <point x="279" y="901"/>
      <point x="402" y="1061"/>
      <point x="610" y="1061" type="curve" smooth="yes"/>
      <point x="850" y="1061"/>
      <point x="938" y="828"/>
      <point x="938" y="558" type="curve" smooth="yes"/>
      <point x="938" y="245"/>
      <point x="816" y="84"/>
    </contour>
    <contour>
      <point x="93" y="576" type="curve" smooth="yes"/>
      <point x="93" y="254"/>
      <point x="231" y="-23"/>
      <point x="599" y="-23" type="curve" smooth="yes"/>
      <point x="860" y="-23"/>
      <point x="1125" y="196"/>
      <point x="1125" y="569" type="curve" smooth="yes"/>
      <point x="1125" y="891"/>
      <point x="986" y="1168"/>
      <point x="618" y="1168" type="curve" smooth="yes"/>
      <point x="357" y="1168"/>
      <point x="93" y="948"/>
    </contour>
    <contour>
      <point x="601" y="-170" type="move" name="btm"/>
    </contour>
    <contour>
      <point x="617" y="1700" type="move" name="top"/>
    </contour>
  </outline>
</glyph>
<glyph name="p" format="1">
  <advance width="1278"/>
  <unicode hex="0070"/>
  <outline>
    <contour>
      <point x="63" y="-405" type="line"/>
      <point x="63" y="-496" type="line"/>
      <point x="612" y="-496" type="line"/>
      <point x="612" y="-405" type="line"/>
      <point x="343" y="-381" type="line"/>
      <point x="385" y="-423" type="line"/>
      <point x="385" y="-164" type="line"/>
      <point x="381" y="10" type="line"/>
      <point x="385" y="68" type="line"/>
      <point x="385" y="963" type="line"/>
      <point x="365" y="986" type="line"/>
      <point x="365" y="1129" type="line"/>
      <point x="328" y="1161" type="line"/>
      <point x="323" y="1161" type="line"/>
      <point x="61" y="1129" type="line"/>
      <point x="61" y="1037" type="line"/>
      <point x="221" y="1001" type="line"/>
      <point x="221" y="-421" type="line"/>
      <point x="263" y="-380" type="line"/>
    </contour>
    <contour>
      <point x="1183" y="610" type="curve" smooth="yes"/>
      <point x="1183" y="1003"/>
      <point x="963" y="1168"/>
      <point x="735" y="1168" type="curve" smooth="yes"/>
      <point x="535" y="1168"/>
      <point x="397" y="1047"/>
      <point x="334" y="970" type="curve"/>
      <point x="382" y="920" type="line"/>
      <point x="429" y="972"/>
      <point x="536" y="1042"/>
      <point x="667" y="1042" type="curve" smooth="yes"/>
      <point x="850" y="1042"/>
      <point x="1008" y="908"/>
      <point x="1005" y="581" type="curve" smooth="yes"/>
      <point x="1000" y="232"/>
      <point x="834" y="74"/>
      <point x="615" y="74" type="curve" smooth="yes"/>
      <point x="502" y="74"/>
      <point x="405" y="111"/>
      <point x="385" y="144" type="curve"/>
      <point x="318" y="84" type="line"/>
      <point x="381" y="10" type="line"/>
      <point x="437" y="-10"/>
      <point x="533" y="-23"/>
      <point x="606" y="-23" type="curve" smooth="yes"/>
      <point x="957" y="-23"/>
      <point x="1183" y="259"/>
    </contour>
    <contour>
      <point x="666" y="-170" type="move" name="btm"/>
    </contour>
    <contour>
      <point x="717" y="1700" type="move" name="top"/>
    </contour>
  </outline>
</glyph>
<glyph name="q" format="1">
  <advance width="1239"/>
  <unicode hex="0071"/>
  <outline>
    <contour>
      <point x="664" y="-412" type="line"/>
      <point x="664" y="-496" type="line"/>
      <point x="1202" y="-496" type="line"/>
      <point x="1202" y="-412" type="line"/>
      <point x="1011" y="-385" type="line"/>
      <point x="1058" y="-425" type="line"/>
      <point x="1058" y="1129" type="line"/>
      <point x="1024" y="1162" type="line"/>
      <point x="1023" y="1162" type="line"/>
      <point x="892" y="1119" type="line"/>
      <point x="892" y="202" type="line"/>
      <point x="899" y="136" type="line"/>
      <point x="893" y="-48" type="line"/>
      <point x="893" y="-425" type="line"/>
      <point x="938" y="-387" type="line"/>
    </contour>
    <contour>
      <point x="544" y="-23" type="curve" smooth="yes"/>
      <point x="743" y="-23"/>
      <point x="877" y="99"/>
      <point x="941" y="176" type="curve"/>
      <point x="895" y="222" type="line"/>
      <point x="852" y="175"/>
      <point x="748" y="97"/>
      <point x="612" y="97" type="curve" smooth="yes"/>
      <point x="427" y="97"/>
      <point x="271" y="249"/>
      <point x="274" y="576" type="curve" smooth="yes"/>
      <point x="279" y="924"/>
      <point x="444" y="1078"/>
      <point x="662" y="1078" type="curve" smooth="yes"/>
      <point x="770" y="1078"/>
      <point x="877" y="1038"/>
      <point x="892" y="1005" type="curve"/>
      <point x="973" y="1118" type="line"/>
      <point x="906" y="1143"/>
      <point x="791" y="1168"/>
      <point x="678" y="1168" type="curve" smooth="yes"/>
      <point x="318" y="1168"/>
      <point x="95" y="896"/>
      <point x="95" y="547" type="curve" smooth="yes"/>
      <point x="95" y="155"/>
      <point x="316" y="-23"/>
    </contour>
    <contour>
      <point x="624" y="-170" type="move" name="btm"/>
    </contour>
    <contour>
      <point x="601" y="1700" type="move" name="top"/>
    </contour>
  </outline>
</glyph>
<glyph name="u" format="1">
  <advance width="1286"/>
  <unicode hex="0075"/>
  <outline>
    <contour>
      <point x="1031" y="-19" type="curve" smooth="yes"/>
      <point x="1102" y="-19"/>
      <point x="1155" y="-1"/>
      <point x="1201" y="12" type="curve"/>
      <point x="1202" y="90" type="line"/>
      <point x="1075" y="90" type="line"/>
      <point x="1075" y="1137" type="line"/>
      <point x="1029" y="1161" type="line"/>
      <point x="1027" y="1161" type="line"/>
      <point x="753" y="1135" type="line"/>
      <point x="753" y="1059" type="line"/>
      <point x="910" y="1023" type="line"/>
      <point x="910" y="233" type="line"/>
      <point x="846" y="179"/>
      <point x="730" y="103"/>
      <point x="596" y="103" type="curve" smooth="yes"/>
      <point x="406" y="103"/>
      <point x="366" y="203"/>
      <point x="366" y="446" type="curve" smooth="yes"/>
      <point x="366" y="1137" type="line"/>
      <point x="329" y="1161" type="line"/>
      <point x="328" y="1161" type="line"/>
      <point x="80" y="1135" type="line"/>
      <point x="80" y="1059" type="line"/>
      <point x="201" y="1024" type="line"/>
      <point x="201" y="422" type="line"/>
      <point x="201" y="111"/>
      <point x="293" y="-23"/>
      <point x="545" y="-23" type="curve" smooth="yes"/>
      <point x="697" y="-23"/>
      <point x="846" y="73"/>
      <point x="927" y="148" type="curve"/>
      <point x="927" y="68" type="line"/>
      <point x="927" y="-3"/>
      <point x="965" y="-19"/>
    </contour>
    <contour>
      <point x="664" y="-170" type="move" name="btm"/>
    </contour>
    <contour>
      <point x="623" y="1700" type="move" name="top"/>
    </contour>
  </outline>
</glyph>
<glyph name="v" format="1">
  <advance width="1160"/>
  <unicode hex="0076"/>
  <outline>
    <contour>
      <point x="514" y="-17" type="line"/>
      <point x="652" y="-17" type="line"/>
      <point x="1073" y="1076" type="line"/>
      <point x="1007" y="1015" type="line"/>
      <point x="1159" y="1052" type="line"/>
      <point x="1159" y="1136" type="line"/>
      <point x="767" y="1136" type="line"/>
      <point x="767" y="1052" type="line"/>
      <point x="931" y="1024" type="line"/>
      <point x="928" y="1075" type="line"/>
      <point x="693" y="407" type="line"/>
      <point x="589" y="68" type="line"/>
      <point x="628" y="68" type="line"/>
      <point x="505" y="418" type="line"/>
      <point x="269" y="1076" type="line"/>
      <point x="244" y="1021" type="line"/>
      <point x="439" y="1052" type="line"/>
      <point x="439" y="1136" type="line"/>
      <point x="4" y="1136" type="line"/>
      <point x="4" y="1052" type="line"/>
      <point x="140" y="1017" type="line"/>
      <point x="83" y="1071" type="line"/>
    </contour>
    <contour>
      <point x="582" y="-170" type="move" name="btm"/>
    </contour>
    <contour>
      <point x="582" y="1700" type="move" name="top"/>
    </contour>
  </outline>
</glyph>
<glyph name="w" format="1">
  <advance width="1717"/>
  <unicode hex="0077"/>
  <outline>
    <contour>
      <point x="431" y="-17" type="line"/>
      <point x="591" y="-17" type="line"/>
      <point x="806" y="746" type="line"/>
      <point x="878" y="1114" type="line"/>
      <point x="832" y="1114" type="line"/>
      <point x="914" y="746" type="line"/>
      <point x="1136" y="-17" type="line"/>
      <point x="1303" y="-17" type="line"/>
      <point x="1634" y="1069" type="line"/>
      <point x="1586" y="1020" type="line"/>
      <point x="1734" y="1052" type="line"/>
      <point x="1734" y="1136" type="line"/>
      <point x="1333" y="1136" type="line"/>
      <point x="1333" y="1052" type="line"/>
      <point x="1529" y="1020" type="line"/>
      <point x="1502" y="1064" type="line"/>
      <point x="1311" y="391" type="line"/>
      <point x="1224" y="47" type="line"/>
      <point x="1252" y="47" type="line"/>
      <point x="1172" y="394" type="line"/>
      <point x="967" y="1136" type="line"/>
      <point x="797" y="1136" type="line"/>
      <point x="592" y="393" type="line"/>
      <point x="511" y="44" type="line"/>
      <point x="541" y="44" type="line"/>
      <point x="457" y="391" type="line"/>
      <point x="263" y="1069" type="line"/>
      <point x="242" y="1023" type="line"/>
      <point x="438" y="1052" type="line"/>
      <point x="438" y="1136" type="line"/>
      <point x="-6" y="1136" type="line"/>
      <point x="-6" y="1052" type="line"/>
      <point x="134" y="1021" type="line"/>
      <point x="92" y="1060" type="line"/>
    </contour>
    <contour>
      <point x="852" y="-170" type="move" name="btm"/>
    </contour>
    <contour>
      <point x="869" y="1700" type="move" name="top"/>
    </contour>
  </outline>
</glyph>
<glyph name="y" format="1">
  <advance width="1172"/>
  <unicode hex="0079"/>
  <outline>
    <contour>
      <point x="245" y="-510" type="curve" smooth="yes"/>
      <point x="483" y="-510"/>
      <point x="568" y="-349"/>
      <point x="695" y="-32" type="curve" smooth="yes"/>
      <point x="730" y="49"/>
      <point x="809" y="289"/>
      <point x="1066" y="1077" type="curve"/>
      <point x="1027" y="1023" type="line"/>
      <point x="1157" y="1052" type="line"/>
      <point x="1157" y="1136" type="line"/>
      <point x="763" y="1136" type="line"/>
      <point x="763" y="1052" type="line"/>
      <point x="940" y="1023" type="line"/>
      <point x="922" y="1077" type="line"/>
      <point x="715" y="403" type="line"/>
      <point x="602" y="30" type="line"/>
      <point x="626" y="30" type="line"/>
      <point x="506" y="401" type="line"/>
      <point x="283" y="1054" type="line"/>
      <point x="261" y="1024" type="line"/>
      <point x="456" y="1052" type="line"/>
      <point x="456" y="1136" type="line"/>
      <point x="4" y="1136" type="line"/>
      <point x="4" y="1052" type="line"/>
      <point x="139" y="1018" type="line"/>
      <point x="90" y="1057" type="line"/>
      <point x="492" y="0" type="line"/>
      <point x="605" y="0" type="line"/>
      <point x="591" y="23" type="line"/>
      <point x="474" y="-314"/>
      <point x="362" y="-357"/>
      <point x="249" y="-357" type="curve" smooth="yes"/>
      <point x="213" y="-357"/>
      <point x="161" y="-352"/>
      <point x="145" y="-344" type="curve"/>
      <point x="145" y="-496" type="line"/>
      <point x="161" y="-503"/>
      <point x="209" y="-510"/>
    </contour>
    <contour>
      <point x="618" y="-170" type="move" name="btm"/>
    </contour>
    <contour>
      <point x="623" y="1700" type="move" name="top"/>
    </contour>
  </outline>
</glyph>
<glyph name="z" format="1">
  <advance width="1128"/>
  <unicode hex="007A"/>
  <outline>
    <contour>
      <point x="64" y="77" type="line"/>
      <point x="101" y="0" type="line"/>
      <point x="1008" y="0" type="line"/>
      <point x="1038" y="333" type="line"/>
      <point x="934" y="347" type="line"/>
      <point x="869" y="123" type="line"/>
      <point x="257" y="104" type="line"/>
      <point x="387" y="221" type="line"/>
      <point x="1029" y="1060" type="line"/>
      <point x="994" y="1136" type="line"/>
      <point x="142" y="1136" type="line"/>
      <point x="142" y="823" type="line"/>
      <point x="253" y="823" type="line"/>
      <point x="283" y="1015" type="line"/>
      <point x="840" y="1031" type="line"/>
      <point x="712" y="911" type="line"/>
    </contour>
    <contour>
      <point x="550" y="-170" type="move" name="btm"/>
    </contour>
    <contour>
      <point x="567" y="1700" type="move" name="top"/>
    </contour>
  </outline>
</glyph>
<glyph name="braceleft" format="1">
  <advance width="1027"/>
  <unicode hex="007B"/>
  <outline>
    <contour>
      <point x="305" y="-24" type="curve" smooth="yes"/>
      <point x="305" y="-189"/>
      <point x="373" y="-278"/>
      <point x="613" y="-278" type="curve" smooth="yes"/>
      <point x="704" y="-278"/>
      <point x="784" y="-265"/>
      <point x="860" y="-244" type="curve"/>
      <point x="860" y="-162" type="line"/>
      <point x="845" y="-166"/>
      <point x="698" y="-169"/>
      <point x="679" y="-169" type="curve" smooth="yes"/>
      <point x="551" y="-169"/>
      <point x="470" y="-137"/>
      <point x="470" y="6" type="curve" smooth="yes"/>
      <point x="470" y="140"/>
      <point x="576" y="322"/>
      <point x="576" y="470" type="curve" smooth="yes"/>
      <point x="576" y="600"/>
      <point x="478" y="670"/>
      <point x="345" y="689" type="curve"/>
      <point x="478" y="708"/>
      <point x="576" y="769"/>
      <point x="576" y="899" type="curve" smooth="yes"/>
      <point x="576" y="1047"/>
      <point x="470" y="1230"/>
      <point x="470" y="1363" type="curve" smooth="yes"/>
      <point x="470" y="1503"/>
      <point x="553" y="1539"/>
      <point x="679" y="1539" type="curve" smooth="yes"/>
      <point x="694" y="1539"/>
      <point x="845" y="1536"/>
      <point x="860" y="1532" type="curve"/>
      <point x="860" y="1613" type="line"/>
      <point x="784" y="1634"/>
      <point x="704" y="1647"/>
      <point x="613" y="1647" type="curve" smooth="yes"/>
      <point x="373" y="1647"/>
      <point x="305" y="1558"/>
      <point x="305" y="1393" type="curve" smooth="yes"/>
      <point x="305" y="1202"/>
      <point x="436" y="1064"/>
      <point x="436" y="909" type="curve" smooth="yes"/>
      <point x="436" y="811"/>
      <point x="406" y="764"/>
      <point x="166" y="765" type="curve"/>
      <point x="166" y="623" type="line"/>
      <point x="406" y="624"/>
      <point x="436" y="559"/>
      <point x="436" y="460" type="curve" smooth="yes"/>
      <point x="436" y="305"/>
      <point x="305" y="167"/>
    </contour>
  </outline>
</glyph>
<glyph name="asciitilde" format="1">
  <advance width="1411"/>
  <unicode hex="007E"/>
  <outline>
    <contour>
      <point x="295" y="513" type="line"/>
      <point x="338" y="569"/>
      <point x="410" y="632"/>
      <point x="509" y="632" type="curve" smooth="yes"/>
      <point x="645" y="632"/>
      <point x="705" y="464"/>
      <point x="880" y="464" type="curve" smooth="yes"/>
      <point x="1020" y="464"/>
      <point x="1134" y="552"/>
      <point x="1185" y="642" type="curve"/>
      <point x="1116" y="717" type="line"/>
      <point x="1073" y="660"/>
      <point x="1002" y="598"/>
      <point x="903" y="598" type="curve" smooth="yes"/>
      <point x="772" y="598"/>
      <point x="708" y="766"/>
      <point x="532" y="766" type="curve" smooth="yes"/>
      <point x="389" y="766"/>
      <point x="274" y="674"/>
      <point x="225" y="589" type="curve"/>
    </contour>
  </outline>
</glyph>
<glyph name="cent" format="1">
  <advance width="1191"/>
  <unicode hex="00A2"/>
  <outline>
    <contour>
      <point x="546" y="32" type="line"/>
      <point x="531" y="-243" type="line"/>
      <point x="646" y="-243" type="line"/>
      <point x="661" y="32" type="line"/>
    </contour>
    <contour>
      <point x="627" y="1102" type="line"/>
      <point x="742" y="1102" type="line"/>
      <point x="757" y="1375" type="line"/>
      <point x="642" y="1375" type="line"/>
    </contour>
    <contour>
      <point x="119" y="554" type="curve" smooth="yes"/>
      <point x="121" y="232"/>
      <point x="295" y="-23"/>
      <point x="628" y="-23" type="curve" smooth="yes"/>
      <point x="769" y="-23"/>
      <point x="923" y="47"/>
      <point x="998" y="123" type="curve"/>
      <point x="965" y="191" type="line"/>
      <point x="905" y="147"/>
      <point x="789" y="97"/>
      <point x="664" y="97" type="curve" smooth="yes"/>
      <point x="456" y="97"/>
      <point x="294" y="262"/>
      <point x="296" y="618" type="curve" smooth="yes"/>
      <point x="297" y="900"/>
      <point x="436" y="1071"/>
      <point x="646" y="1071" type="curve" smooth="yes"/>
      <point x="730" y="1071"/>
      <point x="811" y="1058"/>
      <point x="822" y="1009" type="curve" smooth="yes"/>
      <point x="865" y="814" type="line"/>
      <point x="967" y="814" type="line"/>
      <point x="976" y="1106" type="line"/>
      <point x="923" y="1129"/>
      <point x="808" y="1168"/>
      <point x="688" y="1168" type="curve" smooth="yes"/>
      <point x="304" y="1168"/>
      <point x="117" y="878"/>
    </contour>
  </outline>
</glyph>
<glyph name="currency" format="1">
  <advance width="1547"/>
  <unicode hex="00A4"/>
  <outline>
    <contour>
      <point x="341" y="763" type="curve" smooth="yes"/>
      <point x="341" y="516"/>
      <point x="525" y="330"/>
      <point x="770" y="330" type="curve" smooth="yes"/>
      <point x="1016" y="330"/>
      <point x="1210" y="536"/>
      <point x="1210" y="783" type="curve" smooth="yes"/>
      <point x="1210" y="1030"/>
      <point x="1016" y="1216"/>
      <point x="770" y="1216" type="curve" smooth="yes"/>
      <point x="525" y="1216"/>
      <point x="341" y="1010"/>
    </contour>
    <contour>
      <point x="771" y="455" type="curve" smooth="yes"/>
      <point x="605" y="455"/>
      <point x="474" y="592"/>
      <point x="474" y="766" type="curve" smooth="yes"/>
      <point x="474" y="935"/>
      <point x="574" y="1091"/>
      <point x="765" y="1091" type="curve" smooth="yes"/>
      <point x="932" y="1091"/>
      <point x="1069" y="943"/>
      <point x="1069" y="770" type="curve" smooth="yes"/>
      <point x="1069" y="597"/>
      <point x="973" y="455"/>
    </contour>
    <contour>
      <point x="215" y="294" type="line"/>
      <point x="318" y="190" type="line"/>
      <point x="544" y="415" type="line"/>
      <point x="439" y="519" type="line"/>
    </contour>
    <contour>
      <point x="440" y="1024" type="line"/>
      <point x="543" y="1127" type="line"/>
      <point x="317" y="1354" type="line"/>
      <point x="215" y="1250" type="line"/>
    </contour>
    <contour>
      <point x="1000" y="419" type="line"/>
      <point x="1225" y="194" type="line"/>
      <point x="1328" y="298" type="line"/>
      <point x="1103" y="524" type="line"/>
    </contour>
    <contour>
      <point x="1103" y="1024" type="line"/>
      <point x="1332" y="1252" type="line"/>
      <point x="1228" y="1356" type="line"/>
      <point x="1000" y="1129" type="line"/>
    </contour>
  </outline>
</glyph>
<glyph name="yen" format="1">
  <advance width="1567"/>
  <unicode hex="00A5"/>
  <outline>
    <contour>
      <point x="482" y="0" type="line"/>
      <point x="1102" y="0" type="line"/>
      <point x="1102" y="78" type="line"/>
      <point x="827" y="104" type="line"/>
      <point x="863" y="68" type="line"/>
      <point x="863" y="818" type="line"/>
      <point x="827" y="715" type="line"/>
      <point x="1325" y="1476" type="line"/>
      <point x="1252" y="1415" type="line"/>
      <point x="1431" y="1445" type="line"/>
      <point x="1431" y="1522" type="line"/>
      <point x="985" y="1522" type="line"/>
      <point x="985" y="1445" type="line"/>
      <point x="1209" y="1416" type="line"/>
      <point x="1172" y="1486" type="line"/>
      <point x="891" y="986" type="line"/>
      <point x="781" y="821" type="line"/>
      <point x="825" y="821" type="line"/>
      <point x="747" y="982" type="line"/>
      <point x="431" y="1482" type="line"/>
      <point x="416" y="1419" type="line"/>
      <point x="618" y="1445" type="line"/>
      <point x="618" y="1522" type="line"/>
      <point x="130" y="1522" type="line"/>
      <point x="130" y="1445" type="line"/>
      <point x="287" y="1417" type="line"/>
      <point x="215" y="1488" type="line"/>
      <point x="740" y="724" type="line"/>
      <point x="718" y="817" type="line"/>
      <point x="718" y="67" type="line"/>
      <point x="741" y="104" type="line"/>
      <point x="482" y="78" type="line"/>
    </contour>
    <contour>
      <point x="251" y="369" type="line"/>
      <point x="1330" y="369" type="line"/>
      <point x="1330" y="467" type="line"/>
      <point x="251" y="467" type="line"/>
    </contour>
    <contour>
      <point x="251" y="752" type="line"/>
      <point x="1330" y="752" type="line"/>
      <point x="1330" y="849" type="line"/>
      <point x="251" y="849" type="line"/>
    </contour>
  </outline>
</glyph>
<glyph name="section" format="1">
  <advance width="1364"/>
  <unicode hex="00A7"/>
  <outline>
    <contour>
      <point x="190" y="-109" type="line"/>
      <point x="254" y="-115"/>
      <point x="419" y="-203"/>
      <point x="652" y="-203" type="curve" smooth="yes"/>
      <point x="1011" y="-203"/>
      <point x="1164" y="-27"/>
      <point x="1164" y="144" type="curve" smooth="yes"/>
      <point x="1164" y="359"/>
      <point x="870" y="473"/>
      <point x="699" y="541" type="curve" smooth="yes"/>
      <point x="490" y="627"/>
      <point x="339" y="706"/>
      <point x="339" y="889" type="curve" smooth="yes"/>
      <point x="339" y="965"/>
      <point x="376" y="1016"/>
      <point x="437" y="1063" type="curve"/>
      <point x="367" y="1136" type="line"/>
      <point x="256" y="1066"/>
      <point x="190" y="983"/>
      <point x="190" y="852" type="curve" smooth="yes"/>
      <point x="190" y="596"/>
      <point x="416" y="478"/>
      <point x="607" y="405" type="curve" smooth="yes"/>
      <point x="814" y="327"/>
      <point x="1003" y="261"/>
      <point x="1003" y="101" type="curve" smooth="yes"/>
      <point x="1003" y="-13"/>
      <point x="899" y="-100"/>
      <point x="662" y="-100" type="curve" smooth="yes"/>
      <point x="527" y="-100"/>
      <point x="400" y="-58"/>
      <point x="350" y="-12" type="curve"/>
      <point x="320" y="246" type="line"/>
      <point x="214" y="246" type="line"/>
    </contour>
    <contour>
      <point x="912" y="406" type="curve"/>
      <point x="963" y="314" type="line"/>
      <point x="1094" y="398"/>
      <point x="1182" y="505"/>
      <point x="1182" y="644" type="curve" smooth="yes"/>
      <point x="1182" y="888"/>
      <point x="916" y="1005"/>
      <point x="747" y="1075" type="curve" smooth="yes"/>
      <point x="552" y="1156"/>
      <point x="383" y="1208"/>
      <point x="383" y="1388" type="curve" smooth="yes"/>
      <point x="383" y="1514"/>
      <point x="497" y="1580"/>
      <point x="703" y="1580" type="curve" smooth="yes"/>
      <point x="828" y="1580"/>
      <point x="917" y="1547"/>
      <point x="936" y="1527" type="curve"/>
      <point x="984" y="1284" type="line"/>
      <point x="1083" y="1284" type="line"/>
      <point x="1096" y="1610" type="line"/>
      <point x="1035" y="1620"/>
      <point x="896" y="1683"/>
      <point x="709" y="1683" type="curve" smooth="yes"/>
      <point x="412" y="1683"/>
      <point x="226" y="1551"/>
      <point x="226" y="1354" type="curve" smooth="yes"/>
      <point x="226" y="1116"/>
      <point x="484" y="1003"/>
      <point x="655" y="938" type="curve" smooth="yes"/>
      <point x="866" y="858"/>
      <point x="1018" y="775"/>
      <point x="1018" y="608" type="curve" smooth="yes"/>
      <point x="1018" y="522"/>
      <point x="978" y="458"/>
    </contour>
  </outline>
</glyph>
<glyph name="ordfeminine" format="1">
  <advance width="1030"/>
  <unicode hex="00AA"/>
  <outline>
    <contour>
      <point x="726" y="740" type="line"/>
      <point x="726" y="675"/>
      <point x="761" y="671"/>
      <point x="821" y="671" type="curve" smooth="yes"/>
      <point x="879" y="671"/>
      <point x="944" y="686"/>
      <point x="986" y="697" type="curve"/>
      <point x="986" y="767" type="line"/>
      <point x="871" y="767" type="line"/>
      <point x="871" y="1274" type="line"/>
      <point x="871" y="1521"/>
      <point x="763" y="1605"/>
      <point x="531" y="1605" type="curve" smooth="yes"/>
      <point x="403" y="1605"/>
      <point x="225" y="1543"/>
      <point x="148" y="1494" type="curve"/>
      <point x="197" y="1406" type="line"/>
      <point x="267" y="1441"/>
      <point x="383" y="1487"/>
      <point x="497" y="1487" type="curve" smooth="yes"/>
      <point x="664" y="1487"/>
      <point x="717" y="1440"/>
      <point x="717" y="1254" type="curve" smooth="yes"/>
      <point x="717" y="844" type="line"/>
      <point x="726" y="844" type="line"/>
    </contour>
    <contour>
      <point x="409" y="669" type="curve" smooth="yes"/>
      <point x="556" y="669"/>
      <point x="663" y="749"/>
      <point x="726" y="808" type="curve"/>
      <point x="752" y="855" type="line"/>
      <point x="716" y="884" type="line"/>
      <point x="687" y="849"/>
      <point x="570" y="778"/>
      <point x="475" y="778" type="curve" smooth="yes"/>
      <point x="361" y="778"/>
      <point x="297" y="843"/>
      <point x="297" y="933" type="curve" smooth="yes"/>
      <point x="297" y="1070"/>
      <point x="409" y="1130"/>
      <point x="717" y="1139" type="curve"/>
      <point x="754" y="1188" type="line"/>
      <point x="717" y="1225" type="line"/>
      <point x="334" y="1215"/>
      <point x="130" y="1122"/>
      <point x="130" y="921" type="curve" smooth="yes"/>
      <point x="130" y="772"/>
      <point x="247" y="669"/>
    </contour>
  </outline>
</glyph>
<glyph name="uni00AD" format="1">
  <advance width="1345"/>
  <unicode hex="00AD"/>
  <outline>
    <contour>
      <point x="230" y="554" type="line"/>
      <point x="1115" y="554" type="line"/>
      <point x="1115" y="678" type="line"/>
      <point x="230" y="678" type="line"/>
    </contour>
  </outline>
</glyph>
<glyph name="registered" format="1">
  <advance width="2129"/>
  <unicode hex="00AE"/>
  <outline>
    <contour>
      <point x="671" y="519" type="line"/>
      <point x="1014" y="519" type="line"/>
      <point x="1014" y="594" type="line"/>
      <point x="903" y="613" type="line"/>
      <point x="903" y="917" type="line"/>
      <point x="924" y="917"/>
      <point x="1061" y="915"/>
      <point x="1081" y="915" type="curve"/>
      <point x="1283" y="836"/>
      <point x="1191" y="519"/>
      <point x="1388" y="519" type="curve" smooth="yes"/>
      <point x="1521" y="519" type="line"/>
      <point x="1521" y="607" type="line"/>
      <point x="1340" y="620"/>
      <point x="1405" y="851"/>
      <point x="1221" y="942" type="curve"/>
      <point x="1353" y="972"/>
      <point x="1446" y="1080"/>
      <point x="1446" y="1240" type="curve" smooth="yes"/>
      <point x="1446" y="1393"/>
      <point x="1319" y="1486"/>
      <point x="1082" y="1486" type="curve" smooth="yes"/>
      <point x="977" y="1485"/>
      <point x="930" y="1480"/>
      <point x="824" y="1481" type="curve"/>
      <point x="671" y="1481" type="line"/>
      <point x="671" y="1397" type="line"/>
      <point x="768" y="1377" type="line"/>
      <point x="768" y="617" type="line"/>
      <point x="671" y="594" type="line"/>
    </contour>
    <contour>
      <point x="903" y="1025" type="curve"/>
      <point x="903" y="1382" type="line"/>
      <point x="965" y="1392"/>
      <point x="1010" y="1392"/>
      <point x="1054" y="1392" type="curve" smooth="yes"/>
      <point x="1207" y="1392"/>
      <point x="1289" y="1345"/>
      <point x="1289" y="1213" type="curve" smooth="yes"/>
      <point x="1289" y="1103"/>
      <point x="1199" y="1018"/>
      <point x="1088" y="1018" type="curve" smooth="yes"/>
      <point x="1042" y="1018"/>
      <point x="935" y="1018"/>
    </contour>
    <contour>
      <point x="306" y="1003" type="curve" smooth="yes"/>
      <point x="306" y="1427"/>
      <point x="634" y="1783"/>
      <point x="1064" y="1783" type="curve" smooth="yes"/>
      <point x="1494" y="1783"/>
      <point x="1822" y="1427"/>
      <point x="1822" y="1003" type="curve" smooth="yes"/>
      <point x="1822" y="578"/>
      <point x="1494" y="222"/>
      <point x="1064" y="222" type="curve" smooth="yes"/>
      <point x="634" y="222"/>
      <point x="306" y="578"/>
    </contour>
    <contour>
      <point x="194" y="1003" type="curve" smooth="yes"/>
      <point x="194" y="516"/>
      <point x="578" y="122"/>
      <point x="1064" y="122" type="curve" smooth="yes"/>
      <point x="1550" y="122"/>
      <point x="1935" y="516"/>
      <point x="1935" y="1003" type="curve" smooth="yes"/>
      <point x="1935" y="1489"/>
      <point x="1550" y="1880"/>
      <point x="1064" y="1880" type="curve" smooth="yes"/>
      <point x="578" y="1880"/>
      <point x="194" y="1489"/>
    </contour>
  </outline>
</glyph>
<glyph name="macron" format="1">
  <advance width="681"/>
  <unicode hex="00AF"/>
  <outline>
    <contour>
      <point x="72" y="1431" type="line"/>
      <point x="607" y="1431" type="line"/>
      <point x="607" y="1557" type="line"/>
      <point x="72" y="1557" type="line"/>
    </contour>
    <contour>
      <point x="340" y="1700" type="move" name="_top"/>
    </contour>
  </outline>
</glyph>
<glyph name="degree" format="1">
  <advance width="916"/>
  <unicode hex="00B0"/>
  <outline>
    <contour>
      <point x="457" y="951" type="curve" smooth="yes"/>
      <point x="648" y="951"/>
      <point x="802" y="1096"/>
      <point x="802" y="1293" type="curve" smooth="yes"/>
      <point x="802" y="1479"/>
      <point x="658" y="1634"/>
      <point x="457" y="1634" type="curve" smooth="yes"/>
      <point x="270" y="1634"/>
      <point x="115" y="1489"/>
      <point x="115" y="1293" type="curve" smooth="yes"/>
      <point x="115" y="1106"/>
      <point x="270" y="951"/>
    </contour>
    <contour>
      <point x="459" y="1065" type="curve" smooth="yes"/>
      <point x="336" y="1065"/>
      <point x="233" y="1168"/>
      <point x="233" y="1293" type="curve" smooth="yes"/>
      <point x="233" y="1424"/>
      <point x="327" y="1521"/>
      <point x="456" y="1521" type="curve" smooth="yes"/>
      <point x="584" y="1521"/>
      <point x="682" y="1418"/>
      <point x="682" y="1293" type="curve" smooth="yes"/>
      <point x="682" y="1158"/>
      <point x="590" y="1065"/>
    </contour>
  </outline>
</glyph>
<glyph name="acute" format="1">
  <advance width="681"/>
  <unicode hex="00B4"/>
  <outline>
    <contour>
      <point x="289" y="1349" type="line"/>
      <point x="291" y="1349" type="line"/>
      <point x="375" y="1391"/>
      <point x="627" y="1608"/>
      <point x="679" y="1688" type="curve"/>
      <point x="552" y="1799" type="line"/>
      <point x="551" y="1799" type="line"/>
      <point x="231" y="1405" type="line"/>
    </contour>
    <contour>
      <point x="340" y="1700" type="move" name="_top"/>
    </contour>
  </outline>
</glyph>
<glyph name="paragraph" format="1">
  <advance width="1427"/>
  <unicode hex="00B6"/>
  <outline>
    <contour>
      <point x="330" y="0" type="line"/>
      <point x="687" y="0" type="line"/>
      <point x="687" y="1587" type="line"/>
      <point x="697" y="1588"/>
      <point x="710" y="1589"/>
      <point x="723" y="1589" type="curve" smooth="yes"/>
      <point x="816" y="1589"/>
      <point x="914" y="1579"/>
      <point x="963" y="1574" type="curve"/>
      <point x="963" y="0" type="line"/>
      <point x="1272" y="0" type="line"/>
      <point x="1272" y="86" type="line"/>
      <point x="1118" y="105" type="line"/>
      <point x="1118" y="1582" type="line"/>
      <point x="1296" y="1602" type="line"/>
      <point x="1296" y="1691" type="line"/>
      <point x="1106" y="1691" type="line"/>
      <point x="900" y="1691"/>
      <point x="823" y="1711"/>
      <point x="640" y="1711" type="curve" smooth="yes"/>
      <point x="279" y="1711"/>
      <point x="92" y="1523"/>
      <point x="92" y="1272" type="curve" smooth="yes"/>
      <point x="92" y="986"/>
      <point x="236" y="821"/>
      <point x="530" y="821" type="curve"/>
      <point x="530" y="105" type="line"/>
      <point x="330" y="86" type="line"/>
    </contour>
  </outline>
</glyph>
<glyph name="ordmasculine" format="1">
  <advance width="1039"/>
  <unicode hex="00BA"/>
  <outline>
    <contour>
      <point x="520" y="677" type="curve" smooth="yes"/>
      <point x="701" y="678"/>
      <point x="929" y="806"/>
      <point x="932" y="1137" type="curve" smooth="yes"/>
      <point x="935" y="1437"/>
      <point x="781" y="1601"/>
      <point x="531" y="1601" type="curve" smooth="yes"/>
      <point x="340" y="1601"/>
      <point x="110" y="1465"/>
      <point x="107" y="1147" type="curve" smooth="yes"/>
      <point x="103" y="825"/>
      <point x="292" y="676"/>
    </contour>
    <contour>
      <point x="517" y="766" type="curve" smooth="yes"/>
      <point x="388" y="766"/>
      <point x="274" y="906"/>
      <point x="274" y="1155" type="curve" smooth="yes"/>
      <point x="274" y="1407"/>
      <point x="382" y="1510"/>
      <point x="522" y="1511" type="curve" smooth="yes"/>
      <point x="671" y="1513"/>
      <point x="765" y="1370"/>
      <point x="765" y="1127" type="curve" smooth="yes"/>
      <point x="765" y="835"/>
      <point x="663" y="767"/>
    </contour>
  </outline>
</glyph>
<glyph name="onequarter" format="1">
  <advance width="2381"/>
  <unicode hex="00BC"/>
  <outline>
    <contour>
      <point x="1472" y="201" type="line"/>
      <point x="2309" y="201" type="line"/>
      <point x="2309" y="319" type="line"/>
      <point x="1566" y="284" type="line"/>
      <point x="1634" y="376" type="line"/>
      <point x="2048" y="1052" type="line"/>
      <point x="2019" y="1086" type="line"/>
      <point x="1883" y="1086" type="line"/>
      <point x="1878" y="1073"/>
      <point x="1423" y="278"/>
      <point x="1419" y="270" type="curve"/>
    </contour>
    <contour>
      <point x="1979" y="0" type="line"/>
      <point x="2122" y="0" type="line"/>
      <point x="2122" y="596" type="line"/>
      <point x="1994" y="586" type="line"/>
      <point x="1979" y="287" type="line"/>
    </contour>
    <component base="one.numr"/>
    <component base="fraction" xOffset="984"/>
  </outline>
</glyph>
<glyph name="threequarters" format="1">
  <advance width="2393"/>
  <unicode hex="00BE"/>
  <outline>
    <contour>
      <point x="1484" y="201" type="line"/>
      <point x="2321" y="201" type="line"/>
      <point x="2321" y="319" type="line"/>
      <point x="1578" y="284" type="line"/>
      <point x="1646" y="376" type="line"/>
      <point x="2060" y="1052" type="line"/>
      <point x="2031" y="1086" type="line"/>
      <point x="1895" y="1086" type="line"/>
      <point x="1890" y="1073"/>
      <point x="1435" y="278"/>
      <point x="1431" y="270" type="curve"/>
    </contour>
    <contour>
      <point x="1991" y="0" type="line"/>
      <point x="2134" y="0" type="line"/>
      <point x="2134" y="596" type="line"/>
      <point x="2006" y="586" type="line"/>
      <point x="1991" y="287" type="line"/>
    </contour>
    <component base="three.numr"/>
    <component base="fraction" xOffset="996"/>
  </outline>
</glyph>
<glyph name="AE" format="1">
  <advance width="1866"/>
  <unicode hex="00C6"/>
  <outline>
    <contour>
      <point x="-185" y="0" type="line"/>
      <point x="284" y="0" type="line"/>
      <point x="284" y="87" type="line"/>
      <point x="91" y="111" type="line"/>
      <point x="106" y="63" type="line"/>
      <point x="566" y="1161" type="line"/>
      <point x="679" y="1424" type="line"/>
      <point x="833" y="1424" type="line"/>
      <point x="888" y="1522" type="line"/>
      <point x="602" y="1522" type="line"/>
      <point x="-53" y="67" type="line"/>
      <point x="7" y="112" type="line"/>
      <point x="-185" y="87" type="line"/>
    </contour>
    <contour>
      <point x="225" y="450" type="line"/>
      <point x="852" y="450" type="line"/>
      <point x="849" y="557" type="line"/>
      <point x="275" y="557" type="line"/>
    </contour>
    <contour>
      <point x="276" y="1437" type="line"/>
      <point x="558" y="1415" type="line"/>
      <point x="596" y="1469" type="line"/>
      <point x="602" y="1522" type="line"/>
      <point x="276" y="1522" type="line"/>
    </contour>
    <contour>
      <point x="640" y="0" type="line"/>
      <point x="1755" y="0" type="line"/>
      <point x="1832" y="351" type="line"/>
      <point x="1735" y="377" type="line"/>
      <point x="1616" y="121" type="line"/>
      <point x="989" y="101" type="line"/>
      <point x="989" y="736" type="line"/>
      <point x="1360" y="731" type="line"/>
      <point x="1385" y="555" type="line"/>
      <point x="1488" y="555" type="line"/>
      <point x="1488" y="1007" type="line"/>
      <point x="1385" y="1007" type="line"/>
      <point x="1360" y="838" type="line"/>
      <point x="989" y="832" type="line"/>
      <point x="989" y="1430" type="line"/>
      <point x="1532" y="1421" type="line"/>
      <point x="1594" y="1214" type="line"/>
      <point x="1691" y="1214" type="line"/>
      <point x="1656" y="1522" type="line"/>
      <point x="884" y="1522" type="line"/>
      <point x="822" y="1457" type="line"/>
      <point x="822" y="60" type="line"/>
      <point x="871" y="111" type="line"/>
      <point x="640" y="87" type="line"/>
    </contour>
    <contour>
      <point x="889" y="-170" type="move" name="btm"/>
    </contour>
    <contour>
      <point x="960" y="1700" type="move" name="top"/>
    </contour>
  </outline>
</glyph>
<glyph name="Oslash" format="1">
  <advance width="1474"/>
  <unicode hex="00D8"/>
  <outline>
    <contour>
      <point x="404" y="-203" type="line"/>
      <point x="509" y="45" type="line"/>
      <point x="527" y="86" type="line"/>
      <point x="1021" y="1397" type="line"/>
      <point x="1053" y="1466" type="line"/>
      <point x="1139" y="1678" type="line"/>
      <point x="1060" y="1707" type="line"/>
      <point x="977" y="1493" type="line"/>
      <point x="958" y="1459" type="line"/>
      <point x="446" y="95" type="line"/>
      <point x="422" y="49" type="line"/>
      <point x="325" y="-177" type="line"/>
    </contour>
    <contour>
      <point x="723" y="-23" type="curve" smooth="yes"/>
      <point x="1101" y="-16"/>
      <point x="1399" y="292"/>
      <point x="1399" y="775" type="curve" smooth="yes"/>
      <point x="1399" y="1234"/>
      <point x="1173" y="1538"/>
      <point x="758" y="1538" type="curve" smooth="yes"/>
      <point x="378" y="1538"/>
      <point x="76" y="1232"/>
      <point x="76" y="749" type="curve" smooth="yes"/>
      <point x="76" y="289"/>
      <point x="308" y="-30"/>
    </contour>
    <contour>
      <point x="741" y="1442" type="curve" smooth="yes"/>
      <point x="1041" y="1442"/>
      <point x="1210" y="1167"/>
      <point x="1210" y="774" type="curve" smooth="yes"/>
      <point x="1210" y="310"/>
      <point x="1016" y="74"/>
      <point x="735" y="74" type="curve" smooth="yes"/>
      <point x="433" y="74"/>
      <point x="263" y="358"/>
      <point x="263" y="750" type="curve" smooth="yes"/>
      <point x="263" y="1214"/>
      <point x="457" y="1442"/>
    </contour>
  </outline>
</glyph>
<glyph name="germandbls" format="1">
  <advance width="1275"/>
  <unicode hex="00DF"/>
  <outline>
    <contour>
      <point x="54" y="0" type="line"/>
      <point x="367" y="0" type="line"/>
      <point x="367" y="980" type="line"/>
      <point x="367" y="1325"/>
      <point x="503" y="1497"/>
      <point x="710" y="1497" type="curve" smooth="yes"/>
      <point x="853" y="1497"/>
      <point x="923" y="1424"/>
      <point x="923" y="1282" type="curve" smooth="yes"/>
      <point x="923" y="1090"/>
      <point x="705" y="995"/>
      <point x="705" y="850" type="curve" smooth="yes"/>
      <point x="705" y="594"/>
      <point x="1051" y="537"/>
      <point x="1051" y="291" type="curve" smooth="yes"/>
      <point x="1051" y="182"/>
      <point x="980" y="99"/>
      <point x="806" y="99" type="curve" smooth="yes"/>
      <point x="730" y="99"/>
      <point x="657" y="114"/>
      <point x="607" y="135" type="curve"/>
      <point x="607" y="0" type="line"/>
      <point x="646" y="-10"/>
      <point x="722" y="-23"/>
      <point x="779" y="-23" type="curve" smooth="yes"/>
      <point x="1029" y="-23"/>
      <point x="1228" y="90"/>
      <point x="1228" y="330" type="curve" smooth="yes"/>
      <point x="1228" y="630"/>
      <point x="864" y="705"/>
      <point x="864" y="888" type="curve" smooth="yes"/>
      <point x="864" y="1038"/>
      <point x="1095" y="1096"/>
      <point x="1095" y="1331" type="curve" smooth="yes"/>
      <point x="1095" y="1524"/>
      <point x="936" y="1604"/>
      <point x="758" y="1604" type="curve" smooth="yes"/>
      <point x="466" y="1604"/>
      <point x="198" y="1379"/>
      <point x="198" y="949" type="curve" smooth="yes"/>
      <point x="198" y="105" type="line"/>
      <point x="54" y="88" type="line"/>
    </contour>
  </outline>
</glyph>
<glyph name="ae" format="1">
  <advance width="1779"/>
  <unicode hex="00E6"/>
  <outline>
    <contour>
      <point x="97" y="298" type="curve" smooth="yes"/>
      <point x="97" y="75"/>
      <point x="259" y="-23"/>
      <point x="440" y="-23" type="curve" smooth="yes"/>
      <point x="672" y="-23"/>
      <point x="817" y="136"/>
      <point x="872" y="223" type="curve"/>
      <point x="881" y="280" type="line"/>
      <point x="826" y="294" type="line"/>
      <point x="781" y="210"/>
      <point x="650" y="99"/>
      <point x="500" y="99" type="curve" smooth="yes"/>
      <point x="376" y="99"/>
      <point x="279" y="155"/>
      <point x="279" y="319" type="curve" smooth="yes"/>
      <point x="279" y="474"/>
      <point x="443" y="592"/>
      <point x="772" y="594" type="curve"/>
      <point x="812" y="639" type="line"/>
      <point x="772" y="682" type="line"/>
      <point x="446" y="676"/>
      <point x="97" y="583"/>
    </contour>
    <contour>
      <point x="156" y="916" type="line"/>
      <point x="236" y="959"/>
      <point x="380" y="1032"/>
      <point x="537" y="1032" type="curve" smooth="yes"/>
      <point x="731" y="1032"/>
      <point x="772" y="958"/>
      <point x="772" y="753" type="curve" smooth="yes"/>
      <point x="772" y="579" type="line"/>
      <point x="829" y="550" type="line"/>
      <point x="946" y="779" type="line"/>
      <point x="946" y="1049"/>
      <point x="851" y="1160"/>
      <point x="575" y="1160" type="curve" smooth="yes"/>
      <point x="391" y="1160"/>
      <point x="162" y="1048"/>
      <point x="113" y="1001" type="curve"/>
    </contour>
    <contour>
      <point x="1267" y="-23" type="curve" smooth="yes"/>
      <point x="1423" y="-23"/>
      <point x="1588" y="43"/>
      <point x="1666" y="123" type="curve"/>
      <point x="1633" y="198" type="line"/>
      <point x="1570" y="144"/>
      <point x="1435" y="94"/>
      <point x="1318" y="94" type="curve" smooth="yes"/>
      <point x="1122" y="94"/>
      <point x="959" y="240"/>
      <point x="950" y="557" type="curve"/>
      <point x="938" y="936"/>
      <point x="1071" y="1062"/>
      <point x="1255" y="1062" type="curve" smooth="yes"/>
      <point x="1437" y="1062"/>
      <point x="1509" y="936"/>
      <point x="1510" y="769" type="curve" smooth="yes"/>
      <point x="1510" y="739"/>
      <point x="1508" y="707"/>
      <point x="1506" y="678" type="curve"/>
      <point x="887" y="678" type="line"/>
      <point x="869" y="582" type="line"/>
      <point x="1678" y="582" type="line"/>
      <point x="1688" y="627"/>
      <point x="1689" y="684"/>
      <point x="1689" y="762" type="curve"/>
      <point x="1680" y="1027"/>
      <point x="1538" y="1168"/>
      <point x="1296" y="1168" type="curve" smooth="yes"/>
      <point x="996" y="1168"/>
      <point x="772" y="925"/>
      <point x="772" y="574" type="curve" smooth="yes"/>
      <point x="772" y="224"/>
      <point x="943" y="-23"/>
    </contour>
    <contour>
      <point x="940" y="1700" type="move" name="top"/>
    </contour>
  </outline>
</glyph>
<glyph name="eth" format="1">
  <advance width="1172"/>
  <unicode hex="00F0"/>
  <outline>
    <contour>
      <point x="86" y="530" type="curve" smooth="yes"/>
      <point x="86" y="213"/>
      <point x="239" y="-23"/>
      <point x="591" y="-23" type="curve" smooth="yes"/>
      <point x="953" y="-23"/>
      <point x="1087" y="323"/>
      <point x="1087" y="662" type="curve" smooth="yes"/>
      <point x="1087" y="1100"/>
      <point x="861" y="1421"/>
      <point x="524" y="1642" type="curve" smooth="yes"/>
      <point x="510" y="1652"/>
      <point x="486" y="1665"/>
      <point x="471" y="1674" type="curve" smooth="yes"/>
      <point x="379" y="1725"/>
      <point x="315" y="1757"/>
      <point x="199" y="1791" type="curve"/>
      <point x="164" y="1708" type="line"/>
      <point x="228" y="1691"/>
      <point x="332" y="1640"/>
      <point x="399" y="1593" type="curve"/>
      <point x="414" y="1582"/>
      <point x="431" y="1568"/>
      <point x="445" y="1559" type="curve"/>
      <point x="677" y="1420"/>
      <point x="829" y="1167"/>
      <point x="863" y="988" type="curve"/>
      <point x="894" y="1076" type="line"/>
      <point x="879" y="1096"/>
      <point x="767" y="1168"/>
      <point x="610" y="1168" type="curve" smooth="yes"/>
      <point x="338" y="1168"/>
      <point x="86" y="954"/>
    </contour>
    <contour>
      <point x="319" y="1369" type="line"/>
      <point x="478" y="1557" type="line"/>
      <point x="514" y="1597" type="line"/>
      <point x="554" y="1636"/>
      <point x="670" y="1773"/>
      <point x="670" y="1773" type="curve"/>
      <point x="594" y="1838" type="line"/>
      <point x="594" y="1838"/>
      <point x="456" y="1670"/>
      <point x="420" y="1636" type="curve"/>
      <point x="406" y="1619" type="line"/>
      <point x="237" y="1427" type="line"/>
    </contour>
    <contour>
      <point x="595" y="76" type="curve" smooth="yes"/>
      <point x="353" y="76"/>
      <point x="268" y="296"/>
      <point x="268" y="543" type="curve" smooth="yes"/>
      <point x="268" y="877"/>
      <point x="405" y="1078"/>
      <point x="606" y="1078" type="curve" smooth="yes"/>
      <point x="745" y="1078"/>
      <point x="831" y="1012"/>
      <point x="861" y="968" type="curve"/>
      <point x="876" y="918"/>
      <point x="906" y="808"/>
      <point x="906" y="649" type="curve" smooth="yes"/>
      <point x="906" y="293"/>
      <point x="814" y="76"/>
    </contour>
  </outline>
</glyph>
<glyph name="divide" format="1">
  <advance width="1364"/>
  <unicode hex="00F7"/>
  <outline>
    <contour>
      <point x="558" y="193" type="curve" smooth="yes"/>
      <point x="558" y="123"/>
      <point x="613" y="80"/>
      <point x="672" y="80" type="curve" smooth="yes"/>
      <point x="742" y="80"/>
      <point x="809" y="133"/>
      <point x="809" y="212" type="curve" smooth="yes"/>
      <point x="809" y="273"/>
      <point x="774" y="326"/>
      <point x="694" y="326" type="curve" smooth="yes"/>
      <point x="627" y="326"/>
      <point x="558" y="268"/>
    </contour>
    <contour>
      <point x="219" y="552" type="line"/>
      <point x="1145" y="552" type="line"/>
      <point x="1145" y="678" type="line"/>
      <point x="219" y="678" type="line"/>
    </contour>
    <contour>
      <point x="692" y="904" type="curve" smooth="yes"/>
      <point x="762" y="904"/>
      <point x="828" y="957"/>
      <point x="828" y="1036" type="curve" smooth="yes"/>
      <point x="828" y="1098"/>
      <point x="794" y="1150"/>
      <point x="713" y="1150" type="curve" smooth="yes"/>
      <point x="647" y="1150"/>
      <point x="577" y="1092"/>
      <point x="577" y="1017" type="curve" smooth="yes"/>
      <point x="577" y="948"/>
      <point x="632" y="904"/>
    </contour>
  </outline>
</glyph>
<glyph name="oslash" format="1">
  <advance width="1218"/>
  <unicode hex="00F8"/>
  <outline>
    <contour>
      <point x="362" y="-197" type="line"/>
      <point x="449" y="27" type="line"/>
      <point x="461" y="63" type="line"/>
      <point x="818" y="1029" type="line"/>
      <point x="836" y="1062" type="line"/>
      <point x="922" y="1312" type="line"/>
      <point x="851" y="1332" type="line"/>
      <point x="759" y="1082" type="line"/>
      <point x="747" y="1053" type="line"/>
      <point x="389" y="75" type="line"/>
      <point x="372" y="46" type="line"/>
      <point x="287" y="-176" type="line"/>
    </contour>
    <contour>
      <point x="608" y="84" type="curve" smooth="yes"/>
      <point x="370" y="84"/>
      <point x="279" y="314"/>
      <point x="279" y="587" type="curve" smooth="yes"/>
      <point x="279" y="901"/>
      <point x="402" y="1061"/>
      <point x="610" y="1061" type="curve" smooth="yes"/>
      <point x="850" y="1061"/>
      <point x="938" y="828"/>
      <point x="938" y="558" type="curve" smooth="yes"/>
      <point x="938" y="245"/>
      <point x="816" y="84"/>
    </contour>
    <contour>
      <point x="93" y="576" type="curve" smooth="yes"/>
      <point x="93" y="254"/>
      <point x="231" y="-23"/>
      <point x="599" y="-23" type="curve" smooth="yes"/>
      <point x="860" y="-23"/>
      <point x="1125" y="196"/>
      <point x="1125" y="569" type="curve" smooth="yes"/>
      <point x="1125" y="891"/>
      <point x="986" y="1168"/>
      <point x="618" y="1168" type="curve" smooth="yes"/>
      <point x="357" y="1168"/>
      <point x="93" y="948"/>
    </contour>
  </outline>
</glyph>
<glyph name="thorn" format="1">
  <advance width="1228"/>
  <unicode hex="00FE"/>
  <outline>
    <contour>
      <point x="170" y="63" type="line"/>
      <point x="170" y="-431" type="line"/>
      <point x="215" y="-389" type="line"/>
      <point x="10" y="-415" type="line"/>
      <point x="10" y="-496" type="line"/>
      <point x="572" y="-496" type="line"/>
      <point x="572" y="-415" type="line"/>
      <point x="295" y="-391" type="line"/>
      <point x="336" y="-433" type="line"/>
      <point x="334" y="-136" type="line"/>
      <point x="329" y="17" type="line"/>
      <point x="246" y="105" type="line"/>
    </contour>
    <contour>
      <point x="170" y="56" type="line"/>
      <point x="196" y="28"/>
      <point x="364" y="-23"/>
      <point x="550" y="-23" type="curve" smooth="yes"/>
      <point x="910" y="-23"/>
      <point x="1134" y="261"/>
      <point x="1134" y="610" type="curve" smooth="yes"/>
      <point x="1134" y="1003"/>
      <point x="915" y="1168"/>
      <point x="686" y="1168" type="curve" smooth="yes"/>
      <point x="487" y="1168"/>
      <point x="350" y="1052"/>
      <point x="288" y="976" type="curve"/>
      <point x="333" y="909" type="line"/>
      <point x="379" y="961"/>
      <point x="488" y="1042"/>
      <point x="618" y="1042" type="curve" smooth="yes"/>
      <point x="801" y="1042"/>
      <point x="958" y="907"/>
      <point x="954" y="581" type="curve" smooth="yes"/>
      <point x="949" y="241"/>
      <point x="786" y="81"/>
      <point x="565" y="81" type="curve" smooth="yes"/>
      <point x="463" y="81"/>
      <point x="357" y="106"/>
      <point x="335" y="154" type="curve"/>
      <point x="335" y="1648" type="line"/>
      <point x="297" y="1677" type="line"/>
      <point x="293" y="1677" type="line"/>
      <point x="-6" y="1642" type="line"/>
      <point x="-6" y="1567" type="line"/>
      <point x="170" y="1549" type="line"/>
    </contour>
  </outline>
</glyph>
<glyph name="Aogonek" format="1">
  <advance width="1388"/>
  <unicode hex="0104"/>
  <outline>
    <contour>
      <point x="874" y="-318" type="curve" smooth="yes"/>
      <point x="874" y="-463"/>
      <point x="998" y="-510"/>
      <point x="1122" y="-510" type="curve" smooth="yes"/>
      <point x="1206" y="-510"/>
      <point x="1297" y="-483"/>
      <point x="1354" y="-440" type="curve"/>
      <point x="1354" y="-354" type="line"/>
      <point x="1307" y="-378"/>
      <point x="1248" y="-395"/>
      <point x="1195" y="-395" type="curve" smooth="yes"/>
      <point x="1109" y="-395"/>
      <point x="1035" y="-361"/>
      <point x="1035" y="-264" type="curve" smooth="yes"/>
      <point x="1035" y="-169"/>
      <point x="1153" y="-31"/>
      <point x="1309" y="17" type="curve"/>
      <point x="1140" y="2" type="line"/>
      <point x="995" y="-58"/>
      <point x="874" y="-205"/>
    </contour>
    <contour>
      <point x="-23" y="0" type="line"/>
      <point x="438" y="0" type="line"/>
      <point x="438" y="88" type="line"/>
      <point x="234" y="111" type="line"/>
      <point x="242" y="64" type="line"/>
      <point x="624" y="1214" type="line"/>
      <point x="680" y="1415" type="line"/>
      <point x="737" y="1220" type="line"/>
      <point x="1126" y="68" type="line"/>
      <point x="1143" y="111" type="line"/>
      <point x="932" y="88" type="line"/>
      <point x="932" y="0" type="line"/>
      <point x="1432" y="0" type="line"/>
      <point x="1432" y="88" type="line"/>
      <point x="1271" y="111" type="line"/>
      <point x="1314" y="62" type="line"/>
      <point x="787" y="1537" type="line"/>
      <point x="619" y="1537" type="line"/>
      <point x="95" y="68" type="line"/>
      <point x="138" y="112" type="line"/>
      <point x="-23" y="88" type="line"/>
    </contour>
    <contour>
      <point x="301" y="433" type="line"/>
      <point x="1043" y="433" type="line"/>
      <point x="1001" y="539" type="line"/>
      <point x="335" y="539" type="line"/>
    </contour>
  </outline>
</glyph>
<glyph name="dcroat" format="1">
  <advance width="1262"/>
  <unicode hex="0111"/>
  <outline>
    <contour>
      <point x="621" y="1310" type="line"/>
      <point x="1204" y="1310" type="line"/>
      <point x="1204" y="1409" type="line"/>
      <point x="621" y="1409" type="line"/>
    </contour>
    <contour>
      <point x="984" y="-19" type="curve" smooth="yes"/>
      <point x="1062" y="-19"/>
      <point x="1126" y="0"/>
      <point x="1179" y="13" type="curve"/>
      <point x="1179" y="92" type="line"/>
      <point x="1054" y="92" type="line"/>
      <point x="1054" y="1648" type="line"/>
      <point x="1016" y="1677" type="line"/>
      <point x="1011" y="1677" type="line"/>
      <point x="676" y="1643" type="line"/>
      <point x="676" y="1568" type="line"/>
      <point x="889" y="1549" type="line"/>
      <point x="889" y="192" type="line"/>
      <point x="898" y="191" type="line"/>
      <point x="898" y="69" type="line"/>
      <point x="898" y="-10"/>
      <point x="927" y="-19"/>
    </contour>
    <contour>
      <point x="536" y="-23" type="curve" smooth="yes"/>
      <point x="736" y="-23"/>
      <point x="874" y="100"/>
      <point x="936" y="190" type="curve"/>
      <point x="890" y="243" type="line"/>
      <point x="845" y="184"/>
      <point x="734" y="107"/>
      <point x="604" y="107" type="curve" smooth="yes"/>
      <point x="422" y="107"/>
      <point x="264" y="238"/>
      <point x="269" y="570" type="curve" smooth="yes"/>
      <point x="273" y="918"/>
      <point x="438" y="1064"/>
      <point x="657" y="1064" type="curve" smooth="yes"/>
      <point x="761" y="1064"/>
      <point x="866" y="1033"/>
      <point x="889" y="996" type="curve"/>
      <point x="969" y="1119" type="line"/>
      <point x="906" y="1143"/>
      <point x="794" y="1168"/>
      <point x="672" y="1168" type="curve" smooth="yes"/>
      <point x="312" y="1168"/>
      <point x="88" y="890"/>
      <point x="88" y="541" type="curve" smooth="yes"/>
      <point x="88" y="156"/>
      <point x="304" y="-23"/>
    </contour>
  </outline>
</glyph>
<glyph name="eogonek" format="1">
  <advance width="1105"/>
  <unicode hex="0119"/>
  <outline>
    <contour>
      <point x="470" y="-308" type="curve" smooth="yes"/>
      <point x="470" y="-457"/>
      <point x="605" y="-509"/>
      <point x="737" y="-509" type="curve" smooth="yes"/>
      <point x="818" y="-509"/>
      <point x="902" y="-486"/>
      <point x="956" y="-445" type="curve"/>
      <point x="956" y="-359" type="line"/>
      <point x="913" y="-381"/>
      <point x="860" y="-395"/>
      <point x="809" y="-395" type="curve" smooth="yes"/>
      <point x="717" y="-395"/>
      <point x="632" y="-356"/>
      <point x="632" y="-253" type="curve" smooth="yes"/>
      <point x="632" y="-162"/>
      <point x="726" y="-65"/>
      <point x="931" y="85" type="curve"/>
      <point x="809" y="38" type="line"/>
      <point x="615" y="-22"/>
      <point x="470" y="-190"/>
    </contour>
    <contour>
      <point x="590" y="-23" type="curve" smooth="yes"/>
      <point x="747" y="-23"/>
      <point x="913" y="43"/>
      <point x="991" y="123" type="curve"/>
      <point x="958" y="198" type="line"/>
      <point x="894" y="144"/>
      <point x="760" y="94"/>
      <point x="643" y="94" type="curve" smooth="yes"/>
      <point x="446" y="94"/>
      <point x="283" y="240"/>
      <point x="274" y="557" type="curve" smooth="yes"/>
      <point x="262" y="936"/>
      <point x="395" y="1062"/>
      <point x="579" y="1062" type="curve" smooth="yes"/>
      <point x="761" y="1062"/>
      <point x="834" y="936"/>
      <point x="835" y="769" type="curve" smooth="yes"/>
      <point x="835" y="739"/>
      <point x="833" y="707"/>
      <point x="830" y="678" type="curve"/>
      <point x="211" y="678" type="line"/>
      <point x="193" y="582" type="line"/>
      <point x="1002" y="582" type="line"/>
      <point x="1012" y="627"/>
      <point x="1014" y="684"/>
      <point x="1013" y="762" type="curve"/>
      <point x="1004" y="1027"/>
      <point x="862" y="1168"/>
      <point x="621" y="1168" type="curve" smooth="yes"/>
      <point x="320" y="1168"/>
      <point x="96" y="925"/>
      <point x="96" y="574" type="curve" smooth="yes"/>
      <point x="96" y="224"/>
      <point x="266" y="-23"/>
    </contour>
  </outline>
</glyph>
<glyph name="Hbar" format="1">
  <advance width="1688"/>
  <unicode hex="0126"/>
  <outline>
    <contour>
      <point x="110" y="0" type="line"/>
      <point x="630" y="0" type="line"/>
      <point x="630" y="89" type="line"/>
      <point x="409" y="111" type="line"/>
      <point x="451" y="87" type="line"/>
      <point x="451" y="632" type="line"/>
      <point x="1237" y="632" type="line"/>
      <point x="1237" y="76" type="line"/>
      <point x="1293" y="118" type="line"/>
      <point x="1066" y="86" type="line"/>
      <point x="1066" y="1" type="line"/>
      <point x="1572" y="1" type="line"/>
      <point x="1572" y="86" type="line"/>
      <point x="1350" y="118" type="line"/>
      <point x="1404" y="76" type="line"/>
      <point x="1404" y="1451" type="line"/>
      <point x="1370" y="1407" type="line"/>
      <point x="1572" y="1434" type="line"/>
      <point x="1572" y="1523" type="line"/>
      <point x="1066" y="1523" type="line"/>
      <point x="1066" y="1434" type="line"/>
      <point x="1272" y="1407" type="line"/>
      <point x="1237" y="1450" type="line"/>
      <point x="1237" y="738" type="line"/>
      <point x="451" y="738" type="line"/>
      <point x="451" y="1446" type="line"/>
      <point x="421" y="1408" type="line"/>
      <point x="629" y="1434" type="line"/>
      <point x="629" y="1523" type="line"/>
      <point x="116" y="1523" type="line"/>
      <point x="116" y="1434" type="line"/>
      <point x="318" y="1407" type="line"/>
      <point x="284" y="1444" type="line"/>
      <point x="284" y="92" type="line"/>
      <point x="333" y="112" type="line"/>
      <point x="110" y="89" type="line"/>
    </contour>
    <contour>
      <point x="50" y="1042" type="line"/>
      <point x="1638" y="1042" type="line"/>
      <point x="1638" y="1136" type="line"/>
      <point x="50" y="1136" type="line"/>
    </contour>
  </outline>
</glyph>
<glyph name="hbar" format="1">
  <advance width="1355"/>
  <unicode hex="0127"/>
  <outline>
    <contour>
      <point x="14" y="1294" type="line"/>
      <point x="645" y="1294" type="line"/>
      <point x="645" y="1393" type="line"/>
      <point x="14" y="1393" type="line"/>
    </contour>
    <contour>
      <point x="77" y="0" type="line"/>
      <point x="522" y="0" type="line"/>
      <point x="522" y="88" type="line"/>
      <point x="343" y="107" type="line"/>
      <point x="370" y="67" type="line"/>
      <point x="370" y="901" type="line"/>
      <point x="456" y="966"/>
      <point x="596" y="1036"/>
      <point x="712" y="1036" type="curve" smooth="yes"/>
      <point x="914" y="1036"/>
      <point x="948" y="923"/>
      <point x="948" y="684" type="curve" smooth="yes"/>
      <point x="948" y="65" type="line"/>
      <point x="986" y="108" type="line"/>
      <point x="804" y="88" type="line"/>
      <point x="804" y="0" type="line"/>
      <point x="1263" y="0" type="line"/>
      <point x="1263" y="88" type="line"/>
      <point x="1075" y="108" type="line"/>
      <point x="1113" y="65" type="line"/>
      <point x="1113" y="683" type="line"/>
      <point x="1113" y="1020"/>
      <point x="1043" y="1164"/>
      <point x="784" y="1164" type="curve" smooth="yes"/>
      <point x="613" y="1164"/>
      <point x="434" y="1054"/>
      <point x="365" y="993" type="curve"/>
      <point x="370" y="1164" type="line"/>
      <point x="370" y="1650" type="line"/>
      <point x="331" y="1677" type="line"/>
      <point x="326" y="1677" type="line"/>
      <point x="24" y="1642" type="line"/>
      <point x="24" y="1567" type="line"/>
      <point x="205" y="1549" type="line"/>
      <point x="205" y="67" type="line"/>
      <point x="244" y="108" type="line"/>
      <point x="77" y="88" type="line"/>
    </contour>
  </outline>
</glyph>
<glyph name="Iogonek" format="1">
  <advance width="814"/>
  <unicode hex="012E"/>
  <outline>
    <contour>
      <point x="115" y="-318" type="curve" smooth="yes"/>
      <point x="115" y="-463"/>
      <point x="239" y="-510"/>
      <point x="364" y="-510" type="curve" smooth="yes"/>
      <point x="448" y="-510"/>
      <point x="538" y="-483"/>
      <point x="596" y="-440" type="curve"/>
      <point x="596" y="-354" type="line"/>
      <point x="548" y="-378"/>
      <point x="489" y="-395"/>
      <point x="436" y="-395" type="curve" smooth="yes"/>
      <point x="351" y="-395"/>
      <point x="277" y="-361"/>
      <point x="277" y="-264" type="curve" smooth="yes"/>
      <point x="277" y="-169"/>
      <point x="411" y="-31"/>
      <point x="556" y="17" type="curve"/>
      <point x="389" y="2" type="line"/>
      <point x="253" y="-58"/>
      <point x="115" y="-205"/>
    </contour>
    <contour>
      <point x="122" y="0" type="line"/>
      <point x="691" y="0" type="line"/>
      <point x="691" y="87" type="line"/>
      <point x="455" y="111" type="line"/>
      <point x="492" y="59" type="line"/>
      <point x="492" y="1452" type="line"/>
      <point x="461" y="1409" type="line"/>
      <point x="691" y="1434" type="line"/>
      <point x="691" y="1522" type="line"/>
      <point x="122" y="1522" type="line"/>
      <point x="122" y="1434" type="line"/>
      <point x="361" y="1407" type="line"/>
      <point x="322" y="1452" type="line"/>
      <point x="322" y="59" type="line"/>
      <point x="358" y="111" type="line"/>
      <point x="122" y="88" type="line"/>
    </contour>
  </outline>
</glyph>
<glyph name="kgreenlandic" format="1">
  <advance width="1343"/>
  <unicode hex="0138"/>
  <outline>
    <contour>
      <point x="79" y="0" type="line"/>
      <point x="584" y="0" type="line"/>
      <point x="584" y="84" type="line"/>
      <point x="395" y="103" type="line"/>
      <point x="414" y="63" type="line"/>
      <point x="414" y="276" type="line"/>
      <point x="409" y="430" type="line"/>
      <point x="395" y="365" type="line"/>
      <point x="653" y="598" type="line"/>
      <point x="627" y="609" type="line"/>
      <point x="1000" y="56" type="line"/>
      <point x="1001" y="106" type="line"/>
      <point x="851" y="84" type="line"/>
      <point x="851" y="0" type="line"/>
      <point x="1303" y="0" type="line"/>
      <point x="1303" y="85" type="line"/>
      <point x="1135" y="104" type="line"/>
      <point x="1195" y="57" type="line"/>
      <point x="736" y="703" type="line"/>
      <point x="717" y="652" type="line"/>
      <point x="1143" y="1071" type="line"/>
      <point x="1019" y="1023" type="line"/>
      <point x="1246" y="1050" type="line"/>
      <point x="1246" y="1135" type="line"/>
      <point x="761" y="1135" type="line"/>
      <point x="761" y="1050" type="line"/>
      <point x="992" y="1016" type="line"/>
      <point x="977" y="1072" type="line"/>
      <point x="383" y="482" type="line"/>
      <point x="391" y="482"/>
      <point x="402" y="464"/>
      <point x="409" y="464" type="curve"/>
      <point x="414" y="714" type="line"/>
      <point x="414" y="1129" type="line"/>
      <point x="375" y="1161" type="line"/>
      <point x="370" y="1161" type="line"/>
      <point x="89" y="1129" type="line"/>
      <point x="89" y="1037" type="line"/>
      <point x="249" y="1001" type="line"/>
      <point x="249" y="64" type="line"/>
      <point x="280" y="104" type="line"/>
      <point x="79" y="85" type="line"/>
    </contour>
  </outline>
</glyph>
<glyph name="lacute" format="1">
  <advance width="673"/>
  <unicode hex="013A"/>
  <outline>
    <contour>
      <point x="80" y="0" type="line"/>
      <point x="618" y="0" type="line"/>
      <point x="618" y="85" type="line"/>
      <point x="400" y="102" type="line"/>
      <point x="427" y="63" type="line"/>
      <point x="427" y="1505" type="line"/>
      <point x="387" y="1533" type="line"/>
      <point x="386" y="1533" type="line"/>
      <point x="85" y="1497" type="line"/>
      <point x="85" y="1423" type="line"/>
      <point x="261" y="1411" type="line"/>
      <point x="261" y="64" type="line"/>
      <point x="292" y="103" type="line"/>
      <point x="80" y="85" type="line"/>
    </contour>
    <contour>
      <point x="239" y="1646" type="line"/>
      <point x="240" y="1646" type="line"/>
      <point x="333" y="1685"/>
      <point x="568" y="1813"/>
      <point x="637" y="1902" type="curve"/>
      <point x="523" y="2008" type="line"/>
      <point x="522" y="2008" type="line"/>
      <point x="183" y="1699" type="line"/>
    </contour>
  </outline>
</glyph>
<glyph name="Lslash" format="1">
  <advance width="1296"/>
  <unicode hex="0141"/>
  <outline>
    <contour>
      <point x="52" y="532" type="line"/>
      <point x="323" y="650" type="line"/>
      <point x="416" y="686" type="line"/>
      <point x="881" y="891" type="line"/>
      <point x="881" y="1002" type="line"/>
      <point x="415" y="793" type="line"/>
      <point x="321" y="756" type="line"/>
      <point x="52" y="636" type="line"/>
    </contour>
    <contour>
      <point x="109" y="0" type="line"/>
      <point x="1174" y="0" type="line"/>
      <point x="1249" y="426" type="line"/>
      <point x="1151" y="443" type="line"/>
      <point x="1036" y="122" type="line"/>
      <point x="407" y="106" type="line"/>
      <point x="453" y="50" type="line"/>
      <point x="453" y="1459" type="line"/>
      <point x="434" y="1410" type="line"/>
      <point x="657" y="1434" type="line"/>
      <point x="657" y="1522" type="line"/>
      <point x="113" y="1522" type="line"/>
      <point x="113" y="1434" type="line"/>
      <point x="304" y="1409" type="line"/>
      <point x="284" y="1459" type="line"/>
      <point x="284" y="58" type="line"/>
      <point x="327" y="112" type="line"/>
      <point x="109" y="88" type="line"/>
    </contour>
  </outline>
</glyph>
<glyph name="lslash" format="1">
  <advance width="703"/>
  <unicode hex="0142"/>
  <outline>
    <contour>
      <point x="44" y="628" type="line"/>
      <point x="308" y="751" type="line"/>
      <point x="417" y="799" type="line"/>
      <point x="675" y="918" type="line"/>
      <point x="675" y="1040" type="line"/>
      <point x="402" y="910" type="line"/>
      <point x="295" y="863" type="line"/>
      <point x="44" y="742" type="line"/>
    </contour>
    <contour>
      <point x="86" y="0" type="line"/>
      <point x="624" y="0" type="line"/>
      <point x="624" y="88" type="line"/>
      <point x="405" y="106" type="line"/>
      <point x="433" y="67" type="line"/>
      <point x="433" y="1650" type="line"/>
      <point x="393" y="1678" type="line"/>
      <point x="392" y="1678" type="line"/>
      <point x="91" y="1642" type="line"/>
      <point x="91" y="1567" type="line"/>
      <point x="267" y="1549" type="line"/>
      <point x="267" y="67" type="line"/>
      <point x="300" y="107" type="line"/>
      <point x="86" y="88" type="line"/>
    </contour>
  </outline>
</glyph>
<glyph name="Eng" format="1">
  <advance width="1606"/>
  <unicode hex="014A"/>
  <outline>
    <contour>
      <point x="117" y="0" type="line"/>
      <point x="586" y="0" type="line"/>
      <point x="586" y="87" type="line"/>
      <point x="399" y="107" type="line"/>
      <point x="399" y="1341" type="line"/>
      <point x="557" y="1054" type="line"/>
      <point x="1252" y="-6" type="line"/>
      <point x="1240" y="64" type="line"/>
      <point x="1229" y="12"/>
      <point x="1207" y="-40"/>
      <point x="1173" y="-87" type="curve" smooth="yes"/>
      <point x="1105" y="-184"/>
      <point x="999" y="-247"/>
      <point x="869" y="-276" type="curve"/>
      <point x="913" y="-348" type="line"/>
      <point x="1048" y="-333"/>
      <point x="1165" y="-289"/>
      <point x="1280" y="-161" type="curve" smooth="yes"/>
      <point x="1352" y="-79"/>
      <point x="1406" y="29"/>
      <point x="1406" y="346" type="curve" smooth="yes"/>
      <point x="1406" y="1412" type="line"/>
      <point x="1573" y="1435" type="line"/>
      <point x="1573" y="1522" type="line"/>
      <point x="1115" y="1522" type="line"/>
      <point x="1115" y="1435" type="line"/>
      <point x="1288" y="1412" type="line"/>
      <point x="1288" y="194" type="line"/>
      <point x="1133" y="471" type="line"/>
      <point x="453" y="1522" type="line"/>
      <point x="117" y="1522" type="line"/>
      <point x="117" y="1435" type="line"/>
      <point x="280" y="1411" type="line"/>
      <point x="280" y="107" type="line"/>
      <point x="117" y="87" type="line"/>
    </contour>
  </outline>
</glyph>
<glyph name="OE" format="1">
  <advance width="2103"/>
  <unicode hex="0152"/>
  <outline>
    <contour>
      <point x="1973" y="0" type="line"/>
      <point x="2051" y="350" type="line"/>
      <point x="1954" y="377" type="line"/>
      <point x="1835" y="120" type="line"/>
      <point x="1201" y="100" type="line"/>
      <point x="1201" y="737" type="line"/>
      <point x="1581" y="732" type="line"/>
      <point x="1606" y="555" type="line"/>
      <point x="1710" y="555" type="line"/>
      <point x="1710" y="1007" type="line"/>
      <point x="1606" y="1007" type="line"/>
      <point x="1581" y="839" type="line"/>
      <point x="1201" y="833" type="line"/>
      <point x="1201" y="1424" type="line"/>
      <point x="1751" y="1414" type="line"/>
      <point x="1806" y="1215" type="line"/>
      <point x="1903" y="1215" type="line"/>
      <point x="1874" y="1522" type="line"/>
      <point x="1035" y="1522" type="line"/>
      <point x="1035" y="0" type="line"/>
    </contour>
    <contour>
      <point x="1135" y="365" type="line"/>
      <point x="1069" y="183"/>
      <point x="936" y="79"/>
      <point x="741" y="79" type="curve" smooth="yes"/>
      <point x="433" y="80"/>
      <point x="259" y="383"/>
      <point x="259" y="752" type="curve" smooth="yes"/>
      <point x="259" y="1202"/>
      <point x="452" y="1452"/>
      <point x="746" y="1452" type="curve" smooth="yes"/>
      <point x="971" y="1452"/>
      <point x="1074" y="1337"/>
      <point x="1136" y="1201" type="curve"/>
      <point x="1141" y="1426" type="line"/>
      <point x="1040" y="1506"/>
      <point x="911" y="1549"/>
      <point x="759" y="1546" type="curve" smooth="yes"/>
      <point x="381" y="1538"/>
      <point x="75" y="1234"/>
      <point x="75" y="751" type="curve" smooth="yes"/>
      <point x="75" y="293"/>
      <point x="316" y="-25"/>
      <point x="730" y="-16" type="curve" smooth="yes"/>
      <point x="885" y="-12"/>
      <point x="1028" y="42"/>
      <point x="1141" y="141" type="curve"/>
    </contour>
    <contour>
      <point x="1020" y="-170" type="move" name="btm"/>
    </contour>
    <contour>
      <point x="1020" y="1700" type="move" name="top"/>
    </contour>
  </outline>
</glyph>
<glyph name="oe" format="1">
  <advance width="1962"/>
  <unicode hex="0153"/>
  <outline>
    <contour>
      <point x="95" y="575" type="curve" smooth="yes"/>
      <point x="95" y="230"/>
      <point x="243" y="-23"/>
      <point x="602" y="-23" type="curve" smooth="yes"/>
      <point x="846" y="-23"/>
      <point x="1038" y="156"/>
      <point x="1097" y="396" type="curve"/>
      <point x="1099" y="765" type="line"/>
      <point x="1050" y="1011"/>
      <point x="894" y="1168"/>
      <point x="624" y="1168" type="curve" smooth="yes"/>
      <point x="359" y="1168"/>
      <point x="95" y="946"/>
    </contour>
    <contour>
      <point x="610" y="85" type="curve" smooth="yes"/>
      <point x="389" y="85"/>
      <point x="280" y="278"/>
      <point x="280" y="588" type="curve" smooth="yes"/>
      <point x="280" y="898"/>
      <point x="401" y="1061"/>
      <point x="612" y="1061" type="curve" smooth="yes"/>
      <point x="843" y="1061"/>
      <point x="942" y="842"/>
      <point x="942" y="559" type="curve" smooth="yes"/>
      <point x="942" y="233"/>
      <point x="816" y="85"/>
    </contour>
    <contour>
      <point x="1447" y="-23" type="curve" smooth="yes"/>
      <point x="1602" y="-23"/>
      <point x="1768" y="43"/>
      <point x="1847" y="123" type="curve"/>
      <point x="1814" y="198" type="line"/>
      <point x="1750" y="144"/>
      <point x="1615" y="94"/>
      <point x="1498" y="94" type="curve" smooth="yes"/>
      <point x="1303" y="94"/>
      <point x="1139" y="240"/>
      <point x="1130" y="557" type="curve" smooth="yes"/>
      <point x="1118" y="936"/>
      <point x="1250" y="1062"/>
      <point x="1435" y="1062" type="curve" smooth="yes"/>
      <point x="1617" y="1062"/>
      <point x="1689" y="936"/>
      <point x="1690" y="769" type="curve" smooth="yes"/>
      <point x="1690" y="739"/>
      <point x="1688" y="707"/>
      <point x="1686" y="678" type="curve"/>
      <point x="1066" y="678" type="line"/>
      <point x="1049" y="582" type="line"/>
      <point x="1858" y="582" type="line"/>
      <point x="1868" y="627"/>
      <point x="1869" y="684"/>
      <point x="1869" y="762" type="curve"/>
      <point x="1859" y="1027"/>
      <point x="1717" y="1168"/>
      <point x="1476" y="1168" type="curve" smooth="yes"/>
      <point x="1176" y="1168"/>
      <point x="952" y="925"/>
      <point x="952" y="574" type="curve" smooth="yes"/>
      <point x="952" y="224"/>
      <point x="1123" y="-23"/>
    </contour>
    <contour>
      <point x="1081" y="-170" type="move" name="btm"/>
    </contour>
    <contour>
      <point x="1081" y="1700" type="move" name="top"/>
    </contour>
  </outline>
</glyph>
<glyph name="Tbar" format="1">
  <advance width="1428"/>
  <unicode hex="0166"/>
  <outline>
    <contour>
      <point x="368" y="679" type="line"/>
      <point x="1059" y="679" type="line"/>
      <point x="1059" y="791" type="line"/>
      <point x="368" y="791" type="line"/>
    </contour>
    <contour>
      <point x="356" y="0" type="line"/>
      <point x="1093" y="0" type="line"/>
      <point x="1093" y="88" type="line"/>
      <point x="751" y="111" type="line"/>
      <point x="801" y="58" type="line"/>
      <point x="801" y="1429" type="line"/>
      <point x="1195" y="1418" type="line"/>
      <point x="1252" y="1001" type="line"/>
      <point x="1362" y="1001" type="line"/>
      <point x="1339" y="1522" type="line"/>
      <point x="91" y="1522" type="line"/>
      <point x="57" y="1001" type="line"/>
      <point x="169" y="1001" type="line"/>
      <point x="235" y="1418" type="line"/>
      <point x="624" y="1429" type="line"/>
      <point x="624" y="61" type="line"/>
      <point x="673" y="111" type="line"/>
      <point x="356" y="88" type="line"/>
    </contour>
  </outline>
</glyph>
<glyph name="tbar" format="1">
  <advance width="831"/>
  <unicode hex="0167"/>
  <outline>
    <contour>
      <point x="74" y="624" type="line"/>
      <point x="756" y="624" type="line"/>
      <point x="756" y="738" type="line"/>
      <point x="74" y="738" type="line"/>
    </contour>
    <contour>
      <point x="227" y="206" type="line"/>
      <point x="227" y="27"/>
      <point x="312" y="-23"/>
      <point x="444" y="-23" type="curve"/>
      <point x="446" y="-23" type="line"/>
      <point x="559" y="-22"/>
      <point x="732" y="37"/>
      <point x="791" y="82" type="curve"/>
      <point x="765" y="159" type="line"/>
      <point x="764" y="159" type="line"/>
      <point x="718" y="138"/>
      <point x="604" y="108"/>
      <point x="521" y="108" type="curve"/>
      <point x="520" y="108" type="line"/>
      <point x="408" y="108"/>
      <point x="393" y="124"/>
      <point x="393" y="353" type="curve" smooth="yes"/>
      <point x="393" y="1015" type="line"/>
      <point x="756" y="1015" type="line"/>
      <point x="756" y="1136" type="line"/>
      <point x="393" y="1136" type="line"/>
      <point x="393" y="1428" type="line"/>
      <point x="298" y="1428" type="line"/>
      <point x="291" y="1391"/>
      <point x="253" y="1239"/>
      <point x="236" y="1192" type="curve" smooth="yes"/>
      <point x="225" y="1160"/>
      <point x="212" y="1141"/>
      <point x="191" y="1128" type="curve"/>
      <point x="174" y="1118"/>
      <point x="108" y="1104"/>
      <point x="72" y="1096" type="curve"/>
      <point x="72" y="1015" type="line"/>
      <point x="227" y="1015" type="line"/>
    </contour>
  </outline>
</glyph>
<glyph name="Uogonek" format="1">
  <advance width="1512"/>
  <unicode hex="0172"/>
  <outline>
    <contour>
      <point x="554" y="-318" type="curve" smooth="yes"/>
      <point x="554" y="-463"/>
      <point x="678" y="-510"/>
      <point x="804" y="-510" type="curve" smooth="yes"/>
      <point x="888" y="-510"/>
      <point x="978" y="-483"/>
      <point x="1035" y="-440" type="curve"/>
      <point x="1035" y="-354" type="line"/>
      <point x="987" y="-378"/>
      <point x="929" y="-395"/>
      <point x="875" y="-395" type="curve" smooth="yes"/>
      <point x="791" y="-395"/>
      <point x="717" y="-360"/>
      <point x="717" y="-263" type="curve" smooth="yes"/>
      <point x="717" y="-163"/>
      <point x="865" y="-21"/>
      <point x="1028" y="43" type="curve"/>
      <point x="843" y="2" type="line"/>
      <point x="692" y="-57"/>
      <point x="554" y="-203"/>
    </contour>
    <contour>
      <point x="777" y="-16" type="curve" smooth="yes"/>
      <point x="1088" y="-16"/>
      <point x="1318" y="181"/>
      <point x="1318" y="625" type="curve" smooth="yes"/>
      <point x="1318" y="1460" type="line"/>
      <point x="1290" y="1407" type="line"/>
      <point x="1475" y="1434" type="line"/>
      <point x="1475" y="1522" type="line"/>
      <point x="1020" y="1522" type="line"/>
      <point x="1020" y="1434" type="line"/>
      <point x="1223" y="1406" type="line"/>
      <point x="1189" y="1460" type="line"/>
      <point x="1189" y="617" type="line"/>
      <point x="1189" y="269"/>
      <point x="1055" y="83"/>
      <point x="793" y="83" type="curve" smooth="yes"/>
      <point x="553" y="83"/>
      <point x="381" y="208"/>
      <point x="381" y="633" type="curve" smooth="yes"/>
      <point x="381" y="1460" type="line"/>
      <point x="352" y="1407" type="line"/>
      <point x="557" y="1434" type="line"/>
      <point x="557" y="1522" type="line"/>
      <point x="56" y="1522" type="line"/>
      <point x="56" y="1434" type="line"/>
      <point x="234" y="1407" type="line"/>
      <point x="208" y="1460" type="line"/>
      <point x="208" y="651" type="line"/>
      <point x="208" y="199"/>
      <point x="381" y="-16"/>
    </contour>
  </outline>
</glyph>
<glyph name="uogonek" format="1">
  <advance width="1286"/>
  <unicode hex="0173"/>
  <outline>
    <contour>
      <point x="719" y="-311" type="curve" smooth="yes"/>
      <point x="719" y="-455"/>
      <point x="844" y="-510"/>
      <point x="969" y="-510" type="curve" smooth="yes"/>
      <point x="1053" y="-510"/>
      <point x="1143" y="-483"/>
      <point x="1200" y="-440" type="curve"/>
      <point x="1200" y="-354" type="line"/>
      <point x="1152" y="-378"/>
      <point x="1094" y="-395"/>
      <point x="1040" y="-395" type="curve" smooth="yes"/>
      <point x="956" y="-395"/>
      <point x="881" y="-354"/>
      <point x="881" y="-257" type="curve" smooth="yes"/>
      <point x="881" y="-161"/>
      <point x="1004" y="-39"/>
      <point x="1185" y="17" type="curve"/>
      <point x="1024" y="1" type="line"/>
      <point x="869" y="-51"/>
      <point x="719" y="-198"/>
    </contour>
    <contour>
      <point x="1031" y="-19" type="curve" smooth="yes"/>
      <point x="1102" y="-19"/>
      <point x="1155" y="-1"/>
      <point x="1201" y="12" type="curve"/>
      <point x="1202" y="90" type="line"/>
      <point x="1075" y="90" type="line"/>
      <point x="1075" y="1137" type="line"/>
      <point x="1029" y="1161" type="line"/>
      <point x="1027" y="1161" type="line"/>
      <point x="753" y="1135" type="line"/>
      <point x="753" y="1059" type="line"/>
      <point x="910" y="1023" type="line"/>
      <point x="910" y="233" type="line"/>
      <point x="846" y="179"/>
      <point x="730" y="103"/>
      <point x="596" y="103" type="curve" smooth="yes"/>
      <point x="406" y="103"/>
      <point x="366" y="203"/>
      <point x="366" y="446" type="curve" smooth="yes"/>
      <point x="366" y="1137" type="line"/>
      <point x="329" y="1161" type="line"/>
      <point x="328" y="1161" type="line"/>
      <point x="80" y="1135" type="line"/>
      <point x="80" y="1059" type="line"/>
      <point x="201" y="1024" type="line"/>
      <point x="201" y="422" type="line"/>
      <point x="201" y="111"/>
      <point x="293" y="-23"/>
      <point x="545" y="-23" type="curve" smooth="yes"/>
      <point x="697" y="-23"/>
      <point x="846" y="73"/>
      <point x="927" y="148" type="curve"/>
      <point x="927" y="68" type="line"/>
      <point x="927" y="-3"/>
      <point x="965" y="-19"/>
    </contour>
  </outline>
</glyph>
<glyph name="uni0259" format="1">
  <advance width="1074"/>
  <unicode hex="0259"/>
  <outline>
    <contour>
      <point x="498" y="1168" type="curve" smooth="yes"/>
      <point x="345" y="1168"/>
      <point x="182" y="1102"/>
      <point x="106" y="1022" type="curve"/>
      <point x="139" y="947" type="line"/>
      <point x="201" y="1001"/>
      <point x="332" y="1051"/>
      <point x="445" y="1051" type="curve" smooth="yes"/>
      <point x="639" y="1051"/>
      <point x="801" y="905"/>
      <point x="810" y="588" type="curve" smooth="yes"/>
      <point x="822" y="209"/>
      <point x="691" y="72"/>
      <point x="512" y="72" type="curve" smooth="yes"/>
      <point x="326" y="72"/>
      <point x="263" y="215"/>
      <point x="262" y="381" type="curve" smooth="yes"/>
      <point x="262" y="408"/>
      <point x="263" y="439"/>
      <point x="265" y="467" type="curve"/>
      <point x="873" y="467" type="line"/>
      <point x="889" y="562" type="line"/>
      <point x="94" y="562" type="line"/>
      <point x="88" y="518"/>
      <point x="81" y="460"/>
      <point x="84" y="383" type="curve" smooth="yes"/>
      <point x="96" y="118"/>
      <point x="233" y="-23"/>
      <point x="470" y="-23" type="curve" smooth="yes"/>
      <point x="766" y="-23"/>
      <point x="985" y="220"/>
      <point x="985" y="570" type="curve" smooth="yes"/>
      <point x="985" y="921"/>
      <point x="816" y="1168"/>
    </contour>
    <contour>
      <point x="590" y="-170" type="move" name="btm"/>
    </contour>
    <contour>
      <point x="554" y="1700" type="move" name="top"/>
    </contour>
  </outline>
</glyph>
<glyph name="circumflex" format="1">
  <advance width="1061"/>
  <unicode hex="02C6"/>
  <outline>
    <contour>
      <point x="233" y="1333" type="line"/>
      <point x="529" y="1643" type="line"/>
      <point x="810" y="1334" type="line"/>
      <point x="883" y="1376" type="line"/>
      <point x="607" y="1776" type="line"/>
      <point x="452" y="1776" type="line"/>
      <point x="168" y="1375" type="line"/>
    </contour>
    <contour>
      <point x="530" y="1700" type="move" name="_top"/>
    </contour>
  </outline>
</glyph>
<glyph name="ogonek" format="1">
  <advance width="709"/>
  <unicode hex="02DB"/>
  <outline>
    <contour>
      <point x="238" y="-510" type="curve" smooth="yes"/>
      <point x="404" y="-510"/>
      <point x="498" y="-441"/>
      <point x="549" y="-402" type="curve"/>
      <point x="531" y="-323" type="line"/>
      <point x="496" y="-344"/>
      <point x="405" y="-403"/>
      <point x="311" y="-403" type="curve" smooth="yes"/>
      <point x="215" y="-403"/>
      <point x="161" y="-371"/>
      <point x="161" y="-272" type="curve" smooth="yes"/>
      <point x="161" y="-182"/>
      <point x="321" y="-46"/>
      <point x="447" y="0" type="curve"/>
      <point x="369" y="8" type="line"/>
      <point x="307" y="0" type="line"/>
      <point x="164" y="-62"/>
      <point x="8" y="-205"/>
      <point x="8" y="-320" type="curve" smooth="yes"/>
      <point x="8" y="-459"/>
      <point x="113" y="-510"/>
    </contour>
  </outline>
</glyph>
<glyph name="hungarumlaut" format="1">
  <advance width="1022"/>
  <unicode hex="02DD"/>
  <outline>
    <contour>
      <point x="236" y="1353" type="line"/>
      <point x="325" y="1416"/>
      <point x="542" y="1607"/>
      <point x="606" y="1711" type="curve"/>
      <point x="489" y="1808" type="line"/>
      <point x="179" y="1398" type="line"/>
    </contour>
    <contour>
      <point x="707" y="1354" type="line"/>
      <point x="801" y="1415"/>
      <point x="1031" y="1610"/>
      <point x="1087" y="1704" type="curve"/>
      <point x="978" y="1801" type="line"/>
      <point x="651" y="1402" type="line"/>
    </contour>
    <contour>
      <point x="510" y="1700" type="move" name="_top"/>
    </contour>
  </outline>
</glyph>
<glyph name="afii10145" format="1">
  <advance width="1620"/>
  <unicode hex="040F"/>
  <outline>
    <contour>
      <point x="1517" y="0" type="line"/>
      <point x="1517" y="88" type="line"/>
      <point x="1288" y="112" type="line"/>
      <point x="1334" y="28" type="line"/>
      <point x="1334" y="1443" type="line"/>
      <point x="1304" y="1407" type="line"/>
      <point x="1498" y="1434" type="line"/>
      <point x="1498" y="1522" type="line"/>
      <point x="996" y="1522" type="line"/>
      <point x="996" y="1434" type="line"/>
      <point x="1196" y="1408" type="line"/>
      <point x="1168" y="1445" type="line"/>
      <point x="1168" y="105" type="line"/>
      <point x="451" y="105" type="line"/>
      <point x="451" y="1457" type="line"/>
      <point x="420" y="1408" type="line"/>
      <point x="648" y="1434" type="line"/>
      <point x="648" y="1522" type="line"/>
      <point x="113" y="1522" type="line"/>
      <point x="113" y="1434" type="line"/>
      <point x="319" y="1407" type="line"/>
      <point x="286" y="1455" type="line"/>
      <point x="286" y="66" type="line"/>
      <point x="321" y="112" type="line"/>
      <point x="104" y="88" type="line"/>
      <point x="104" y="0" type="line"/>
    </contour>
    <contour>
      <point x="918" y="0" type="curve"/>
      <point x="824" y="38" type="line"/>
      <point x="730" y="0" type="line"/>
      <point x="731" y="-2"/>
      <point x="763" y="-362"/>
      <point x="763" y="-369" type="curve"/>
      <point x="885" y="-369" type="line"/>
      <point x="885" y="-362"/>
      <point x="917" y="-2"/>
    </contour>
    <contour>
      <point x="880" y="-170" type="move" name="btm"/>
    </contour>
    <contour>
      <point x="806" y="1700" type="move" name="top"/>
    </contour>
  </outline>
</glyph>
<glyph name="afii10018" format="1">
  <advance width="1312"/>
  <unicode hex="0411"/>
  <outline>
    <contour>
      <point x="67" y="0" type="line"/>
      <point x="374" y="0" type="line"/>
      <point x="451" y="72" type="line"/>
      <point x="451" y="1430" type="line"/>
      <point x="988" y="1417" type="line"/>
      <point x="1051" y="1151" type="line"/>
      <point x="1167" y="1151" type="line"/>
      <point x="1146" y="1522" type="line"/>
      <point x="70" y="1522" type="line"/>
      <point x="70" y="1434" type="line"/>
      <point x="323" y="1407" type="line"/>
      <point x="284" y="1462" type="line"/>
      <point x="284" y="60" type="line"/>
      <point x="341" y="111" type="line"/>
      <point x="67" y="88" type="line"/>
    </contour>
    <contour>
      <point x="374" y="0" type="line"/>
      <point x="459" y="0"/>
      <point x="645" y="-16"/>
      <point x="694" y="-16" type="curve" smooth="yes"/>
      <point x="1013" y="-16"/>
      <point x="1236" y="152"/>
      <point x="1236" y="480" type="curve" smooth="yes"/>
      <point x="1236" y="760"/>
      <point x="1061" y="926"/>
      <point x="721" y="926" type="curve" smooth="yes"/>
      <point x="620" y="926"/>
      <point x="497" y="912"/>
      <point x="451" y="902" type="curve"/>
      <point x="394" y="802" type="line"/>
      <point x="451" y="798" type="line"/>
      <point x="492" y="806"/>
      <point x="588" y="814"/>
      <point x="676" y="814" type="curve" smooth="yes"/>
      <point x="914" y="814"/>
      <point x="1059" y="706"/>
      <point x="1059" y="466" type="curve" smooth="yes"/>
      <point x="1059" y="210"/>
      <point x="915" y="84"/>
      <point x="676" y="84" type="curve" smooth="yes"/>
      <point x="558" y="84"/>
      <point x="509" y="94"/>
      <point x="450" y="103" type="curve"/>
    </contour>
    <contour>
      <point x="695" y="-170" type="move" name="btm"/>
    </contour>
    <contour>
      <point x="694" y="1700" type="move" name="top"/>
    </contour>
  </outline>
</glyph>
<glyph name="afii10021" format="1">
  <advance width="1471"/>
  <unicode hex="0414"/>
  <outline>
    <contour>
      <point x="480" y="1269" type="line"/>
      <point x="480" y="516"/>
      <point x="264" y="164"/>
      <point x="208" y="103" type="curve"/>
      <point x="253" y="81" type="line"/>
      <point x="366" y="106" type="line"/>
      <point x="430" y="190"/>
      <point x="596" y="606"/>
      <point x="592" y="1257" type="curve" smooth="yes"/>
      <point x="592" y="1416" type="line"/>
      <point x="1026" y="1416" type="line"/>
      <point x="1025" y="67" type="line"/>
      <point x="1189" y="67" type="line"/>
      <point x="1189" y="1522" type="line"/>
      <point x="480" y="1522" type="line"/>
    </contour>
    <contour>
      <point x="36" y="-369" type="curve"/>
      <point x="147" y="-369" type="line"/>
      <point x="157" y="-328"/>
      <point x="225" y="-4"/>
      <point x="227" y="0" type="curve"/>
      <point x="110" y="60" type="line"/>
      <point x="61" y="109" type="line"/>
      <point x="61" y="96"/>
      <point x="36" y="-364"/>
    </contour>
    <contour>
      <point x="480" y="1411" type="line"/>
      <point x="509" y="1453" type="line"/>
      <point x="480" y="1522" type="line"/>
      <point x="271" y="1522" type="line"/>
      <point x="271" y="1433" type="line"/>
    </contour>
    <contour>
      <point x="1208" y="-369" type="curve"/>
      <point x="1319" y="-369" type="line"/>
      <point x="1320" y="-367"/>
      <point x="1370" y="106"/>
      <point x="1370" y="109" type="curve"/>
      <point x="1299" y="109" type="line"/>
      <point x="1188" y="1" type="line"/>
      <point x="1190" y="-3"/>
      <point x="1206" y="-327"/>
    </contour>
    <contour>
      <point x="1383" y="1433" type="line"/>
      <point x="1383" y="1522" type="line"/>
      <point x="1189" y="1522" type="line"/>
      <point x="1160" y="1453" type="line"/>
      <point x="1189" y="1411" type="line"/>
    </contour>
    <contour>
      <point x="1343" y="0" type="line"/>
      <point x="1337" y="109" type="line"/>
      <point x="64" y="109" type="line"/>
      <point x="69" y="0" type="line"/>
    </contour>
    <contour>
      <point x="557" y="-170" type="move" name="btm"/>
    </contour>
    <contour>
      <point x="561" y="1700" type="move" name="top"/>
    </contour>
  </outline>
</glyph>
<glyph name="afii10024" format="1">
  <advance width="2113"/>
  <unicode hex="0416"/>
  <outline>
    <contour>
      <point x="804" y="0" type="line"/>
      <point x="1317" y="0" type="line"/>
      <point x="1317" y="87" type="line"/>
      <point x="1109" y="111" type="line"/>
      <point x="1137" y="56" type="line"/>
      <point x="1137" y="1454" type="line"/>
      <point x="1109" y="1408" type="line"/>
      <point x="1314" y="1434" type="line"/>
      <point x="1314" y="1522" type="line"/>
      <point x="805" y="1522" type="line"/>
      <point x="805" y="1434" type="line"/>
      <point x="1015" y="1406" type="line"/>
      <point x="976" y="1454" type="line"/>
      <point x="976" y="56" type="line"/>
      <point x="1007" y="111" type="line"/>
      <point x="804" y="88" type="line"/>
    </contour>
    <contour>
      <point x="519" y="1522" type="line"/>
      <point x="46" y="1522" type="line"/>
      <point x="46" y="1434" type="line"/>
      <point x="238" y="1407" type="line"/>
      <point x="165" y="1464" type="line"/>
      <point x="675" y="775" type="line"/>
      <point x="743" y="729" type="line"/>
      <point x="787" y="793" type="line"/>
      <point x="314" y="1464" type="line"/>
      <point x="331" y="1409" type="line"/>
      <point x="519" y="1434" type="line"/>
    </contour>
    <contour>
      <point x="1438" y="775" type="line"/>
      <point x="1949" y="1464" type="line"/>
      <point x="1876" y="1407" type="line"/>
      <point x="2068" y="1434" type="line"/>
      <point x="2068" y="1522" type="line"/>
      <point x="1594" y="1522" type="line"/>
      <point x="1594" y="1434" type="line"/>
      <point x="1781" y="1408" type="line"/>
      <point x="1799" y="1464" type="line"/>
      <point x="1327" y="793" type="line"/>
      <point x="1370" y="729" type="line"/>
    </contour>
    <contour>
      <point x="230" y="0" type="line"/>
      <point x="372" y="0"/>
      <point x="659" y="707"/>
      <point x="824" y="707" type="curve" smooth="yes"/>
      <point x="984" y="707" type="line"/>
      <point x="1007" y="754" type="line"/>
      <point x="984" y="797" type="line"/>
      <point x="712" y="797" type="line"/>
      <point x="524" y="797"/>
      <point x="220" y="143"/>
      <point x="99" y="108" type="curve"/>
      <point x="20" y="88" type="line"/>
      <point x="20" y="0" type="line"/>
    </contour>
    <contour>
      <point x="2095" y="0" type="line"/>
      <point x="2095" y="88" type="line"/>
      <point x="2015" y="108" type="line"/>
      <point x="1893" y="143"/>
      <point x="1589" y="797"/>
      <point x="1400" y="797" type="curve" smooth="yes"/>
      <point x="1131" y="797" type="line"/>
      <point x="1107" y="754" type="line"/>
      <point x="1131" y="707" type="line"/>
      <point x="1289" y="707" type="line"/>
      <point x="1454" y="707"/>
      <point x="1743" y="0"/>
      <point x="1884" y="0" type="curve" smooth="yes"/>
    </contour>
    <contour>
      <point x="1055" y="1700" type="move" name="top"/>
    </contour>
  </outline>
</glyph>
<glyph name="afii10026" format="1">
  <advance width="1721"/>
  <unicode hex="0418"/>
  <outline>
    <contour>
      <point x="450" y="1455" type="line"/>
      <point x="423" y="1409" type="line"/>
      <point x="658" y="1434" type="line"/>
      <point x="658" y="1522" type="line"/>
      <point x="118" y="1522" type="line"/>
      <point x="118" y="1434" type="line"/>
      <point x="314" y="1408" type="line"/>
      <point x="286" y="1455" type="line"/>
      <point x="286" y="82" type="line"/>
      <point x="327" y="112" type="line"/>
      <point x="110" y="88" type="line"/>
      <point x="110" y="0" type="line"/>
      <point x="648" y="0" type="line"/>
      <point x="648" y="88" type="line"/>
      <point x="413" y="111" type="line"/>
      <point x="450" y="82" type="line"/>
    </contour>
    <contour>
      <point x="1270" y="69" type="line"/>
      <point x="1305" y="111" type="line"/>
      <point x="1084" y="88" type="line"/>
      <point x="1084" y="0" type="line"/>
      <point x="1616" y="0" type="line"/>
      <point x="1616" y="88" type="line"/>
      <point x="1385" y="113" type="line"/>
      <point x="1435" y="69" type="line"/>
      <point x="1435" y="1451" type="line"/>
      <point x="1397" y="1406" type="line"/>
      <point x="1604" y="1434" type="line"/>
      <point x="1604" y="1522" type="line"/>
      <point x="1083" y="1522" type="line"/>
      <point x="1083" y="1434" type="line"/>
      <point x="1311" y="1406" type="line"/>
      <point x="1270" y="1449" type="line"/>
    </contour>
    <contour>
      <point x="639" y="605" type="line"/>
      <point x="387" y="246" type="line"/>
      <point x="410" y="172" type="line"/>
      <point x="446" y="182" type="line"/>
      <point x="1100" y="950" type="line"/>
      <point x="1349" y="1315" type="line"/>
      <point x="1335" y="1342" type="line"/>
      <point x="1276" y="1358" type="line"/>
    </contour>
    <contour>
      <point x="772" y="-170" type="move" name="btm"/>
    </contour>
    <contour>
      <point x="856" y="1700" type="move" name="top"/>
    </contour>
  </outline>
</glyph>
<glyph name="afii10033" format="1">
  <advance width="1614"/>
  <unicode hex="041F"/>
  <outline>
    <contour>
      <point x="116" y="0" type="line"/>
      <point x="653" y="0" type="line"/>
      <point x="653" y="88" type="line"/>
      <point x="418" y="111" type="line"/>
      <point x="453" y="71" type="line"/>
      <point x="453" y="1413" type="line"/>
      <point x="1163" y="1413" type="line"/>
      <point x="1163" y="71" type="line"/>
      <point x="1189" y="111" type="line"/>
      <point x="985" y="88" type="line"/>
      <point x="985" y="0" type="line"/>
      <point x="1528" y="0" type="line"/>
      <point x="1528" y="88" type="line"/>
      <point x="1300" y="111" type="line"/>
      <point x="1329" y="71" type="line"/>
      <point x="1329" y="1463" type="line"/>
      <point x="1293" y="1403" type="line"/>
      <point x="1509" y="1434" type="line"/>
      <point x="1509" y="1522" type="line"/>
      <point x="107" y="1522" type="line"/>
      <point x="107" y="1434" type="line"/>
      <point x="324" y="1407" type="line"/>
      <point x="286" y="1458" type="line"/>
      <point x="286" y="75" type="line"/>
      <point x="321" y="111" type="line"/>
      <point x="116" y="88" type="line"/>
    </contour>
    <contour>
      <point x="833" y="-170" type="move" name="btm"/>
    </contour>
    <contour>
      <point x="832" y="1700" type="move" name="top"/>
    </contour>
  </outline>
</glyph>
<glyph name="afii10037" format="1">
  <advance width="1272"/>
  <unicode hex="0423"/>
  <outline>
    <contour>
      <point x="631" y="330" type="line"/>
      <point x="750" y="311" type="line"/>
      <point x="1215" y="1454" type="line"/>
      <point x="1168" y="1406" type="line"/>
      <point x="1303" y="1434" type="line"/>
      <point x="1303" y="1522" type="line"/>
      <point x="875" y="1522" type="line"/>
      <point x="875" y="1434" type="line"/>
      <point x="1084" y="1409" type="line"/>
      <point x="1078" y="1457" type="line"/>
      <point x="780" y="666" type="line"/>
      <point x="709" y="470" type="line"/>
      <point x="643" y="664" type="line"/>
      <point x="263" y="1454" type="line"/>
      <point x="254" y="1408" type="line"/>
      <point x="494" y="1434" type="line"/>
      <point x="494" y="1522" type="line"/>
      <point x="-12" y="1522" type="line"/>
      <point x="-12" y="1434" type="line"/>
      <point x="135" y="1405" type="line"/>
      <point x="81" y="1450" type="line"/>
    </contour>
    <contour>
      <point x="431" y="-23" type="curve" smooth="yes"/>
      <point x="639" y="-23"/>
      <point x="698" y="197"/>
      <point x="750" y="311" type="curve"/>
      <point x="712" y="423" type="line"/>
      <point x="631" y="334" type="line"/>
      <point x="581" y="192"/>
      <point x="532" y="137"/>
      <point x="405" y="137" type="curve" smooth="yes"/>
      <point x="390" y="137"/>
      <point x="269" y="139"/>
      <point x="262" y="141" type="curve"/>
      <point x="262" y="11" type="line"/>
      <point x="303" y="-8"/>
      <point x="365" y="-23"/>
    </contour>
    <contour>
      <point x="653" y="-170" type="move" name="btm"/>
    </contour>
    <contour>
      <point x="653" y="1700" type="move" name="top"/>
    </contour>
  </outline>
</glyph>
<glyph name="afii10038" format="1">
  <advance width="1495"/>
  <unicode hex="0424"/>
  <outline>
    <contour>
      <point x="464" y="-42" type="line"/>
      <point x="1030" y="-42" type="line"/>
      <point x="1030" y="43" type="line"/>
      <point x="787" y="75" type="line"/>
      <point x="826" y="18" type="line"/>
      <point x="826" y="1491" type="line"/>
      <point x="795" y="1447" type="line"/>
      <point x="1029" y="1474" type="line"/>
      <point x="1029" y="1562" type="line"/>
      <point x="464" y="1562" type="line"/>
      <point x="464" y="1474" type="line"/>
      <point x="708" y="1446" type="line"/>
      <point x="669" y="1490" type="line"/>
      <point x="669" y="19" type="line"/>
      <point x="705" y="75" type="line"/>
      <point x="464" y="47" type="line"/>
    </contour>
    <contour>
      <point x="735" y="233" type="curve"/>
      <point x="1178" y="231"/>
      <point x="1457" y="472"/>
      <point x="1457" y="777" type="curve" smooth="yes"/>
      <point x="1457" y="1040"/>
      <point x="1345" y="1307"/>
      <point x="757" y="1304" type="curve"/>
      <point x="314" y="1307"/>
      <point x="38" y="1082"/>
      <point x="38" y="781" type="curve" smooth="yes"/>
      <point x="38" y="515"/>
      <point x="156" y="231"/>
    </contour>
    <contour>
      <point x="744" y="314" type="curve"/>
      <point x="298" y="311"/>
      <point x="229" y="577"/>
      <point x="229" y="792" type="curve" smooth="yes"/>
      <point x="229" y="1020"/>
      <point x="324" y="1231"/>
      <point x="746" y="1228" type="curve"/>
      <point x="1194" y="1231"/>
      <point x="1263" y="994"/>
      <point x="1263" y="774" type="curve" smooth="yes"/>
      <point x="1263" y="531"/>
      <point x="1166" y="311"/>
    </contour>
    <contour>
      <point x="746" y="-170" type="move" name="btm"/>
    </contour>
    <contour>
      <point x="760" y="1700" type="move" name="top"/>
    </contour>
  </outline>
</glyph>
<glyph name="afii10040" format="1">
  <advance width="1617"/>
  <unicode hex="0426"/>
  <outline>
    <contour>
      <point x="1484" y="1522" type="line"/>
      <point x="988" y="1522" type="line"/>
      <point x="988" y="1434" type="line"/>
      <point x="1172" y="1408" type="line"/>
      <point x="1147" y="1456" type="line"/>
      <point x="1147" y="64" type="line"/>
      <point x="1200" y="107" type="line"/>
      <point x="391" y="107" type="line"/>
      <point x="451" y="75" type="line"/>
      <point x="451" y="1455" type="line"/>
      <point x="424" y="1409" type="line"/>
      <point x="658" y="1434" type="line"/>
      <point x="658" y="1522" type="line"/>
      <point x="109" y="1522" type="line"/>
      <point x="109" y="1434" type="line"/>
      <point x="313" y="1408" type="line"/>
      <point x="286" y="1453" type="line"/>
      <point x="286" y="79" type="line"/>
      <point x="326" y="115" type="line"/>
      <point x="87" y="85" type="line"/>
      <point x="87" y="0" type="line"/>
      <point x="1511" y="0" type="line"/>
      <point x="1548" y="107" type="line"/>
      <point x="1263" y="109" type="line"/>
      <point x="1313" y="64" type="line"/>
      <point x="1313" y="1444" type="line"/>
      <point x="1286" y="1408" type="line"/>
      <point x="1484" y="1434" type="line"/>
    </contour>
    <contour>
      <point x="1391" y="-369" type="curve"/>
      <point x="1502" y="-369" type="line"/>
      <point x="1503" y="-367"/>
      <point x="1555" y="106"/>
      <point x="1555" y="109" type="curve"/>
      <point x="1275" y="109" type="line"/>
      <point x="1373" y="1" type="line"/>
      <point x="1375" y="-3"/>
      <point x="1390" y="-327"/>
    </contour>
    <contour>
      <point x="806" y="-170" type="move" name="btm"/>
    </contour>
    <contour>
      <point x="806" y="1700" type="move" name="top"/>
    </contour>
  </outline>
</glyph>
<glyph name="afii10042" format="1">
  <advance width="2198"/>
  <unicode hex="0428"/>
  <outline>
    <contour>
      <point x="388" y="107" type="line"/>
      <point x="451" y="79" type="line"/>
      <point x="451" y="1461" type="line"/>
      <point x="424" y="1407" type="line"/>
      <point x="643" y="1434" type="line"/>
      <point x="643" y="1522" type="line"/>
      <point x="111" y="1522" type="line"/>
      <point x="111" y="1434" type="line"/>
      <point x="313" y="1408" type="line"/>
      <point x="286" y="1458" type="line"/>
      <point x="286" y="76" type="line"/>
      <point x="326" y="111" type="line"/>
      <point x="84" y="88" type="line"/>
      <point x="84" y="0" type="line"/>
      <point x="2112" y="0" type="line"/>
      <point x="2112" y="88" type="line"/>
      <point x="1869" y="112" type="line"/>
      <point x="1912" y="65" type="line"/>
      <point x="1912" y="1447" type="line"/>
      <point x="1885" y="1408" type="line"/>
      <point x="2085" y="1434" type="line"/>
      <point x="2085" y="1522" type="line"/>
      <point x="1590" y="1522" type="line"/>
      <point x="1590" y="1434" type="line"/>
      <point x="1770" y="1408" type="line"/>
      <point x="1747" y="1462" type="line"/>
      <point x="1747" y="69" type="line"/>
      <point x="1798" y="107" type="line"/>
      <point x="1134" y="107" type="line"/>
      <point x="1184" y="69" type="line"/>
      <point x="1184" y="1448" type="line"/>
      <point x="1159" y="1408" type="line"/>
      <point x="1348" y="1434" type="line"/>
      <point x="1348" y="1522" type="line"/>
      <point x="865" y="1522" type="line"/>
      <point x="865" y="1434" type="line"/>
      <point x="1046" y="1408" type="line"/>
      <point x="1023" y="1461" type="line"/>
      <point x="1023" y="69" type="line"/>
      <point x="1073" y="107" type="line"/>
    </contour>
    <contour>
      <point x="783" y="-170" type="move" name="btm"/>
    </contour>
    <contour>
      <point x="794" y="1700" type="move" name="top"/>
    </contour>
  </outline>
</glyph>
<glyph name="afii10043" format="1">
  <advance width="2217"/>
  <unicode hex="0429"/>
  <outline>
    <contour>
      <point x="84" y="0" type="line"/>
      <point x="2141" y="0" type="line"/>
      <point x="2129" y="103" type="line"/>
      <point x="1856" y="105" type="line"/>
      <point x="1912" y="65" type="line"/>
      <point x="1912" y="1456" type="line"/>
      <point x="1884" y="1408" type="line"/>
      <point x="2085" y="1434" type="line"/>
      <point x="2085" y="1522" type="line"/>
      <point x="1590" y="1522" type="line"/>
      <point x="1590" y="1434" type="line"/>
      <point x="1768" y="1408" type="line"/>
      <point x="1747" y="1462" type="line"/>
      <point x="1747" y="67" type="line"/>
      <point x="1808" y="107" type="line"/>
      <point x="1134" y="107" type="line"/>
      <point x="1184" y="67" type="line"/>
      <point x="1184" y="1448" type="line"/>
      <point x="1159" y="1408" type="line"/>
      <point x="1348" y="1434" type="line"/>
      <point x="1348" y="1522" type="line"/>
      <point x="865" y="1522" type="line"/>
      <point x="865" y="1434" type="line"/>
      <point x="1046" y="1408" type="line"/>
      <point x="1023" y="1461" type="line"/>
      <point x="1023" y="67" type="line"/>
      <point x="1081" y="107" type="line"/>
      <point x="389" y="107" type="line"/>
      <point x="451" y="67" type="line"/>
      <point x="451" y="1461" type="line"/>
      <point x="426" y="1409" type="line"/>
      <point x="643" y="1434" type="line"/>
      <point x="643" y="1522" type="line"/>
      <point x="111" y="1522" type="line"/>
      <point x="111" y="1434" type="line"/>
      <point x="316" y="1407" type="line"/>
      <point x="286" y="1458" type="line"/>
      <point x="286" y="64" type="line"/>
      <point x="326" y="111" type="line"/>
      <point x="84" y="88" type="line"/>
    </contour>
    <contour>
      <point x="1994" y="-369" type="curve"/>
      <point x="2105" y="-369" type="line"/>
      <point x="2106" y="-367"/>
      <point x="2160" y="104"/>
      <point x="2160" y="108" type="curve"/>
      <point x="1877" y="108" type="line"/>
      <point x="1977" y="1" type="line"/>
      <point x="1979" y="-3"/>
      <point x="1993" y="-327"/>
    </contour>
    <contour>
      <point x="808" y="-170" type="move" name="btm"/>
    </contour>
    <contour>
      <point x="819" y="1700" type="move" name="top"/>
    </contour>
  </outline>
</glyph>
<glyph name="afii10044" format="1">
  <advance width="1657"/>
  <unicode hex="042A"/>
  <outline>
    <contour>
      <point x="805" y="52" type="line"/>
      <point x="805" y="1466" type="line"/>
      <point x="769" y="1407" type="line"/>
      <point x="992" y="1434" type="line"/>
      <point x="992" y="1522" type="line"/>
      <point x="104" y="1522" type="line"/>
      <point x="79" y="1035" type="line"/>
      <point x="196" y="1035" type="line"/>
      <point x="251" y="1413" type="line"/>
      <point x="632" y="1430" type="line"/>
      <point x="632" y="56" type="line"/>
      <point x="662" y="111" type="line"/>
      <point x="366" y="85" type="line"/>
      <point x="366" y="0" type="line"/>
      <point x="727" y="0" type="line"/>
    </contour>
    <contour>
      <point x="727" y="0" type="line"/>
      <point x="812" y="0"/>
      <point x="998" y="-16"/>
      <point x="1047" y="-16" type="curve" smooth="yes"/>
      <point x="1367" y="-16"/>
      <point x="1588" y="152"/>
      <point x="1588" y="480" type="curve" smooth="yes"/>
      <point x="1588" y="760"/>
      <point x="1408" y="926"/>
      <point x="1074" y="926" type="curve"/>
      <point x="805" y="926" type="line"/>
      <point x="748" y="841" type="line"/>
      <point x="805" y="821" type="line"/>
      <point x="1030" y="821" type="line"/>
      <point x="1267" y="821"/>
      <point x="1411" y="704"/>
      <point x="1411" y="466" type="curve" smooth="yes"/>
      <point x="1411" y="210"/>
      <point x="1269" y="78"/>
      <point x="1030" y="78" type="curve" smooth="yes"/>
      <point x="912" y="78"/>
      <point x="862" y="87"/>
      <point x="803" y="96" type="curve"/>
    </contour>
    <contour>
      <point x="748" y="-170" type="move" name="btm"/>
    </contour>
    <contour>
      <point x="752" y="1700" type="move" name="top"/>
    </contour>
  </outline>
</glyph>
<glyph name="afii10046" format="1">
  <advance width="1304"/>
  <unicode hex="042C"/>
  <outline>
    <contour>
      <point x="107" y="0" type="line"/>
      <point x="373" y="0" type="line"/>
      <point x="450" y="63" type="line"/>
      <point x="450" y="1465" type="line"/>
      <point x="421" y="1410" type="line"/>
      <point x="644" y="1438" type="line"/>
      <point x="644" y="1522" type="line"/>
      <point x="112" y="1522" type="line"/>
      <point x="112" y="1438" type="line"/>
      <point x="319" y="1409" type="line"/>
      <point x="284" y="1457" type="line"/>
      <point x="284" y="60" type="line"/>
      <point x="330" y="111" type="line"/>
      <point x="107" y="88" type="line"/>
    </contour>
    <contour>
      <point x="374" y="0" type="line"/>
      <point x="459" y="0"/>
      <point x="645" y="-16"/>
      <point x="694" y="-16" type="curve" smooth="yes"/>
      <point x="1013" y="-16"/>
      <point x="1235" y="152"/>
      <point x="1235" y="480" type="curve" smooth="yes"/>
      <point x="1235" y="760"/>
      <point x="1054" y="926"/>
      <point x="721" y="926" type="curve" smooth="yes"/>
      <point x="451" y="926" type="line"/>
      <point x="394" y="870" type="line"/>
      <point x="451" y="817" type="line"/>
      <point x="676" y="817" type="line" smooth="yes"/>
      <point x="913" y="817"/>
      <point x="1058" y="704"/>
      <point x="1058" y="466" type="curve" smooth="yes"/>
      <point x="1058" y="210"/>
      <point x="915" y="81"/>
      <point x="676" y="81" type="curve" smooth="yes"/>
      <point x="558" y="81"/>
      <point x="509" y="91"/>
      <point x="450" y="100" type="curve"/>
    </contour>
    <contour>
      <point x="664" y="1700" type="move" name="top"/>
    </contour>
  </outline>
</glyph>
<glyph name="afii10047" format="1">
  <advance width="1342"/>
  <unicode hex="042D"/>
  <outline>
    <contour>
      <point x="557" y="-23" type="curve" smooth="yes"/>
      <point x="970" y="-23"/>
      <point x="1267" y="292"/>
      <point x="1267" y="746" type="curve" smooth="yes"/>
      <point x="1267" y="1213"/>
      <point x="1012" y="1538"/>
      <point x="579" y="1538" type="curve" smooth="yes"/>
      <point x="319" y="1538"/>
      <point x="239" y="1464"/>
      <point x="130" y="1460" type="curve"/>
      <point x="121" y="1148" type="line"/>
      <point x="242" y="1148" type="line"/>
      <point x="292" y="1336" type="line"/>
      <point x="347" y="1381"/>
      <point x="403" y="1437"/>
      <point x="572" y="1437" type="curve" smooth="yes"/>
      <point x="912" y="1437"/>
      <point x="1072" y="1104"/>
      <point x="1072" y="733" type="curve" smooth="yes"/>
      <point x="1072" y="324"/>
      <point x="861" y="81"/>
      <point x="588" y="81" type="curve" smooth="yes"/>
      <point x="405" y="81"/>
      <point x="332" y="139"/>
      <point x="284" y="172" type="curve"/>
      <point x="198" y="354" type="line"/>
      <point x="93" y="329" type="line"/>
      <point x="142" y="55" type="line"/>
      <point x="248" y="55"/>
      <point x="335" y="-23"/>
    </contour>
    <contour>
      <point x="368" y="704" type="line"/>
      <point x="1093" y="723" type="line"/>
      <point x="1093" y="836" type="line"/>
      <point x="368" y="855" type="line"/>
    </contour>
    <contour>
      <point x="684" y="1700" type="move" name="top"/>
    </contour>
  </outline>
</glyph>
<glyph name="afii10049" format="1">
  <advance width="1419"/>
  <unicode hex="042F"/>
  <outline>
    <contour>
      <point x="766" y="0" type="line"/>
      <point x="1334" y="0" type="line"/>
      <point x="1334" y="85" type="line"/>
      <point x="1104" y="111" type="line"/>
      <point x="1135" y="58" type="line"/>
      <point x="1135" y="1447" type="line"/>
      <point x="1106" y="1408" type="line"/>
      <point x="1314" y="1434" type="line"/>
      <point x="1314" y="1522" type="line"/>
      <point x="1030" y="1522" type="line"/>
      <point x="930" y="1522"/>
      <point x="845" y="1538"/>
      <point x="747" y="1538" type="curve" smooth="yes"/>
      <point x="453" y="1538"/>
      <point x="188" y="1474"/>
      <point x="188" y="1099" type="curve" smooth="yes"/>
      <point x="188" y="851"/>
      <point x="344" y="696"/>
      <point x="576" y="673" type="curve"/>
      <point x="628" y="671" type="line"/>
      <point x="666" y="671"/>
      <point x="925" y="673"/>
      <point x="969" y="674" type="curve"/>
      <point x="969" y="58" type="line"/>
      <point x="1011" y="111" type="line"/>
      <point x="765" y="85" type="line"/>
    </contour>
    <contour>
      <point x="-10" y="0" type="line"/>
      <point x="189" y="0"/>
      <point x="222" y="0"/>
      <point x="223" y="0" type="curve" smooth="yes"/>
      <point x="336" y="0"/>
      <point x="517" y="644"/>
      <point x="672" y="687" type="curve"/>
      <point x="638" y="723" type="line"/>
      <point x="517" y="705" type="line"/>
      <point x="370" y="668"/>
      <point x="180" y="129"/>
      <point x="71" y="108" type="curve"/>
      <point x="-10" y="85" type="line"/>
    </contour>
    <contour>
      <point x="969" y="781" type="line"/>
      <point x="927" y="777"/>
      <point x="848" y="774"/>
      <point x="720" y="774" type="curve" smooth="yes"/>
      <point x="493" y="774"/>
      <point x="363" y="897"/>
      <point x="363" y="1121" type="curve" smooth="yes"/>
      <point x="363" y="1374"/>
      <point x="510" y="1437"/>
      <point x="720" y="1437" type="curve" smooth="yes"/>
      <point x="854" y="1437"/>
      <point x="899" y="1423"/>
      <point x="969" y="1421" type="curve"/>
    </contour>
    <contour>
      <point x="657" y="-170" type="move" name="btm"/>
    </contour>
    <contour>
      <point x="657" y="1700" type="move" name="top"/>
    </contour>
  </outline>
</glyph>
<glyph name="afii10069" format="1">
  <advance width="1243"/>
  <unicode hex="0434"/>
  <outline>
    <contour>
      <point x="822" y="1028" type="line"/>
      <point x="822" y="56" type="line"/>
      <point x="983" y="58" type="line"/>
      <point x="983" y="1136" type="line"/>
      <point x="358" y="1136" type="line"/>
      <point x="358" y="977" type="line"/>
      <point x="358" y="306"/>
      <point x="213" y="128"/>
      <point x="140" y="102" type="curve"/>
      <point x="175" y="16" type="line"/>
      <point x="304" y="102" type="line"/>
      <point x="374" y="196"/>
      <point x="459" y="514"/>
      <point x="458" y="888" type="curve" smooth="yes"/>
      <point x="458" y="1028" type="line"/>
    </contour>
    <contour>
      <point x="5" y="-369" type="curve"/>
      <point x="118" y="-369" type="line"/>
      <point x="128" y="-325"/>
      <point x="188" y="-4"/>
      <point x="189" y="0" type="curve"/>
      <point x="82" y="63" type="line"/>
      <point x="23" y="102" type="line"/>
      <point x="22" y="90"/>
      <point x="5" y="-364"/>
    </contour>
    <contour>
      <point x="358" y="1018" type="line"/>
      <point x="415" y="1067" type="line"/>
      <point x="358" y="1136" type="line"/>
      <point x="171" y="1136" type="line"/>
      <point x="171" y="1048" type="line"/>
    </contour>
    <contour>
      <point x="999" y="-369" type="curve"/>
      <point x="1110" y="-369" type="line"/>
      <point x="1110" y="-367"/>
      <point x="1163" y="99"/>
      <point x="1163" y="102" type="curve"/>
      <point x="1093" y="90" type="line"/>
      <point x="981" y="0" type="line"/>
      <point x="983" y="-4"/>
      <point x="997" y="-327"/>
    </contour>
    <contour>
      <point x="1168" y="1048" type="line"/>
      <point x="1168" y="1136" type="line"/>
      <point x="983" y="1136" type="line"/>
      <point x="954" y="1067" type="line"/>
      <point x="983" y="1018" type="line"/>
    </contour>
    <contour>
      <point x="1142" y="0" type="line"/>
      <point x="1159" y="102" type="line"/>
      <point x="23" y="102" type="line"/>
      <point x="22" y="0" type="line"/>
    </contour>
    <contour>
      <point x="587" y="-170" type="move" name="btm"/>
    </contour>
    <contour>
      <point x="586" y="1700" type="move" name="top"/>
    </contour>
  </outline>
</glyph>
<glyph name="afii10073" format="1">
  <advance width="1104"/>
  <unicode hex="0437"/>
  <outline>
    <contour>
      <point x="114" y="60" type="line"/>
      <point x="191" y="26"/>
      <point x="343" y="-16"/>
      <point x="541" y="-16" type="curve" smooth="yes"/>
      <point x="867" y="-16"/>
      <point x="1033" y="124"/>
      <point x="1031" y="346" type="curve" smooth="yes"/>
      <point x="1029" y="517"/>
      <point x="873" y="633"/>
      <point x="629" y="618" type="curve"/>
      <point x="639" y="599" type="line"/>
      <point x="826" y="626"/>
      <point x="965" y="750"/>
      <point x="965" y="887" type="curve" smooth="yes"/>
      <point x="965" y="1060"/>
      <point x="816" y="1161"/>
      <point x="558" y="1161" type="curve" smooth="yes"/>
      <point x="343" y="1161"/>
      <point x="266" y="1106"/>
      <point x="129" y="1106" type="curve"/>
      <point x="129" y="808" type="line"/>
      <point x="231" y="808" type="line"/>
      <point x="264" y="997" type="line"/>
      <point x="295" y="1018"/>
      <point x="387" y="1058"/>
      <point x="531" y="1058" type="curve" smooth="yes"/>
      <point x="725" y="1058"/>
      <point x="789" y="990"/>
      <point x="789" y="874" type="curve" smooth="yes"/>
      <point x="789" y="757"/>
      <point x="691" y="670"/>
      <point x="509" y="649" type="curve" smooth="yes"/>
      <point x="424" y="638" type="line"/>
      <point x="424" y="527" type="line"/>
      <point x="427" y="528"/>
      <point x="540" y="541"/>
      <point x="542" y="541" type="curve" smooth="yes"/>
      <point x="765" y="546"/>
      <point x="842" y="454"/>
      <point x="842" y="314" type="curve" smooth="yes"/>
      <point x="842" y="174"/>
      <point x="741" y="86"/>
      <point x="520" y="86" type="curve" smooth="yes"/>
      <point x="423" y="86"/>
      <point x="307" y="105"/>
      <point x="262" y="147" type="curve"/>
      <point x="234" y="288" type="line"/>
      <point x="134" y="288" type="line"/>
    </contour>
    <contour>
      <point x="577" y="1700" type="move" name="top"/>
    </contour>
  </outline>
</glyph>
<glyph name="afii10074" format="1">
  <advance width="1473"/>
  <unicode hex="0438"/>
  <outline>
    <contour>
      <point x="883" y="0" type="line"/>
      <point x="1377" y="0" type="line"/>
      <point x="1377" y="88" type="line"/>
      <point x="1159" y="111" type="line"/>
      <point x="1216" y="80" type="line"/>
      <point x="1216" y="1056" type="line"/>
      <point x="1187" y="1012" type="line"/>
      <point x="1371" y="1048" type="line"/>
      <point x="1371" y="1136" type="line"/>
      <point x="893" y="1136" type="line"/>
      <point x="893" y="1048" type="line"/>
      <point x="1053" y="1018" type="line"/>
      <point x="1053" y="80" type="line"/>
      <point x="1104" y="110" type="line"/>
      <point x="883" y="88" type="line"/>
    </contour>
    <contour>
      <point x="908" y="645" type="line"/>
      <point x="1086" y="888" type="line"/>
      <point x="1130" y="948" type="line"/>
      <point x="1089" y="1027" type="line"/>
      <point x="549" y="459" type="line"/>
      <point x="392" y="252" type="line"/>
      <point x="302" y="114" type="line"/>
      <point x="388" y="109" type="line"/>
    </contour>
    <contour>
      <point x="97" y="0" type="line"/>
      <point x="556" y="0" type="line"/>
      <point x="554" y="89" type="line"/>
      <point x="420" y="105" type="line"/>
      <point x="420" y="1055" type="line"/>
      <point x="387" y="1012" type="line"/>
      <point x="595" y="1048" type="line"/>
      <point x="595" y="1136" type="line"/>
      <point x="101" y="1136" type="line"/>
      <point x="101" y="1049" type="line"/>
      <point x="290" y="1011" type="line"/>
      <point x="259" y="1053" type="line"/>
      <point x="259" y="74" type="line"/>
      <point x="307" y="110" type="line"/>
      <point x="97" y="88" type="line"/>
    </contour>
    <contour>
      <point x="744" y="-170" type="move" name="btm"/>
    </contour>
    <contour>
      <point x="745" y="1700" type="move" name="top"/>
    </contour>
  </outline>
</glyph>
<glyph name="afii10078" format="1">
  <advance width="1752"/>
  <unicode hex="043C"/>
  <outline>
    <contour>
      <point x="31" y="0" type="line"/>
      <point x="492" y="0" type="line"/>
      <point x="492" y="88" type="line"/>
      <point x="289" y="106" type="line"/>
      <point x="308" y="53" type="line"/>
      <point x="394" y="694" type="line"/>
      <point x="438" y="1080" type="line"/>
      <point x="415" y="1080" type="line"/>
      <point x="554" y="698" type="line"/>
      <point x="816" y="65" type="line"/>
      <point x="901" y="65" type="line"/>
      <point x="1151" y="699" type="line"/>
      <point x="1280" y="1082" type="line"/>
      <point x="1278" y="1082"/>
      <point x="1265" y="1082"/>
      <point x="1262" y="1082" type="curve"/>
      <point x="1313" y="694" type="line"/>
      <point x="1405" y="44" type="line"/>
      <point x="1428" y="108" type="line"/>
      <point x="1233" y="88" type="line"/>
      <point x="1233" y="0" type="line"/>
      <point x="1725" y="0" type="line"/>
      <point x="1725" y="88" type="line"/>
      <point x="1531" y="107" type="line"/>
      <point x="1570" y="45" type="line"/>
      <point x="1410" y="1018" type="line"/>
      <point x="1621" y="1048" type="line"/>
      <point x="1621" y="1136" type="line"/>
      <point x="1191" y="1136" type="line"/>
      <point x="964" y="542" type="line"/>
      <point x="865" y="229" type="line"/>
      <point x="888" y="229" type="line"/>
      <point x="774" y="542" type="line"/>
      <point x="538" y="1136" type="line"/>
      <point x="136" y="1136" type="line"/>
      <point x="136" y="1048" type="line"/>
      <point x="330" y="1018" type="line"/>
      <point x="186" y="53" type="line"/>
      <point x="216" y="106" type="line"/>
      <point x="31" y="88" type="line"/>
    </contour>
    <contour>
      <point x="936" y="-170" type="move" name="btm"/>
    </contour>
    <contour>
      <point x="933" y="1700" type="move" name="top"/>
    </contour>
  </outline>
</glyph>
